<svg width="30" height="23" viewBox="0 0 30 23" fill="none" xmlns="http://www.w3.org/2000/svg">
<path d="M27.57 5.68997C27.46 5.66497 27.35 5.64497 27.245 5.61997C25.24 5.26497 23.22 5.28497 20.985 5.04497C19.42 4.81997 17.625 4.86997 16.055 4.84997C19.77 5.07497 23.685 5.12497 27.225 5.90497C26.855 6.10497 26.42 6.25997 25.92 6.23997C24.715 6.10997 23.53 6.00997 22.35 5.93497C22.355 5.84497 22.36 5.66497 22.36 5.57497C18.995 5.73997 15.87 4.94997 12.5 5.37497C12.62 5.42497 12.55 5.49997 12.52 5.55497C12.495 5.60497 12.51 5.64497 12.72 5.64997C12.51 5.64997 12.5 5.60997 12.52 5.55497C15.825 5.49497 18.915 5.63997 22.205 5.91497C17.09 5.59497 12.145 5.70497 6.89999 5.72997C6.67499 5.72997 6.22999 5.73497 6.00499 5.73497C5.10999 5.46997 4.20999 5.38497 3.31499 5.39497C3.53499 4.93497 2.62499 4.03497 4.42499 4.19497C4.42499 4.10497 4.41999 3.91997 4.41999 3.82997C2.61999 3.39497 1.91999 2.12997 3.71999 1.73997C5.74999 1.34997 8.45999 1.69997 10.945 1.52997C12.755 1.44497 14.56 1.37497 16.365 1.58497C18.845 1.89997 21.555 1.87497 24.025 2.32497C24.925 2.44497 26.515 2.22997 26.955 2.52497C27.275 2.66997 27.28 2.86497 27.22 3.07997C25.74 2.99997 24.27 2.91997 22.805 2.83997C21.015 2.68497 19.23 2.52497 17.44 2.30997C19.19 2.58997 20.985 2.73497 22.805 2.83997C24.26 2.96497 25.715 3.09497 27.165 3.24997C27.105 3.43497 27.045 3.62497 27.125 3.80997C27.125 3.80997 27.575 3.82997 27.8 3.83997C28.68 4.33497 28.425 4.95997 27.96 5.39997C27.85 5.48997 27.715 5.58997 27.57 5.68997Z" fill="white"/>
<path d="M26.765 13.045C26.66 13.03 26.55 13.015 26.45 13.005C24.51 12.82 22.585 12.985 20.44 12.865C18.935 12.725 17.225 12.85 15.725 12.87C19.28 12.995 23.01 12.82 26.455 13.29C26.12 13.52 25.715 13.71 25.23 13.73C24.07 13.695 22.925 13.68 21.79 13.675C21.785 13.585 21.78 13.405 21.78 13.315C18.565 13.69 15.555 13.01 12.34 13.47C12.455 13.52 12.385 13.595 12.365 13.65C12.345 13.7 12.355 13.74 12.555 13.74C12.355 13.74 12.34 13.7 12.365 13.65C15.535 13.555 18.495 13.595 21.665 13.675C16.75 13.655 12.015 13.875 6.975 13.795C6.76 13.79 6.33 13.785 6.115 13.78C5.26 13.49 4.405 13.38 3.55 13.355C3.775 12.905 2.945 11.97 4.65 12.2C4.65 12.11 4.655 11.925 4.66 11.835C2.96 11.335 2.37 10.04 4.075 9.72504C5.99 9.41004 8.525 9.82004 10.86 9.64504C12.555 9.56004 14.25 9.46004 15.945 9.62004C18.28 9.86504 20.82 9.71004 23.165 9.98504C24.02 10.045 25.49 9.71004 25.925 9.96504C26.235 10.08 26.255 10.275 26.22 10.495C24.82 10.525 23.43 10.575 22.05 10.58C20.355 10.535 18.665 10.465 16.975 10.31C18.63 10.535 20.33 10.59 22.05 10.58C23.425 10.61 24.79 10.64 26.185 10.675C26.145 10.865 26.105 11.06 26.195 11.235C26.195 11.235 26.62 11.215 26.835 11.205C27.71 11.62 27.53 12.265 27.125 12.74C27.015 12.82 26.9 12.93 26.765 13.045Z" fill="white"/>
<path d="M3.3 18C3.41 18.025 3.52 18.05 3.625 18.07C5.62 18.425 7.63 18.405 9.855 18.64C11.41 18.86 13.2 18.8 14.76 18.815C11.06 18.615 7.165 18.575 3.645 17.795C4.01 17.595 4.445 17.44 4.945 17.46C6.14 17.59 7.325 17.69 8.495 17.76C8.49 17.85 8.485 18.035 8.485 18.125C11.83 17.94 14.94 18.715 18.285 18.26C18.165 18.21 18.235 18.135 18.26 18.075C14.975 18.165 11.9 18.035 8.625 17.77C13.715 18.075 18.63 17.93 23.845 17.845C24.065 17.84 24.51 17.835 24.735 17.83C25.63 18.085 26.525 18.16 27.415 18.135C27.205 18.6 28.12 19.49 26.33 19.355C26.33 19.445 26.335 19.63 26.34 19.72C28.14 20.13 28.855 21.395 27.065 21.805C25.045 22.225 22.34 21.905 19.865 22.1C18.065 22.2 16.26 22.285 14.46 22.085C11.985 21.785 9.285 21.82 6.82 21.375C5.925 21.255 4.34 21.47 3.9 21.18C3.585 21.035 3.58 20.84 3.635 20.625C5.11 20.705 6.57 20.78 8.03 20.86C9.81 21.015 11.595 21.165 13.38 21.37C11.635 21.095 9.845 20.96 8.03 20.86C6.58 20.735 5.13 20.61 3.685 20.45C3.745 20.265 3.805 20.075 3.725 19.89C3.725 19.89 3.28 19.87 3.055 19.86C2.18 19.365 2.435 18.735 2.9 18.295C3.025 18.2 3.155 18.1 3.3 18Z" fill="white"/>
</svg>
