<svg width="30" height="23" viewBox="0 0 30 23" fill="none" xmlns="http://www.w3.org/2000/svg">
<path d="M25.3479 4.18732C25.2525 4.24743 25.1606 4.31107 25.0686 4.36763C23.3999 5.53436 21.9857 6.97686 20.2356 8.38754C18.9698 9.33506 17.7359 10.6397 16.6116 11.7357C19.3976 9.26788 22.2013 6.53492 25.256 4.5833C25.1358 4.98635 24.9378 5.40355 24.5701 5.74296C23.6261 6.5031 22.7175 7.27031 21.8301 8.05166C21.77 7.98449 21.6462 7.85367 21.5826 7.79003C19.3199 10.2861 16.5515 11.9372 14.4691 14.6207C14.5893 14.5712 14.5929 14.6737 14.6105 14.7338C14.6282 14.7869 14.6671 14.8045 14.8191 14.6596C14.6706 14.8081 14.6353 14.7869 14.6105 14.7338C16.9051 12.3544 19.1926 10.272 21.7134 8.14005C17.8703 11.5306 14.4514 15.105 10.7603 18.8315C10.6012 18.9906 10.2901 19.3088 10.131 19.4679C9.31077 19.9134 8.61427 20.4897 7.98848 21.1296C7.81877 20.6488 6.53891 20.6558 7.92484 19.4962C7.8612 19.4325 7.72685 19.3053 7.66321 19.2416C6.08282 20.2068 4.69336 19.8073 5.69038 18.2587C6.85004 16.5475 9.01378 14.8788 10.6507 13.0014C11.8705 11.6614 13.0973 10.3356 14.5221 9.20778C16.4985 7.67689 18.3971 5.74296 20.4618 4.3146C21.1831 3.76306 22.1554 2.48673 22.6751 2.3842C23.0039 2.26046 23.1453 2.39481 23.2549 2.58926C22.1518 3.57921 21.0558 4.56209 19.9633 5.54143C18.588 6.69755 17.2127 7.8466 15.7949 8.96029C17.2304 7.92085 18.6022 6.75412 19.9633 5.54143C21.0806 4.60098 22.2013 3.66406 23.3362 2.74836C23.4246 2.9216 23.5165 3.09838 23.7039 3.17262C23.7039 3.17262 24.0363 2.86857 24.2024 2.71654C25.1747 2.4443 25.4363 3.06656 25.4187 3.70649C25.4045 3.84791 25.3798 4.01408 25.3479 4.18732Z" fill="black"/>
<path d="M8.10704 1.60163C8.16714 1.69709 8.22724 1.79254 8.28735 1.88093C9.447 3.54263 10.8824 4.94978 12.2896 6.68926C13.2336 7.94437 14.5417 9.16767 15.6342 10.2814C13.1593 7.52365 10.4334 4.74118 8.49594 1.70062C8.89546 1.81729 9.31265 2.01528 9.65206 2.38298C10.4051 3.3199 11.1723 4.22853 11.9502 5.10534C11.883 5.16544 11.7486 5.29272 11.685 5.35636C14.1811 7.59082 15.8322 10.3379 18.5192 12.3815C18.4697 12.2613 18.5722 12.2577 18.6323 12.233C16.2458 9.97377 14.1634 7.70749 12.035 5.20434C15.4185 9.01918 18.9965 12.3921 22.7441 16.0195C22.9032 16.1716 23.2214 16.4827 23.3841 16.6383C23.8366 17.4514 24.4165 18.1373 25.0635 18.749C24.5862 18.9293 24.6038 20.2056 23.4336 18.8444C23.3699 18.9081 23.2427 19.0424 23.1826 19.1096C24.1654 20.6723 23.7765 22.0724 22.2209 21.0966C20.4955 19.9652 18.8091 17.8262 16.9211 16.214C15.5776 15.0119 14.2412 13.7957 13.1098 12.3815C11.5719 10.4192 9.63792 8.53481 8.20957 6.47713C7.66156 5.75941 6.38877 4.79068 6.2827 4.27449C6.16249 3.94922 6.29684 3.8078 6.48776 3.69466C7.47417 4.79421 8.45352 5.87962 9.42932 6.96857C10.5784 8.33682 11.7345 9.70507 12.8517 11.1122C11.8123 9.68386 10.642 8.32268 9.42932 6.96857C8.49241 5.85487 7.55549 4.74118 6.64686 3.60627C6.8201 3.51789 6.99688 3.42596 7.07112 3.23858C7.07112 3.23858 6.7706 2.90977 6.61858 2.7436C6.34987 1.77487 6.97566 1.5097 7.6156 1.52738C7.77116 1.54859 7.93379 1.56981 8.10704 1.60163Z" fill="black"/>
</svg>
