<svg width="67" height="47" viewBox="0 0 67 47" fill="none" xmlns="http://www.w3.org/2000/svg">
<path fill-rule="evenodd" clip-rule="evenodd" d="M66.6237 15.3262C67.1592 19.8866 67.3172 23.2523 65.7634 28.156C65.4649 29.1055 66.6632 28.3343 66.3867 29.4889C65.9258 31.379 64.0033 34.4148 62.1291 34.8874C59.6886 35.5115 59.2365 33.3093 57.7749 33.9468C55.3476 35.0033 51.4894 34.4148 49.1807 31.9318C46.2135 33.1889 41.179 32.4043 38.7737 30.6123C37.413 31.4281 34.7619 32.226 32.0581 32.1859C30.2716 32.1591 28.6213 31.9318 27.7083 30.7906C25.3381 32.1146 20.6635 32.917 17.6656 31.7446C16.1513 32.7832 14.7511 34.0225 12.438 34.2365C9.29526 34.5396 8.93534 32.9304 8.19794 33.5233C6.60024 34.7848 4.36609 35.1682 2.18901 32.4444C1.4165 31.4771 0.556196 29.315 0.481578 28.5438C0.411349 27.835 1.05219 28.1961 1.10486 27.7236C1.18386 27.0103 0.850279 26.199 0.626426 25.2227C0.0250941 22.5925 -0.470895 17.7156 0.762493 14.5817C0.801996 14.5817 0.841499 14.5817 0.881003 14.5817C1.19703 17.6131 3.27755 19.998 4.20369 22.6059C4.24319 22.6059 4.2827 22.6059 4.3222 22.6059C4.09835 19.1956 3.01419 15.5625 3.04492 11.8357C3.09759 4.91704 4.08518 3.36124 4.7304 0C4.76991 0 4.80941 0 4.84892 0C5.90234 8.38527 11.2222 14.5059 17.1257 18.5626C17.1652 18.5626 17.2047 18.5626 17.2442 18.5626C17.771 16.084 19.2589 14.0646 20.2772 11.9516C21.9978 13.3469 24.1091 14.2518 27.2738 18.8078C29.701 18.3665 31.5445 13.1151 33.0325 11.3453C33.072 11.4166 33.1115 11.4924 33.1466 11.5682C34.9682 13.7971 36.5264 16.9801 39.7832 18.8568C40.3011 18.2327 40.8235 17.6131 41.3414 16.9934C43.2551 15.3574 45.1601 13.7169 47.0694 12.0809C48.079 13.3335 49.1324 16.5075 50.0541 18.7721C56.5634 14.6174 60.6279 9.05395 62.7962 0.65085C64.3983 3.75353 64.7319 12.4731 63.8891 16.8508C63.5643 18.8613 63.2395 20.8673 62.9147 22.8778C62.8972 22.8957 62.884 22.9135 62.8708 22.9313C62.8708 23.0071 62.8708 23.0784 62.8708 23.1542C62.8884 23.0606 62.9016 22.9715 62.9191 22.8778C64.3456 21.1526 65.6185 16.9087 66.6281 15.3351L66.6237 15.3262Z" fill="white" fill-opacity="0.3"/>
<path fill-rule="evenodd" clip-rule="evenodd" d="M66.6237 27.3262C67.1592 31.8866 67.3172 35.2523 65.7634 40.156C65.4649 41.1055 66.6632 40.3343 66.3867 41.4889C65.9258 43.379 64.0033 46.4148 62.1291 46.8874C59.6886 47.5115 59.2365 45.3093 57.7749 45.9468C55.3476 47.0033 51.4894 46.4148 49.1807 43.9318C46.2135 45.1889 41.179 44.4043 38.7737 42.6123C37.413 43.4281 34.7619 44.226 32.0581 44.1859C30.2716 44.1591 28.6213 43.9318 27.7083 42.7906C25.3381 44.1146 20.6635 44.917 17.6656 43.7446C16.1513 44.7832 14.7511 46.0225 12.438 46.2365C9.29526 46.5396 8.93534 44.9304 8.19794 45.5233C6.60024 46.7848 4.36609 47.1682 2.18901 44.4444C1.4165 43.4771 0.556196 41.315 0.481578 40.5438C0.411349 39.835 1.05219 40.1961 1.10486 39.7236C1.18386 39.0103 0.850279 38.199 0.626426 37.2227C0.0250941 34.5925 -0.470895 29.7156 0.762493 26.5817C0.801996 26.5817 0.841499 26.5817 0.881003 26.5817C1.19703 29.6131 3.27755 31.998 4.20369 34.6059C4.24319 34.6059 4.2827 34.6059 4.3222 34.6059C4.09835 31.1956 3.01419 27.5625 3.04492 23.8357C3.09759 16.917 4.08518 15.3612 4.7304 12C4.76991 12 4.80941 12 4.84892 12C5.90234 20.3853 11.2222 26.5059 17.1257 30.5626C17.1652 30.5626 17.2047 30.5626 17.2442 30.5626C17.771 28.084 19.2589 26.0646 20.2772 23.9516C21.9978 25.3469 24.1091 26.2518 27.2738 30.8078C29.701 30.3665 31.5445 25.1151 33.0325 23.3453C33.072 23.4166 33.1115 23.4924 33.1466 23.5682C34.9682 25.7971 36.5264 28.9801 39.7832 30.8568C40.3011 30.2327 40.8235 29.6131 41.3414 28.9934C43.2551 27.3574 45.1601 25.7169 47.0694 24.0809C48.079 25.3335 49.1324 28.5075 50.0541 30.7721C56.5634 26.6174 60.6279 21.054 62.7962 12.6509C64.3983 15.7535 64.7319 24.4731 63.8891 28.8508C63.5643 30.8613 63.2395 32.8673 62.9147 34.8778C62.8972 34.8957 62.884 34.9135 62.8708 34.9313C62.8708 35.0071 62.8708 35.0784 62.8708 35.1542C62.8884 35.0606 62.9016 34.9715 62.9191 34.8778C64.3456 33.1526 65.6185 28.9087 66.6281 27.3351L66.6237 27.3262Z" fill="white"/>
</svg>
