<svg width="67" height="47" viewBox="0 0 67 47" fill="none" xmlns="http://www.w3.org/2000/svg">
<path fill-rule="evenodd" clip-rule="evenodd" d="M66.6232 15.3262C67.1587 19.8866 67.3167 23.2523 65.7629 28.156C65.4644 29.1055 66.6627 28.3343 66.3862 29.4889C65.9253 31.379 64.0028 34.4148 62.1286 34.8874C59.6881 35.5115 59.236 33.3093 57.7744 33.9468C55.3471 35.0033 51.4889 34.4148 49.1802 31.9318C46.213 33.1889 41.1785 32.4043 38.7732 30.6123C37.4125 31.4281 34.7614 32.226 32.0576 32.1859C30.2711 32.1591 28.6208 31.9318 27.7078 30.7906C25.3376 32.1146 20.663 32.917 17.6651 31.7446C16.1508 32.7832 14.7506 34.0225 12.4375 34.2365C9.29477 34.5396 8.93485 32.9304 8.19745 33.5233C6.59975 34.7848 4.3656 35.1682 2.18852 32.4444C1.41601 31.4771 0.555708 29.315 0.48109 28.5438C0.410861 27.835 1.0517 28.1961 1.10437 27.7236C1.18338 27.0103 0.849791 26.199 0.625938 25.2227C0.0246058 22.5925 -0.471384 17.7156 0.762005 14.5817C0.801508 14.5817 0.841011 14.5817 0.880515 14.5817C1.19654 17.6131 3.27706 19.998 4.2032 22.6059C4.2427 22.6059 4.28221 22.6059 4.32171 22.6059C4.09786 19.1956 3.01371 15.5625 3.04443 11.8357C3.0971 4.91704 4.08469 3.36124 4.72992 0C4.76942 0 4.80892 0 4.84843 0C5.90185 8.38527 11.2217 14.5059 17.1252 18.5626C17.1648 18.5626 17.2043 18.5626 17.2438 18.5626C17.7705 16.084 19.2584 14.0646 20.2768 11.9516C21.9974 13.3469 24.1086 14.2518 27.2733 18.8078C29.7005 18.3665 31.544 13.1151 33.032 11.3453C33.0715 11.4166 33.111 11.4924 33.1461 11.5682C34.9677 13.7971 36.5259 16.9801 39.7827 18.8568C40.3007 18.2327 40.823 17.6131 41.3409 16.9934C43.2546 15.3574 45.1596 13.7169 47.0689 12.0809C48.0785 13.3335 49.1319 16.5075 50.0536 18.7721C56.563 14.6174 60.6274 9.05395 62.7957 0.65085C64.3978 3.75353 64.7314 12.4731 63.8887 16.8508C63.5639 18.8613 63.239 20.8673 62.9142 22.8778C62.8967 22.8957 62.8835 22.9135 62.8703 22.9313C62.8703 23.0071 62.8703 23.0784 62.8703 23.1542C62.8879 23.0606 62.9011 22.9715 62.9186 22.8778C64.3452 21.1526 65.618 16.9087 66.6276 15.3351L66.6232 15.3262Z" fill="black" fill-opacity="0.3"/>
<path fill-rule="evenodd" clip-rule="evenodd" d="M66.6232 27.3262C67.1587 31.8866 67.3167 35.2523 65.7629 40.156C65.4644 41.1055 66.6627 40.3343 66.3862 41.4889C65.9253 43.379 64.0028 46.4148 62.1286 46.8874C59.6881 47.5115 59.236 45.3093 57.7744 45.9468C55.3471 47.0033 51.4889 46.4148 49.1802 43.9318C46.213 45.1889 41.1785 44.4043 38.7732 42.6123C37.4125 43.4281 34.7614 44.226 32.0576 44.1859C30.2711 44.1591 28.6208 43.9318 27.7078 42.7906C25.3376 44.1146 20.663 44.917 17.6651 43.7446C16.1508 44.7832 14.7506 46.0225 12.4375 46.2365C9.29477 46.5396 8.93485 44.9304 8.19745 45.5233C6.59975 46.7848 4.3656 47.1682 2.18852 44.4444C1.41601 43.4771 0.555708 41.315 0.48109 40.5438C0.410861 39.835 1.0517 40.1961 1.10437 39.7236C1.18338 39.0103 0.849791 38.199 0.625938 37.2227C0.0246058 34.5925 -0.471384 29.7156 0.762005 26.5817C0.801508 26.5817 0.841011 26.5817 0.880515 26.5817C1.19654 29.6131 3.27706 31.998 4.2032 34.6059C4.2427 34.6059 4.28221 34.6059 4.32171 34.6059C4.09786 31.1956 3.01371 27.5625 3.04443 23.8357C3.0971 16.917 4.08469 15.3612 4.72992 12C4.76942 12 4.80892 12 4.84843 12C5.90185 20.3853 11.2217 26.5059 17.1252 30.5626C17.1648 30.5626 17.2043 30.5626 17.2438 30.5626C17.7705 28.084 19.2584 26.0646 20.2768 23.9516C21.9974 25.3469 24.1086 26.2518 27.2733 30.8078C29.7005 30.3665 31.544 25.1151 33.032 23.3453C33.0715 23.4166 33.111 23.4924 33.1461 23.5682C34.9677 25.7971 36.5259 28.9801 39.7827 30.8568C40.3007 30.2327 40.823 29.6131 41.3409 28.9934C43.2546 27.3574 45.1596 25.7169 47.0689 24.0809C48.0785 25.3335 49.1319 28.5075 50.0536 30.7721C56.563 26.6174 60.6274 21.054 62.7957 12.6509C64.3978 15.7535 64.7314 24.4731 63.8887 28.8508C63.5639 30.8613 63.239 32.8673 62.9142 34.8778C62.8967 34.8957 62.8835 34.9135 62.8703 34.9313C62.8703 35.0071 62.8703 35.0784 62.8703 35.1542C62.8879 35.0606 62.9011 34.9715 62.9186 34.8778C64.3452 33.1526 65.618 28.9087 66.6276 27.3351L66.6232 27.3262Z" fill="black"/>
</svg>
