<svg width="48" height="54" viewBox="0 0 48 54" fill="none" xmlns="http://www.w3.org/2000/svg">
<path d="M29.8018 1.73608C29.6545 1.73608 29.5609 1.76212 29.5073 1.80116C29.6412 1.82719 29.7616 1.82719 29.8018 1.73608Z" fill="url(#paint0_linear_210_2)"/>
<path d="M6.50075 8.37408C6.50075 8.28297 6.50075 8.20488 6.44721 8.11377C6.43383 8.17885 6.44721 8.30901 6.50075 8.37408Z" fill="url(#paint1_linear_210_2)"/>
<path d="M46.893 24.1491C46.6253 24.2402 46.8394 24.6827 46.5851 25.0472C46.371 25.1513 46.197 24.93 46.0766 24.5786C45.9561 24.2272 45.9026 23.7456 45.916 23.212C46.2104 23.4332 46.1301 22.3529 46.2639 21.6631C46.545 21.4288 46.5718 21.8714 46.5316 22.431C46.4915 22.9907 46.3576 23.6415 46.5048 23.8628C46.6654 23.199 46.7993 22.5352 46.8662 21.8453L46.7457 22.2748C46.6387 21.5329 46.4781 20.8171 46.2372 20.1403C46.4915 21.598 45.6081 20.8691 45.5011 20.2965C45.5011 20.0101 45.4743 19.7107 45.4609 19.4374C45.3672 18.4092 45.1665 17.5632 45.675 17.5111C45.0728 17.5371 44.3233 15.9622 43.3597 15.1292C44.0155 16.2876 43.0518 15.5327 42.6503 15.4025C42.3826 14.8168 42.048 14.2311 41.6465 13.6715C43.4132 14.921 41.6733 12.9816 42.3023 12.9946C43.2526 12.9296 44.1359 14.1791 44.7649 15.2073C44.5107 13.9188 43.7076 13.3591 42.9314 12.9946C42.1283 12.6172 41.3655 12.435 40.5758 11.6931C40.6963 11.4458 41.071 11.2505 41.8473 11.8362C41.7536 11.654 41.2183 11.4718 40.6294 11.2896C40.0672 11.1204 39.3713 10.9121 38.8493 10.5477C39.1036 10.8601 39.4917 11.602 38.3006 11.3807C37.8991 10.9902 37.4708 10.6258 37.0291 10.2744C36.989 10.2744 36.9756 10.2613 36.9354 10.2483C36.5205 9.80578 36.1592 9.62356 35.7309 9.93594C35.2357 9.55849 35.5435 9.25912 35.6506 8.9077C35.0751 8.68643 33.9776 8.28295 33.9107 7.48899C34.3925 7.7493 34.7271 7.98358 35.0751 8.30898C35.3294 8.07469 35.1554 7.72327 34.8743 7.3328C34.5799 6.94233 34.1784 6.53884 34.0579 6.12234C33.4557 5.87504 31.5819 5.17219 30.4711 5.0941C30.4309 5.79694 29.7617 6.26551 28.8383 6.27853C29.1862 6.01821 28.2895 5.34139 27.9416 4.8468C28.41 4.63855 27.3125 3.37602 28.4769 3.80554C28.691 4.15696 28.5171 4.71664 29.0256 4.80775C29.0524 4.28712 28.6241 3.48015 28.0219 2.75127C28.1691 2.58206 28.7178 2.55603 29.1193 2.7773C28.7981 2.81634 28.865 2.99856 28.8115 3.16777C30.4845 3.51919 29.0256 2.15254 29.4673 1.81413C28.9855 1.71001 28.1557 1.18938 28.3966 1.74906C28.2226 1.09827 27.4865 0.968113 26.7772 0.890019C26.0678 0.798909 25.3451 0.877003 24.9704 0.343359C24.9168 0.434469 25.3719 0.890019 24.6759 0.994144C23.7123 0.877003 23.8595 0.473516 23.4848 0.200186C23.1368 0.447484 21.6646 0.538594 21.8252 0.421453C21.2095 0.668751 22.4274 1.43668 21.5843 1.87921C21.0489 2.58206 20.2994 1.97032 19.6972 2.25667C18.8941 1.8662 20.3931 1.80112 20.7277 1.60588C19.9782 1.71001 19.2956 1.94429 18.5997 2.13953C17.9037 1.89223 18.7603 1.42366 19.4295 1.43668C18.4659 1.07224 17.4219 1.73604 17.3416 2.34778C16.7929 2.34778 16.5787 2.54301 16.0434 2.47794C16.4047 2.0354 16.0568 1.05922 16.8464 0.707799C18.1982 0.4605 16.552 1.55382 17.703 1.44969L17.6762 0.850972C18.2249 1.07224 18.5462 0.577641 19.0949 0.473516C19.4161 0.590657 19.0547 0.694783 18.8674 0.798909C19.8444 0.603673 20.634 0.890019 21.4237 0.226217C19.9514 -0.372506 17.9974 0.681767 17.3148 0.174154C16.4851 0.629704 15.7489 1.15033 15.053 1.68398C15.1601 1.94429 16.0969 2.08746 15.6017 2.68619C15.0931 2.10048 14.2901 2.06143 13.38 2.34778C13.7012 2.62111 13.4336 2.92047 13.1926 3.20682C12.9651 3.50618 12.751 3.76649 13.0856 3.9357C13.2596 3.40205 13.7414 3.88363 13.8217 3.90966C13.099 4.31315 14.0492 4.58648 13.6745 4.82077C12.3093 5.38044 13.4871 4.3522 12.0684 4.83378C12.1353 4.39125 12.4565 3.32396 13.1123 2.63412C12.8848 2.34778 12.3495 3.08967 11.8275 2.93349C12.4833 3.03761 11.881 3.72744 12.3361 3.67538C11.3725 4.54743 10.73 5.99218 9.77979 6.98137C9.16413 5.99218 11.1449 4.8468 9.99393 4.05284C9.45858 4.62553 9.83332 5.06806 9.31136 5.35441C8.45479 5.12013 7.91944 6.40868 7.23687 7.11153C7.42424 7.0855 7.61162 7.05947 7.79899 7.04645C7.71869 7.48899 7.11642 7.85343 6.76844 8.12676L6.72829 7.94454L6.60783 8.40009C6.54092 8.42612 6.50076 8.4131 6.474 8.40009C6.46061 8.98579 5.4033 9.68864 5.09547 10.5737C5.5639 10.8731 5.60405 9.84483 5.93865 9.54547C6.11264 9.51944 6.80859 9.03786 6.87551 9.58452C6.19294 10.4305 6.34016 11.4067 5.72451 12.3959C5.83158 12.3178 5.93865 12.2267 6.0591 12.1486C6.20632 12.6562 5.80481 13.0077 5.5639 13.5022C4.73411 14.2441 5.20254 12.5 4.62704 12.9035C4.38613 12.3048 5.22931 11.9273 4.66719 11.4718L3.63664 11.7191C3.77048 12.461 2.82023 12.7343 2.78008 13.1378L3.26189 12.9035C3.78386 13.2289 3.20836 13.3851 3.04775 13.5283L3.97123 13.6324C4.31921 13.1899 3.85078 12.448 4.53335 12.2788C4.25229 13.3851 5.02855 13.4632 4.56012 14.5565C4.21214 14.4784 4.53335 14.2962 4.34598 14.088C3.95785 14.3743 4.43966 15.0381 3.95785 15.5587C3.87755 15.1422 3.78386 14.4264 3.15482 14.7257L3.66341 15.2984C3.44927 15.5457 3.24851 15.3505 3.18159 15.4546C2.90053 15.8321 3.87755 15.5848 3.47603 16.1835C3.31543 16.2355 3.10129 16.4178 2.99422 16.2746C2.73993 17.0295 3.0879 16.7041 3.19497 17.4981C3.38235 16.8733 4.37275 17.1466 4.29244 17.7844C3.95785 18.6435 4.35936 19.3463 3.4225 19.8019L3.77048 20.2704C3.19497 19.906 3.44927 20.791 3.31543 21.0514C2.5927 21.0514 3.55634 19.7238 2.45887 19.5155C2.23134 20.1012 1.9369 19.7758 1.68261 19.5155C1.65584 20.2053 2.4321 19.906 2.82023 20.2704C2.52579 20.2314 2.56594 21.3507 2.0172 20.8822C1.89675 21.4418 2.57932 21.6241 2.40533 22.0015C2.13766 21.9104 1.78968 21.7933 1.42832 21.7933C1.65584 21.8714 1.30786 22.3659 1.2811 22.4701C1.42832 22.392 1.84321 22.7174 1.70938 22.2228C2.24473 22.392 1.61569 23.3551 2.08412 23.3682C1.45508 23.3682 1.86998 24.3834 1.60231 24.852C3.07452 24.878 1.09372 23.9018 2.31165 23.8107C2.75331 24.4875 2.24473 25.9973 2.91392 27.0126C2.63286 27.8976 2.3518 27.0126 1.80306 27.1948C1.57554 26.3618 1.99044 26.1665 1.76291 25.4377C1.46847 26.2316 1.62907 27.5202 2.11089 28.0798C2.19119 28.9129 0.665443 29.056 1.06696 30.0582C1.53539 29.9021 1.65584 29.9151 1.81645 29.6027C1.99044 29.863 1.84321 30.1884 1.8566 30.4747C2.16442 30.6309 2.20458 30.0192 2.48563 30.3966C2.40533 30.5528 2.36518 30.8912 2.03059 30.8392L1.97705 30.7741C2.45887 31.6982 0.866199 31.529 1.82983 32.2839C2.05735 32.2058 1.74953 32.0496 1.88337 31.8414C2.24473 31.6722 2.79346 32.1277 2.98083 32.4922C2.64624 32.4531 2.94068 32.8176 2.847 33.0779C2.31165 33.2861 2.64624 32.4531 2.27149 32.336L2.24473 33.0519L2.32503 32.8957L2.91392 33.6245C2.69977 33.1039 3.56972 33.3122 3.65002 33.5465C3.5831 34.0931 3.51618 34.6268 2.91392 34.6137C3.52957 34.6268 3.55634 35.2906 3.73032 35.7461C3.90431 35.2125 4.23891 35.629 4.45305 35.7721L3.9177 36.6182C3.66341 35.7852 3.39573 36.8524 2.95407 36.6963C2.29826 36.514 2.56594 35.9544 2.61947 35.5248C1.57554 36.475 3.3422 36.6832 2.88715 37.5162C2.60609 37.5553 2.27149 37.5162 2.29826 37.1648C2.12427 37.321 2.9273 37.8286 2.68639 38.4273C2.86038 38.2451 3.36896 37.8677 3.69017 38.3753C3.48942 38.6486 3.30204 38.9219 3.12806 39.2083C3.14144 40.1064 3.9177 39.3775 4.37275 40.0153L4.74749 39.4686C5.34976 39.4165 4.94825 40.3927 5.61744 40.2495C5.53713 39.833 4.97501 39.7029 5.0687 39.2343C5.68435 38.948 5.52375 39.7159 5.92526 39.8851C5.87173 40.8353 5.80481 40.653 5.52375 41.486C4.54673 41.8375 3.94446 40.653 2.71316 41.1216C3.14144 42.1108 4.02477 43.5035 4.06492 44.3625C4.85456 45.1825 5.51037 44.6619 5.93865 44.2714C6.23309 44.5577 6.27324 44.766 6.30001 45.0654L5.76466 44.8441C6.74167 45.7161 7.49116 46.0546 8.41464 46.9396C9.08383 47.278 9.24444 46.6142 9.43181 46.1717L10.0608 46.5101V46.3409C10.5427 45.9504 10.8773 46.393 11.2386 46.6272C11.2119 46.6793 11.1851 46.7314 11.1583 46.7834C11.0245 46.8615 10.8639 46.8485 10.8103 46.9657C10.8237 47.0047 10.8639 47.0307 10.8906 47.0568C10.8639 47.0698 10.8371 47.1088 10.797 47.1088C10.4757 47.0828 10.6497 46.6403 10.2884 46.9787C10.4891 47.1349 10.2884 47.265 10.5427 47.4603L10.1545 47.4082C11.1851 47.6425 11.3858 48.4885 11.0914 49.0742C12.1353 49.1913 10.8505 48.2672 11.6669 48.3713C11.6937 48.8529 11.5063 49.0221 11.9078 49.1913C11.9212 49.1263 11.948 48.9961 12.0149 48.9831C12.1219 49.0221 12.2022 49.1263 12.3093 49.1653L11.9078 49.7771C12.3629 49.6599 12.4298 50.7793 13.2462 50.597L13.1257 50.7012C13.4737 51.0526 14.1295 49.9332 14.6113 49.8682C14.6247 49.8682 14.6381 49.8812 14.6515 49.8942C14.4106 50.1285 14.3169 50.4148 14.1964 50.7142C14.5712 50.4929 14.4373 51.0786 14.5979 51.352C14.5043 50.8574 15.0931 50.7272 14.9995 50.4408C15.0262 50.3888 15.053 50.3497 15.0664 50.3107C15.1467 50.4278 15.2136 50.558 15.2805 50.7272C15.1199 50.7923 14.9861 50.8964 14.9727 51.3389C15.1734 51.5081 15.4277 51.0656 15.3474 50.8443C15.6017 51.0526 15.9899 51.3259 16.0166 51.9246C16.6055 51.378 16.6323 51.7945 17.1275 50.9875C16.9401 50.9745 16.7126 51.5992 16.5921 51.1827L17.0606 50.6231C17.3951 50.6751 17.4888 51.3259 17.6896 51.4691L17.3684 51.6904L17.4085 51.5862C17.2345 51.8465 16.9669 51.5862 16.8464 52.0808C17.2613 51.5472 17.2613 52.185 17.6762 51.8335L17.6361 51.9377C18.2785 51.5602 18.2919 53.1611 18.9075 51.9377C18.8138 51.9377 18.7335 51.404 18.854 51.1697C18.8941 51.5081 19.2153 51.4561 19.135 51.8335L19.0012 51.9377C19.2689 52.0938 19.4295 52.198 19.5499 52.0808C19.7105 51.6383 19.6972 51.2608 19.9381 51.0526C20.3663 51.417 19.5499 52.0938 19.8176 52.5364L20.3663 52.1199L20.4065 52.5494C21.0623 53.07 21.7315 51.7164 22.4141 51.7685C22.3739 52.4973 21.8386 52.7446 21.6512 52.7707C21.8252 53.4215 22.2133 52.5884 22.481 53.044C22.7487 53.1611 22.9896 52.5364 22.9762 52.1329C23.3108 51.8856 23.1903 52.5624 23.2305 52.6926C23.3643 51.9116 23.7658 52.198 24.0335 52.0288V52.4713L24.4484 51.9246C24.3413 51.8856 24.4484 51.4821 24.4484 51.2088L24.5555 51.2478C24.1941 50.0374 23.6721 52.0938 23.3108 50.7012C23.4312 50.532 23.284 50.2977 23.4178 50.1285C23.5115 50.1805 23.5383 50.2456 23.5383 50.4148C23.6052 50.0504 23.7792 49.738 23.5651 49.764C23.6052 48.8399 23.9933 49.0742 24.261 48.7618C24.4752 49.3605 24.0335 49.6469 23.8997 50.0894C24.0067 50.0243 24.1004 49.6209 24.2476 49.8551L24.2075 50.558C24.5956 50.1805 24.3146 49.9463 24.4082 49.2694C24.5019 48.3713 24.7428 49.3085 24.8499 49.2434L24.7428 49.4126C25.0373 49.712 25.0908 48.9571 25.3585 49.0091L25.5057 49.5558C25.1444 48.8659 25.1176 50.545 24.9034 50.1936C25.4254 50.8313 24.8231 51.6383 24.6625 52.237C24.8901 52.1069 25.1042 52.185 25.238 52.5624C25.5459 51.6383 25.9875 52.8748 26.2552 51.7685C26.456 51.8856 26.1214 52.2631 26.3221 52.2761C26.6969 52.3411 27.085 52.1719 27.433 51.7294C27.6471 51.7294 27.6471 52.0418 27.7408 52.3281C28.8517 52.6015 28.9453 50.8964 30.1633 51.0135L30.0963 51.43C30.364 51.4431 30.6183 51.5081 30.5915 50.9875C31.2875 52.0548 31.3946 49.9593 32.2645 51.0135C32.9203 51.0005 32.5188 50.0374 32.8266 49.6729C32.9471 49.9202 33.0542 50.4408 33.3352 50.4539C34.5398 49.3996 35.7175 48.4755 36.7347 47.1349C36.8016 47.213 36.815 47.3431 36.815 47.3952C37.6983 46.6663 37.3236 45.1825 38.0597 44.779C38.0061 44.5577 38.0061 44.0892 37.5109 43.946C37.3637 44.0501 36.8284 43.7508 36.4938 43.5295C36.4403 43.2822 36.5205 43.2171 36.6544 43.2301C36.6812 43.2822 36.6945 43.3213 36.7213 43.3603C36.7213 43.3213 36.7748 43.2952 36.8418 43.2692C37.1228 43.3603 37.444 43.5425 37.4842 43.3082C38.3809 43.6597 37.9125 43.8419 38.6352 44.2584L38.421 43.4254C38.8493 43.2692 38.5281 42.7355 39.0501 42.6705C38.9029 42.7355 39.6791 43.0089 39.2508 43.0479C39.2241 42.9959 39.1572 42.9959 39.1304 42.9438C38.8359 43.3473 39.4114 43.3863 39.3847 43.8939C39.3847 43.4124 39.3981 42.8397 39.7193 42.6054C39.0902 42.4102 39.5854 42.2409 39.2375 41.9936H39.3044C39.1973 41.9546 39.1304 41.8765 39.0769 41.8114C39.1572 41.7594 39.2241 41.7203 39.291 41.6683L39.6925 41.7854C39.6657 41.6683 39.4917 41.6552 39.3713 41.6032C39.3713 41.6032 39.3981 41.5771 39.4114 41.5771C39.7059 41.3429 39.8665 41.1476 39.7594 41.0435C40.0003 41.2518 40.5223 40.8483 41.0041 40.2105C41.4859 39.5727 41.9142 38.7267 42.289 38.1931C41.6331 37.8156 41.5395 38.4404 41.3387 39.0781C41.1781 39.6769 40.9104 40.2886 40.442 40.1324C40.6026 39.7549 40.6695 39.3124 41.1647 39.0781C41.1246 38.9219 41.0978 38.7788 41.0576 38.6356C41.3387 38.0759 41.6331 37.4251 41.9142 36.7093C42.048 36.3578 42.1819 35.9934 42.3157 35.616C42.4362 35.2775 42.5968 34.809 42.6503 34.5877C42.7842 34.0801 42.8645 33.5725 42.8645 33.0909C43.6541 31.6982 43.3998 33.2731 44.0288 33.143C43.7344 34.6528 43.3195 34.5487 42.7708 36.6312C43.0251 36.1756 43.3195 35.5509 43.5336 35.0042C43.6942 34.6137 43.8415 34.1842 43.9619 33.7677C44.2028 32.9217 44.3233 32.1017 44.2698 31.555C44.6847 30.1103 46.2104 30.3966 46.3978 28.5224C45.8758 28.6265 45.7821 28.5614 45.4341 29.056C45.4074 28.5484 45.742 28.0408 45.8892 27.5332C45.6884 27.1427 45.3137 28.223 45.2601 27.4421C45.4208 27.1948 45.6483 26.6221 45.9293 26.8173V26.9475C45.9829 25.1253 47.3882 26.0884 46.9064 24.1751L46.893 24.1491ZM38.1935 19.3984C38.1935 19.3984 38.2471 19.3593 38.2872 19.3463C38.421 19.3073 38.5147 19.2942 38.595 19.2942C38.4612 19.3203 38.3274 19.3593 38.1935 19.3984ZM14.7987 39.7029C14.4106 39.9762 14.1563 40.2365 13.8752 40.3146C13.8886 40.1714 14.0492 40.0543 14.2366 39.9502C14.2232 40.0283 14.2366 40.0803 14.4909 39.9111C14.4641 39.8851 14.4373 39.8721 14.424 39.8461C14.6782 39.7029 14.9325 39.5337 15.0664 39.3905C14.9058 39.4556 14.7184 39.4816 14.531 39.4816L14.879 39.2213C14.879 39.2213 14.879 39.1562 14.879 39.1302C14.9325 39.1042 14.9727 39.0651 15.053 39.0391C14.9727 39.0651 14.9192 39.0781 14.879 39.0781C14.879 39.0521 14.8388 39.0261 14.8121 39C14.879 38.8829 15.0798 38.7007 14.5846 38.8699C14.8388 38.8048 14.8255 38.8699 14.7452 38.948C14.6381 38.8829 14.4775 38.8308 14.3035 38.7658C13.9288 38.6096 13.4737 38.3623 13.38 37.9067C13.8752 37.8156 14.2366 38.0239 14.4373 38.1931C14.3972 38.2581 14.3704 38.3493 14.3838 38.5185C14.4373 38.4143 14.5043 38.3493 14.5578 38.3102C14.5846 38.3362 14.6113 38.3623 14.6247 38.3883C14.6916 38.3493 14.7452 38.2972 14.7719 38.2581C15.1467 38.2842 15.6151 38.8959 16.1237 39C16.0166 39.3124 15.6553 38.8829 15.3876 39C15.401 39.1302 15.4411 39.2213 15.4813 39.3124C15.4545 39.2864 15.4277 39.2603 15.401 39.2473C15.2671 39.4686 15.4277 39.6899 15.6151 39.9111C15.5883 39.9111 15.5482 39.9502 15.4813 40.0022C15.4813 40.0022 15.4813 40.0022 15.4679 40.0022L15.5214 39.9111C15.2805 40.0934 15.334 39.794 15.3608 39.6508C15.4144 39.4686 15.4411 39.4165 14.9325 39.8851C14.9727 39.8851 14.7853 40.1975 14.6247 40.4057C14.5979 40.3667 14.6113 40.3276 14.5979 40.2886C14.5979 40.1845 14.5979 40.1194 14.7853 39.9372L14.9058 39.8721C14.9058 39.7159 14.9058 39.6638 14.7987 39.7029ZM17.7431 45.9634C17.7431 45.9634 17.7699 45.8984 17.7833 45.8593C17.81 45.8593 17.8234 45.8593 17.8502 45.8593C17.81 45.8984 17.7699 45.9374 17.7431 45.9765V45.9634ZM18.7335 21.4418C18.68 21.5329 18.6131 21.6371 18.5595 21.7412C18.5328 21.7802 18.5194 21.8193 18.4926 21.8583C18.4391 21.8583 18.3855 21.8583 18.3454 21.8063C18.3588 21.8844 18.3722 21.9625 18.3855 22.0406C18.3855 22.0406 18.3722 22.0666 18.3588 22.0796C18.3186 22.1577 18.3186 22.1967 18.3186 22.2618C18.3186 22.2618 18.3186 22.2879 18.3186 22.3009C18.2919 22.3139 18.2517 22.3269 18.2116 22.3399C18.2249 22.2098 18.2785 22.0926 18.1446 22.0015L18.0777 22.3009L17.877 22.1056C17.7431 22.1577 17.7164 22.2879 17.7297 22.4701C16.9133 20.8561 18.4926 21.5329 18.2651 20.5568C18.3588 20.5307 18.4257 20.5177 18.4926 20.5177C18.5729 20.8431 18.6532 21.1685 18.7335 21.4679V21.4418ZM11.2386 36.3839C11.078 36.3318 10.9709 36.3448 11.0111 36.5661C10.0608 36.6572 10.1947 35.8242 9.81994 35.2645C10.3821 34.7439 10.7836 35.668 11.252 35.8502C11.1583 35.642 10.73 35.5118 10.9442 35.1604H11.1717C11.3725 35.3296 11.5866 35.4858 11.774 35.616C11.4528 35.668 11.3323 36.0715 10.9843 36.1105C11.0646 36.2147 11.1449 36.3058 11.2252 36.3709L11.2386 36.3839ZM9.88686 32.8306L10.4356 32.5182C10.0207 32.9998 10.5427 33.195 10.904 33.3772C11.2654 34.1842 10.9442 34.6658 10.6363 34.7048C10.7033 34.7569 10.7568 34.809 10.8237 34.8741C10.6765 34.9131 10.5159 34.9391 10.3018 34.9001C9.36489 34.7569 10.275 34.1582 10.1947 33.9369L10.3954 34.1712C10.6497 33.5074 9.87347 33.4163 9.88686 32.8436V32.8306ZM12.0283 36.8394C11.8275 36.6442 11.6267 36.9696 11.426 36.7743C11.426 36.6702 11.4661 36.6182 11.5197 36.5791C11.7338 36.6832 11.948 36.7223 12.1353 36.7613C12.0952 36.7874 12.0684 36.8134 12.0283 36.8394ZM28.9855 41.486C28.9855 41.486 29.0256 41.434 29.039 41.4079C29.039 41.421 29.0658 41.447 29.0658 41.46H28.9855V41.486ZM14.6916 37.9458C14.6247 37.8807 14.5578 37.8026 14.531 37.7115C14.5578 37.7245 14.5846 37.7375 14.6247 37.7505C14.6916 37.8547 14.705 37.9067 14.6916 37.9458ZM15.7489 40.0543C15.8159 40.1324 15.8694 40.2105 15.9229 40.2886C15.8025 40.3537 15.6553 40.4318 15.5482 40.4968C15.508 40.4448 15.4813 40.3797 15.4411 40.3016C15.5482 40.2105 15.6419 40.1324 15.7489 40.0413V40.0543ZM29.6814 41.1086C29.6814 41.1086 29.6547 41.1086 29.6547 41.1216C29.6279 41.1086 29.6011 41.0695 29.5744 41.0565C29.6145 41.0695 29.6547 41.0956 29.6948 41.1086H29.6814ZM15.4277 40.3146C15.4277 40.3146 15.4947 40.4448 15.5348 40.4968C15.4679 40.5359 15.4144 40.5489 15.3876 40.5489C15.3876 40.4838 15.3608 40.4318 15.3608 40.3797C15.3876 40.3537 15.4144 40.3276 15.4411 40.3146H15.4277ZM16.0434 46.2758C16.1103 46.2368 16.1906 46.1847 16.2575 46.1326C16.1371 46.3149 16.0702 46.3409 16.0434 46.2758ZM18.5997 44.8181C18.5997 44.8181 18.5863 44.9092 18.5997 44.9482C18.5729 44.9873 18.5462 45.0003 18.5328 45.0393C18.5328 44.9222 18.5729 44.8441 18.6131 44.8181H18.5997ZM38.4612 18.7346C38.3675 19.2161 37.9392 19.1511 37.5243 19.112C37.618 18.5393 38.1534 18.5914 38.3541 18.7866V18.6695C38.3541 18.6695 38.421 18.7085 38.4478 18.7215L38.4612 18.7346ZM37.4574 19.112C37.2567 19.099 37.0693 19.099 36.9221 19.1901C37.1094 19.2422 37.5511 19.073 37.5645 19.4504L36.9622 19.8539C37.0425 19.8799 37.0827 19.8669 37.1362 19.8799C37.0961 19.945 36.9221 20.0101 36.7347 20.0752C36.641 19.9971 36.4804 19.9711 36.3466 19.958C36.5072 19.6327 36.6678 19.3333 36.9354 19.7498C36.9756 19.3854 36.8551 18.9558 36.6276 18.7866C36.6945 18.7085 36.7079 18.6435 36.5473 18.5654C36.5741 18.5133 36.6142 18.4743 36.6544 18.4352C36.9221 18.5393 37.27 18.8647 37.4574 19.099V19.112ZM11.0111 47.7336C10.9977 47.6555 11.0646 47.5774 11.0512 47.4863L10.623 47.4342C10.7434 47.3431 10.8773 47.265 11.0111 47.1869C11.2922 47.4342 11.6937 47.5383 12.0149 47.4472C11.9747 47.4863 11.9346 47.5253 11.9078 47.5774C11.9346 47.5514 11.9613 47.5514 11.9881 47.5383C11.8141 47.7856 11.3457 48.111 11.0245 47.7466L11.0111 47.7336ZM11.9346 48.6186L11.6535 48.3323C11.6535 48.3323 11.7338 48.3323 11.8007 48.3453C11.8409 48.4364 11.9078 48.4885 11.9613 48.5666C11.948 48.5796 11.948 48.6056 11.9212 48.6186H11.9346Z" fill="url(#paint2_linear_210_2)"/>
<path d="M36.815 43.4644C36.815 43.4644 36.7213 43.3603 36.6946 43.3082C36.6946 43.3603 36.6946 43.3993 36.815 43.4644Z" fill="url(#paint3_linear_210_2)"/>
<path d="M32.4193 3.75889C32.4193 3.75889 32.3924 3.75889 32.3789 3.74548C32.3386 3.75889 32.2982 3.7723 32.2712 3.7857L32.4193 3.75889Z" fill="white"/>
<path d="M24.9068 2.25732C24.9068 2.25732 24.8799 2.25732 24.8665 2.25732C24.8665 2.27073 24.8665 2.28414 24.9068 2.25732Z" fill="white"/>
<path d="M42.988 17.0586C42.988 17.0586 43.0284 17.1524 43.0554 17.1793C43.0284 17.139 43.015 17.0988 42.988 17.0586Z" fill="white"/>
<path d="M24.5165 48.7258C24.5165 48.7258 24.5299 48.7258 24.5569 48.7258C24.5299 48.7258 24.503 48.7124 24.4761 48.699L24.5299 48.7258H24.5165Z" fill="white"/>
<path d="M24.6781 48.699C24.8531 48.7392 24.6242 48.7392 24.5569 48.7258C24.7454 48.7794 24.9339 48.7928 25.1358 48.7928C25.1358 48.7526 24.7723 48.7258 24.6915 48.6855L24.6781 48.699Z" fill="white"/>
<path d="M2.84082 38.6705L2.86775 38.7376C2.86775 38.7376 2.84082 38.6973 2.84082 38.6705Z" fill="white"/>
<path d="M44.5227 15.5034C44.5227 15.5034 44.5631 15.5705 44.5766 15.6107C44.5496 15.557 44.5362 15.5168 44.5227 15.5034Z" fill="white"/>
<path d="M4.48315 42.1429H4.56393C4.56393 42.1429 4.49662 42.1295 4.48315 42.1429Z" fill="white"/>
<path d="M17.7848 2.35113C17.7848 2.35113 17.7579 2.32432 17.7444 2.31091H17.731L17.7983 2.35113H17.7848Z" fill="white"/>
<path d="M1.02323 30.4923C1.02323 30.4923 1.03669 30.4923 1.05016 30.4789L1.00977 30.3314C1.00977 30.4119 1.00977 30.4655 1.02323 30.5057V30.4923Z" fill="white"/>
<path d="M8.93958 5.81014C8.93958 5.81014 8.92611 5.83695 8.93958 5.85036C9.07421 5.75651 9.39733 5.46156 9.84161 5.1532L9.81468 5.07275C9.50503 5.30067 9.20884 5.542 8.93958 5.82354V5.81014Z" fill="white"/>
<path d="M2.00602 14.444C2.15411 14.0955 2.31567 13.7603 2.46376 13.4251C1.56173 16.8573 1.19822 18.4527 0.875107 21.4156V21.2414C0.794328 21.6838 1.00974 21.9251 0.121169 26.6712H0.107706C0.107706 26.832 0.134632 26.832 0.067316 27.1672L0.228874 26.3494C0.228874 26.8455 0.269264 27.2879 0.242337 27.9582C0.215411 28.0923 0.175021 28.1459 0.148095 28.1593L0.107706 29.795L0 30.291C0.0538528 30.8005 0.269264 30.5592 0.161558 31.8999C0.29619 31.3904 0.269264 32.5568 0.350043 32.3959C0.33658 32.463 0.309653 32.6238 0.29619 32.7445C0.33658 33.5355 0.511601 35.0371 0.63277 35.3857C0.63277 35.3857 0.63277 34.6081 0.67316 33.7232C0.713549 32.8384 0.807791 31.8597 0.888571 31.444C0.875107 32.5434 0.915497 31.739 0.955887 31.5111L0.915497 31.444C0.955887 30.7871 1.05013 30.7871 1.07706 30.4519C1.07706 30.4519 1.06359 30.4519 1.05013 30.4653V30.5055C1.05013 30.5055 1.03667 30.5055 1.0232 30.4787C0.996276 30.4787 0.982813 30.4519 0.996276 30.2776V30.3179C0.996276 30.0363 1.0232 29.5671 1.03667 29.366H1.11744C0.955887 28.8699 1.5348 26.1081 1.61558 25.4645C1.77714 24.821 1.75021 24.0032 1.89831 23.1988C2.10026 21.9117 2.10026 22.5686 2.26182 21.9251C2.42337 21.1207 2.14065 22.0726 2.18104 21.7508L2.43684 20.7989C2.35606 21.362 2.4503 21.0671 2.50415 20.9732C2.63879 20.1286 3.00229 18.8549 2.89459 18.5734C3.17731 17.474 3.24463 17.4874 3.35233 17.0048C3.28502 17.1522 3.19078 17.474 3.16385 17.4606C3.32541 17.0316 3.19078 17.2461 3.13692 17.4204C3.17731 16.7098 4.2409 14.015 4.14666 13.8407H4.17359C4.09281 13.653 3.89086 13.8675 3.97164 13.3849L4.1332 13.1033L4.22744 12.6207C4.389 12.3257 4.36207 12.4866 4.37554 12.5C4.57749 11.7358 5.08909 10.7571 5.53337 9.9259C5.26411 10.1672 5.02177 10.422 4.76597 10.6767C5.16987 9.96612 6.04497 8.79971 6.04497 8.61202C6.16614 8.50476 6.27385 8.3841 6.40848 8.27684C7.52592 7.11044 7.01432 7.33836 7.45861 6.86911L8.10484 6.37306L7.56631 6.94956C8.14523 6.41328 8.40103 6.21217 8.9261 5.877C8.9261 5.877 8.87224 5.90381 8.85878 5.90381L8.93956 5.82337C8.96649 5.71612 9.23575 5.39435 9.6935 5.07258C10.3263 4.61675 10.7975 4.17432 11.9957 3.73189L12.2246 3.46375C12.5208 3.32968 12.8304 3.26265 13.1401 3.1688L13.1805 3.26265C12.2919 3.5576 10.7706 4.41564 9.84159 5.15303V5.20665C10.3936 4.76423 11.0802 4.34861 11.4706 4.10728C11.6861 4.02684 12.2515 3.86596 11.9149 4.10728L12.2515 3.82574C13.3016 3.32968 13.8671 3.14198 14.446 2.96769C15.0249 2.7934 15.6308 2.64593 16.8559 2.48504H16.6405C17.1117 2.35098 17.5964 2.23031 17.7445 2.31075C19.212 2.09624 20.7737 2.12306 21.7431 2.25713L21.9585 2.13646C22.2816 2.13646 22.7393 2.33757 22.9009 2.16328L23.5875 2.13646C24.0183 2.16328 24.2876 2.10965 24.7857 2.21691C24.8127 2.21691 24.8396 2.23031 24.88 2.24372C25.8628 2.37779 24.88 2.10965 25.9974 2.29735C26.3475 2.43142 26.4148 2.17669 26.9668 2.27053L27.4918 2.52527C28.4612 2.76659 28.6766 2.60571 30.0768 2.86044C30.7365 3.06154 31.0057 3.28946 30.548 3.32968C31.1807 3.31628 30.8442 3.27605 31.6385 3.41012C31.7327 3.51738 31.652 3.50397 31.4635 3.51738C32.1232 3.78552 31.8943 3.58441 32.4059 3.7453C32.5944 3.67826 32.8367 3.54419 32.9983 3.59782L32.8233 3.49057C33.3752 3.62463 33.9676 3.85255 34.5062 4.24135L34.4523 4.28157C34.6543 4.38883 34.8562 4.49609 35.0447 4.63016V4.724C35.3005 4.89829 35.5698 5.0994 35.8256 5.31391L35.7313 5.20665C35.9198 5.34072 36.4987 5.85019 36.768 6.21217H36.7276C37.4411 7.24451 38.1951 7.9953 39.0163 9.28236L38.8278 9.1617C39.0163 9.64435 39.0298 9.20192 39.2991 9.76501L39.2183 9.84546C39.6222 10.2477 39.5414 10.4756 39.676 10.8376L39.7164 10.6097L40.0395 11.2532C40.3761 11.9638 40.1068 11.7761 39.9857 11.709L40.3492 12.1246L40.2819 12.2855C40.605 12.5537 40.4569 12.6475 40.8608 13.2106C40.8473 13.2776 40.7396 13.1436 40.8339 13.3581L41.5339 14.2697L41.1435 13.7067H41.3589C41.8167 14.2429 41.7897 14.5513 42.0725 14.9669L41.8571 14.6854C42.2744 15.3959 42.2206 15.4764 42.3821 15.9054C42.3552 15.7579 42.3013 15.5434 42.4764 15.825C42.5975 16.0395 42.4764 15.9724 42.5571 16.1869C42.6918 16.1869 43.0149 16.683 43.163 17.1925C43.1495 17.1925 43.1226 17.1925 43.0957 17.1656C43.163 17.2863 43.2303 17.3265 43.2976 17.5544L43.1091 17.4874L43.4053 17.8494C43.4861 18.1444 43.7419 18.5197 43.6342 18.5063L43.54 18.3589C43.7958 19.0694 44.0381 19.78 44.2266 20.504L44.1189 20.571C44.3478 20.7453 44.3478 21.7642 44.5362 21.6436C44.5362 22.0726 44.8997 23.2524 44.6305 23.0513C44.7786 24.4724 45.0209 25.2634 44.7382 27.0332C44.4958 27.6365 44.24 29.3526 43.9035 30.4787C43.3515 32.6775 42.8937 34.112 41.9917 36.2839C41.1704 37.4503 40.4973 39.4882 39.5414 40.6948L39.4068 41.097C38.7201 41.8612 38.0066 43.2421 36.9968 44.2611C36.8218 44.556 36.7141 44.7169 36.6603 44.7839C36.7007 44.7303 36.7814 44.6767 36.8488 44.6901C36.566 44.985 36.0679 45.642 36.0006 45.5079L36.0544 45.4141C36.0006 45.28 35.287 46.3794 34.8966 46.6341L35.1659 46.5537L34.6273 47.0765L34.7485 46.9156C33.7388 48.2027 32.8098 48.672 31.7731 48.8328C30.723 49.0071 29.6056 48.9133 27.99 48.9803C28.4208 48.8462 27.3572 49.0339 27.3303 48.8596C26.5359 48.6049 25.8359 48.806 25.1762 48.8194C25.1762 48.8194 25.1762 48.8328 25.1223 48.8462L23.9779 48.7256C24.678 48.5781 23.1298 48.8328 23.776 48.6988C20.8141 48.2429 16.8425 47.948 13.5305 47.1033L13.6651 47.1972C12.817 46.9961 11.7668 46.7548 11.1879 46.4598C10.5955 46.1783 9.81467 46.0844 9.57233 45.9906C8.87224 45.7895 8.40103 45.3068 8.67029 45.4543C7.99714 45.1325 7.25666 44.9314 6.50272 44.2208C6.42194 44.0331 5.84302 43.6309 5.35835 43.1751C4.86021 42.7327 4.45632 42.2366 4.52363 42.1696H4.49671C3.83701 41.0434 3.02922 40.0245 2.84073 38.6167C2.84073 38.6167 2.86766 38.6436 2.88112 38.6838C2.46376 37.8257 2.1945 36.847 2.15411 35.8147C1.89831 36.0694 1.61558 36.3376 1.37325 36.6459C1.14437 37.5978 1.07706 38.6033 1.18476 39.6223C2.00602 42.2232 3.7293 44.3549 5.86995 45.8699C7.51246 47.1436 9.38384 48.0552 11.2956 48.7122C13.6651 49.4227 16.0347 49.7847 18.3773 50.1065C20.7333 50.4283 23.0894 50.6696 25.4589 50.8439L26.4821 50.7634C27.8823 50.9645 29.4171 51.1254 31.2211 50.9645C32.1097 50.8707 33.0656 50.6428 33.9272 50.2003C34.7889 49.7579 35.4755 49.1814 36.0813 48.6451L36.0275 48.4977C36.6468 47.8541 36.6468 47.9614 36.8084 47.8139C39.5145 44.851 41.7494 41.4188 43.4592 37.8526C45.1152 34.2729 46.3942 30.6262 46.8788 26.9393C47.0808 26.2421 47.0404 24.0434 47.0269 23.4669C46.65 21.0402 45.8826 18.627 44.9536 16.4685L45.0074 16.5489C44.8594 16.2138 44.6978 15.8786 44.5362 15.5568C44.5362 15.5032 44.5362 15.5032 44.5632 15.53C43.9439 14.444 43.1361 12.6877 42.4494 11.3604L42.5033 11.4275C41.4532 9.5371 40.43 7.6199 39.0298 5.85019C37.67 4.08047 35.7313 2.53867 33.5907 1.78788C31.4635 0.996875 29.3228 0.715329 27.2091 0.433783C25.0415 0.138831 22.874 -0.0220527 20.6391 0.00476116C16.5193 -0.0890874 11.4437 1.19798 7.59324 4.44246C7.17588 4.64356 5.14294 6.62779 3.94472 9.05445C2.69264 11.4543 2.08679 14.015 1.99255 14.4306L2.00602 14.444Z" fill="white"/>
<path d="M0.148078 28.1461V28.1058C0.148078 28.1058 0.107688 28.1595 0.148078 28.1461Z" fill="white"/>
<path d="M5.5738 9.87251L5.54688 9.91273L5.7219 9.76526L5.5738 9.87251Z" fill="white"/>
<path d="M2.4502 21.4561C2.54444 20.9198 2.54444 20.893 2.50405 20.96C2.47712 21.1611 2.4502 21.322 2.4502 21.4561Z" fill="white"/>
<path d="M0.215332 32.7313C0.215332 33.0262 0.255722 32.919 0.282648 32.7313C0.269185 32.4229 0.255722 32.2218 0.255722 32.2218C0.255722 32.3693 0.228795 32.5838 0.215332 32.7179V32.7313Z" fill="white"/>
<path d="M0.955811 31.5113L1.00966 31.6051C0.9962 31.4308 0.982737 31.4442 0.955811 31.5113Z" fill="white"/>
<path fill-rule="evenodd" clip-rule="evenodd" d="M28.7449 17.4425C33.8202 18.0959 33.2957 24.4651 32.9291 28.9173L32.9291 28.9173C32.8659 29.6847 32.8074 30.395 32.7831 31.0094C32.6911 33.3073 32.2807 35.0844 29.9092 35.8809C26.7902 36.9288 22.1944 36.5794 19.0141 36.1138C16.8877 35.8074 15.2209 35.1701 14.6327 32.9641C13.7013 29.4774 13.9648 24.759 14.3692 21.2049C14.3815 21.1375 14.3998 21.0885 14.4304 21.0455C14.4855 15.7268 25.6503 17.0443 28.7449 17.4425ZM31.2142 20.6842C31.2265 19.2196 29.4004 18.754 28.4199 19.6548C28.1564 19.8998 28.0338 20.2737 28.0155 20.6781C28.1135 21.1989 28.4261 21.7137 28.8305 22.0078C29.7804 22.6757 31.2019 21.7872 31.2142 20.6842ZM19.1303 22.8595C21.6733 20.0469 26.404 20.3594 28.4996 23.5336C30.2031 26.1133 29.5169 29.5388 27.1762 31.4567C24.5534 33.6014 20.9013 32.7435 18.7811 30.3782C18.7197 30.3047 18.6523 30.2618 18.5788 30.2373C17.2736 27.97 17.3962 24.7774 19.1303 22.8595Z" fill="white"/>
<path d="M20.1477 27.8842C20.8891 29.9677 23.5241 31.6221 25.6259 30.3353C29.8724 27.7372 24.8844 20.678 21.3854 23.8093C20.1477 24.5384 19.6636 26.5176 20.1477 27.8842Z" fill="white"/>
<defs>
<linearGradient id="paint0_linear_210_2" x1="29.6545" y1="1.73608" x2="29.6545" y2="1.81614" gradientUnits="userSpaceOnUse">
<stop stop-color="#CD1B97"/>
<stop offset="1" stop-color="#EF582F"/>
</linearGradient>
<linearGradient id="paint1_linear_210_2" x1="6.47156" y1="8.11377" x2="6.47156" y2="8.37408" gradientUnits="userSpaceOnUse">
<stop stop-color="#CD1B97"/>
<stop offset="1" stop-color="#EF582F"/>
</linearGradient>
<linearGradient id="paint2_linear_210_2" x1="35.1286" y1="7.1636" x2="9.37309" y2="46.2272" gradientUnits="userSpaceOnUse">
<stop stop-color="#CD1B97"/>
<stop offset="1" stop-color="#EF582F"/>
</linearGradient>
<linearGradient id="paint3_linear_210_2" x1="36.7548" y1="43.3082" x2="36.7548" y2="43.4644" gradientUnits="userSpaceOnUse">
<stop stop-color="#CD1B97"/>
<stop offset="1" stop-color="#EF582F"/>
</linearGradient>
</defs>
</svg>
