<svg width="159" height="107" viewBox="0 0 159 107" fill="none" xmlns="http://www.w3.org/2000/svg">
<path fill-rule="evenodd" clip-rule="evenodd" d="M50.6796 70.4844L50.6663 94.1468C50.6663 102.23 46.2436 106.861 38.5352 106.854C33.3523 106.854 30.1327 104.738 28.2552 100.749L27.7858 99.6042C27.7065 99.3727 27.138 99.2007 27.0917 99.0287L27.5611 98.8832L27.5214 98.6318L27.2966 93.6969L27.0256 81.5184V80.2483L27.7726 78.8525L27.2239 68.8967L28.1164 64.1934L27.6668 64.0611C28.4007 62.4337 29.432 61.1041 30.7409 60.0986C31.6995 59.3577 32.5391 60.7336 33.782 60.3433C35.1306 59.92 36.9089 57.7701 38.5683 57.7701C46.2701 57.7701 50.6862 62.4139 50.6796 70.491V70.4844ZM41.2325 79.7522L40.8755 68.566C40.8755 67.5009 39.8442 65.2452 38.5551 65.2452C37.2659 65.2452 36.7304 67.5671 36.7304 68.6321L36.0826 75.6706C36.0826 75.6706 37.0808 85.5338 36.347 89.2582L36.4925 95.6087C36.4925 96.6671 37.2329 99.3793 38.5286 99.3793C39.8178 99.3793 40.5317 94.6495 40.5317 94.6495L40.9152 92.2085L40.8491 87.3067L41.4176 87.0421L40.9681 82.1866V82.0543L41.2325 79.7522ZM157.526 106.411L157.618 105.518L153.321 104.949L152.839 105.624L151.959 105.789L151.153 105.816L148.984 104.949L147.96 97.0508L142.228 97.8777C142.228 97.8777 141.745 97.4477 141.719 97.4279C141.64 97.4808 141.554 97.5403 141.468 97.6065L141.309 100.907L140.542 103.785L140.146 106.405H131.003L133.072 93.5051L133.839 91.4941L134.348 87.3001L134.282 80.3211L136.04 77.8867L135.696 75.6574L136.205 73.8316L136.926 69.4722L137.323 59.1063L140.113 58.3456H144.74L147.563 59.3974C147.563 59.3974 148.515 59.0799 148.991 59.3974C149.474 59.7149 150.584 58.3456 150.584 58.3456H151.345L153.467 71.642L153.44 74.9893L153.916 78.0124L153.758 80.3277L154.802 81.955L155.113 84.8789L156.052 90.4621L156.501 90.7201L159 106.405H157.539L157.526 106.411ZM147.649 86.9561L145.864 75.1547L144.965 76.3189L144.132 76.0609L144.396 77.0267L143.035 88.0873L147.656 86.9495L147.649 86.9561ZM123.017 96.1974L123.261 86.8833L124.015 58.3456H120.894L119.083 59.4437L116.373 59.2254L115.011 58.3323L114.409 58.7557L114.25 80.6452L114.766 81.6573L113.583 83.0002L113.596 106.385H117.186V105.69L118.753 105.373L119.698 104.738L121.278 106.398H124.788L126.6 105.644L128.365 106.504V97.3617H123.929L123.03 96.2107L123.017 96.1974ZM104.876 96.4224L105.035 86.8701L106.013 80.9892L105.16 79.3685L105.636 75.7897L105.855 58.6631L102.668 58.3257L100.572 59.2055L96.7777 58.3257L96.1695 58.7491L96.0109 80.6386L95.3498 82.8944L95.3299 106.18H96.5067L97.3793 105.419L98.8998 106.338L100.956 106.378L103.038 106.186H106.555L109.9 106.497V103.368L109.034 101.086L109.9 99.4587V97.3485H105.564L104.87 96.4356L104.876 96.4224ZM78.2737 104.605L77.6324 106.378H68.9655L68.6812 105.498C68.2184 104.109 67.9672 103.176 67.9738 99.505V92.2614C67.9804 88.4445 66.8433 87.6573 64.5956 87.6573H63.4056L62.4735 105.578L53.7603 106.319V96.1247L54.428 94.3849L53.7735 92.7047V91.3948L54.0578 89.8668L54.1239 88.5106L53.8859 87.2207L53.9652 86.1623L53.8065 85.0575L53.5884 71.3973C53.509 71.3311 54.342 69.2473 54.342 69.3598C54.342 69.3598 54.2495 67.5671 54.2891 65.0996C54.2891 65.0996 54.0115 60.383 54.1569 59.1262C54.223 58.5242 58.9036 58.5308 58.9036 58.5308L60.6158 59.4371L65.8517 58.3257C73.7386 58.3522 77.5729 62.1956 77.5729 70.0742V73.6464C77.5729 77.8338 76.3763 80.9165 74.036 82.8349C75.3318 83.8404 76.2507 85.2031 76.8391 86.9429L77.1564 88.0344C77.4671 89.3442 77.6192 90.8392 77.6192 92.5591V99.5844C77.6192 101.648 77.6588 103.124 78.2869 104.619L78.2737 104.605ZM67.9209 70.7688C67.9209 67.6134 66.8566 67.362 65.5674 67.362H63.4123L63.4056 77.8404L64.9724 78.7864C66.8367 78.7798 67.9143 78.1844 67.9143 75.2539V70.7688H67.9209ZM80.8453 71.04L81.4139 72.6674L81.2023 81.6573L81.4006 85.5008L81.1627 86.4798L80.8387 87.4324V99.9416L81.1759 100.206L81.0437 106.524L84.5607 106.378H91.7931V97.752L91.5022 97.2426L91.1783 95.9461L91.37 94.5304L91.5947 91.6528L91.3964 89.7609L91.6278 88.9274L91.8063 88.5305L91.8195 71.0996L91.3766 71.0268L91.8261 69.7501V58.3257L81.4139 58.4646L80.8586 71.0467L80.8453 71.04ZM23.7201 99.9019L24.2159 98.7575L24.1101 97.0574L23.9515 94.4775C23.9515 94.4775 23.9647 94.0938 23.9647 93.9814V84.6672L23.9184 84.6143C23.6275 83.6353 22.2789 81.0421 22.2789 81.0421H15.8134L12.6467 80.7312L12.3162 88.7488L16.6662 88.7289L16.5935 90.3166C16.8778 91.5801 15.8398 96.0255 15.43 96.7928C15.311 96.9516 15.1986 97.0045 15.0002 97.0045C14.9143 97.0045 14.835 96.9913 14.7623 96.9714L14.2135 96.859L13.764 97.1897C13.4004 97.4543 12.8781 97.5866 12.217 97.5866C11.5559 97.5866 9.55944 96.6671 9.78421 94.4312V87.095L9.5991 86.6055L9.44705 82.7224L9.42722 82.6232C9.40738 82.5173 9.39416 82.3784 9.39416 82.2792C9.4801 82.1866 9.55283 82.0741 9.62555 81.955L9.79082 81.664V69.8228C9.80404 68.3609 10.1214 67.3951 10.756 66.9651L11.1725 66.6807L11.2254 66.7071L11.6221 66.6476C11.8204 66.6211 12.0253 66.6013 12.2369 66.6013C12.4484 66.6013 12.6732 66.6211 12.8715 66.6542L13.1426 66.7005L13.3475 66.7799C13.7111 66.9122 14.6763 67.276 14.6697 69.4061V75.5648L18.114 75.9948L19.1585 75.4259L20.2956 75.9948L23.4226 75.4391L23.7135 70.0279C23.7135 63.7568 21.4525 60.899 18.98 59.3378L14.9672 57.8164C14.0417 57.6444 13.0632 57.5584 12.0385 57.5518C8.83223 57.5518 6.20768 58.3853 4.23762 59.9531L2.59149 62.7843L2.1155 63.7435L1.93701 64.6167L0.224772 68.0103C0.145441 68.738 0.0859424 69.4855 0.0859424 70.2793L0 73.0114C0.0661095 73.4083 0.462767 87.5647 0.462767 87.5647L0.218161 90.8193L0.0727205 93.9814C0.0727205 96.0519 0.588375 96.8722 0.852813 97.8446C1.20319 99.1213 1.48085 100.332 3.13359 101.536L4.55495 104.585L4.56817 104.619L5.73831 104.248L5.81103 105.505L5.8573 105.399C7.58276 106.279 9.64538 106.722 12.0121 106.722C14.7755 106.722 15.8861 103.825 17.757 102.641L19.7337 105.598L22.1269 107L24.9696 106.259L24.4936 102.991L23.7333 99.9284L23.7201 99.9019Z" fill="black"/>
<path fill-rule="evenodd" clip-rule="evenodd" d="M126.501 22.7429C127.307 29.5102 127.545 34.5046 125.205 41.7813C124.755 43.1903 126.56 42.0459 126.144 43.7592C125.449 46.564 122.554 51.0689 119.731 51.7701C116.055 52.6963 115.374 49.4284 113.173 50.3743C109.517 51.9421 103.706 51.0689 100.229 47.3843C95.7596 49.2498 88.1769 48.0855 84.5541 45.4262C82.5047 46.6368 78.5117 47.8209 74.4393 47.7614C71.7487 47.7217 69.2629 47.3843 67.8879 45.6908C64.318 47.6555 57.2773 48.8462 52.762 47.1065C50.4812 48.6478 48.3723 50.4868 44.8884 50.8043C40.1549 51.2542 39.6128 48.8661 38.5022 49.7459C36.0958 51.618 32.7308 52.1869 29.4518 48.145C28.2883 46.7096 26.9925 43.5012 26.8801 42.3568C26.7744 41.305 27.7396 41.8408 27.8189 41.1396C27.9379 40.0812 27.4355 38.8772 27.0983 37.4285C26.1926 33.5256 25.4456 26.2886 27.3032 21.6381C27.3627 21.6381 27.4222 21.6381 27.4817 21.6381C27.9577 26.1364 31.0913 29.6756 32.4862 33.5454C32.5457 33.5454 32.6052 33.5454 32.6647 33.5454C32.3276 28.4848 30.6947 23.0935 30.7409 17.5632C30.8203 7.29651 32.3077 4.98782 33.2795 0C33.339 0 33.3985 0 33.458 0C35.0447 12.4431 43.0571 21.5257 51.9489 27.5455C52.0084 27.5455 52.0679 27.5455 52.1274 27.5455C52.9207 23.8675 55.1618 20.8708 56.6955 17.7352C59.287 19.8057 62.4669 21.1486 67.2334 27.9093C70.8892 27.2544 73.6658 19.4618 75.907 16.8355C75.9665 16.9414 76.026 17.0538 76.0788 17.1663C78.8224 20.4739 81.1693 25.1971 86.0746 27.9821C86.8547 27.056 87.6414 26.1364 88.4215 25.2169C91.3039 22.7892 94.173 20.3548 97.0488 17.927C98.5693 19.7859 100.156 24.4959 101.544 27.8564C111.348 21.6911 117.47 13.4354 120.736 0.965811C123.149 5.56995 123.651 18.5092 122.382 25.0053C121.893 27.9887 121.404 30.9655 120.914 33.9489C120.888 33.9754 120.868 34.0019 120.848 34.0283C120.848 34.1408 120.848 34.2466 120.848 34.3591C120.875 34.2202 120.894 34.0879 120.921 33.9489C123.069 31.3889 124.987 25.0913 126.507 22.7561L126.501 22.7429Z" fill="black"/>
</svg>
