<svg width="131" height="110" viewBox="0 0 131 110" fill="none" xmlns="http://www.w3.org/2000/svg">
<g clip-path="url(#clip0_21_2249)">
<path d="M28.9724 102.851L28.9833 102.916C28.9833 102.916 28.9833 102.889 28.9779 102.884C28.9779 102.884 28.9724 102.867 28.9724 102.851ZM34.207 100.182C34.1307 100.193 34.0545 100.193 33.9837 100.187C33.9891 100.193 34.0055 100.193 34.0055 100.209C33.8856 100.225 33.7113 100.231 33.4825 100.22C33.2538 100.214 33.0577 100.193 32.8834 100.155C32.8834 100.285 32.8834 100.367 32.8997 100.399C32.9106 100.432 32.9052 100.508 32.8834 100.606C32.927 100.617 32.9596 100.606 32.9869 100.584C33.0141 100.562 33.0468 100.552 33.0904 100.552C33.0359 100.6 33.0196 100.671 33.0359 100.753C33.0522 100.818 33.0631 100.878 33.0795 100.927C33.0468 100.916 33.0141 100.905 32.9542 100.894C32.927 100.894 32.9052 100.921 32.8943 100.976C32.8888 100.976 32.8834 100.976 32.8834 100.965C32.8834 100.986 32.8834 100.997 32.8834 101.019C32.8453 101.209 32.8561 101.552 32.8943 101.612C32.9378 101.677 32.9814 101.737 33.0359 101.78C33.0686 101.829 33.1067 101.878 33.1394 101.927C33.1394 101.927 33.1394 101.938 33.1448 101.943C33.1503 101.954 33.1612 101.965 33.1666 101.976C33.1884 102.014 33.2156 102.052 33.2374 102.085C33.2374 102.095 33.2374 102.106 33.2429 102.112C33.3191 102.286 33.4608 102.471 33.6187 102.623C33.6351 102.645 33.6514 102.666 33.6677 102.693C33.6677 102.688 33.6677 102.677 33.6677 102.672C33.6786 102.704 33.695 102.737 33.7059 102.775C33.7222 102.819 33.7386 102.824 33.7494 102.813C33.8529 102.96 33.9564 103.101 34.0599 103.248C34.1689 103.4 34.2833 103.552 34.4085 103.71C34.4249 103.406 34.4249 103.096 34.4085 102.775C34.3922 102.509 34.4085 102.275 34.4358 102.052C34.4521 101.932 34.4793 101.742 34.4358 101.628C34.4358 101.584 34.4249 101.536 34.4249 101.497C34.4249 101.4 34.4249 101.307 34.4303 101.209C34.4303 101.117 34.4412 101.014 34.4412 100.899C34.4412 100.791 34.4467 100.562 34.4467 100.416C34.4902 100.378 34.5393 100.285 34.5883 100.285C34.5883 100.285 34.5883 100.34 34.5937 100.318V100.361C34.463 100.296 34.3432 100.247 34.2342 100.182C34.2179 100.171 34.2016 100.182 34.1798 100.171L34.207 100.182ZM27.9756 100.214C27.9756 100.214 27.9648 100.187 27.9648 100.193C27.9266 100.209 27.8885 100.214 27.8449 100.231C27.834 100.204 27.8177 100.187 27.8122 100.16C27.7142 100.204 27.6488 100.225 27.6161 100.225C27.5835 100.225 27.529 100.187 27.4582 100.111C27.3601 100.176 27.2839 100.22 27.224 100.22C27.1586 100.22 27.1041 100.22 27.0606 100.22C27.0115 100.22 26.9625 100.22 26.9135 100.22C26.8645 100.22 26.8045 100.258 26.7392 100.318C26.7828 100.274 26.7937 100.225 26.7773 100.166C26.761 100.106 26.7119 100.089 26.6302 100.106C26.6248 100.416 26.6139 100.725 26.6139 101.03C26.6085 101.334 26.5976 101.682 26.5812 102.079C26.554 102.09 26.5267 102.095 26.4886 102.095C26.4505 102.095 26.4341 102.112 26.4341 102.134C26.505 102.172 26.554 102.204 26.5758 102.237C26.5758 102.307 26.5758 102.362 26.5649 102.394C26.6248 102.481 26.6847 102.568 26.7337 102.65C26.7828 102.732 26.8427 102.819 26.9026 102.905C26.9026 102.905 26.908 102.927 26.9135 102.927C26.9244 102.954 26.9353 103.02 26.9516 103.02H26.9407C27.0006 103.02 27.0606 103.21 27.115 103.291C27.1695 103.373 27.224 103.563 27.2839 103.563H27.371V103.476C27.371 103.531 27.4037 103.58 27.4418 103.634C27.4745 103.683 27.4963 103.737 27.5399 103.786C27.5562 103.759 27.5617 103.754 27.578 103.759C27.5889 103.77 27.6053 103.786 27.627 103.802C27.6488 103.824 27.6706 103.846 27.6924 103.862C27.7142 103.884 27.736 103.884 27.7632 103.862C27.7033 103.944 27.7033 104.031 27.7632 104.14C27.7796 104.156 27.7904 104.172 27.7959 104.183C27.7959 104.199 27.8122 104.21 27.8286 104.232L27.8667 104.27L27.8558 104.286L27.9702 104.27C27.9702 104.227 27.9702 104.183 27.9756 104.134C27.9756 104.091 27.9811 104.036 27.9811 103.987C27.9811 103.889 27.9811 103.792 27.9756 103.694C27.9756 103.59 27.9484 103.498 27.943 103.4C27.9321 103.291 27.9157 103.194 27.9157 103.09V102.775C27.9157 102.775 27.8776 102.726 27.8558 102.699C27.834 102.672 27.8231 102.639 27.8013 102.596C27.7578 102.596 27.7251 102.606 27.6978 102.628C27.6706 102.655 27.6379 102.655 27.5944 102.65C27.6053 102.574 27.6053 102.525 27.5889 102.509C27.578 102.492 27.5562 102.487 27.529 102.487C27.5018 102.487 27.4745 102.503 27.4527 102.514C27.4255 102.525 27.4092 102.525 27.3983 102.509C27.4146 102.449 27.4364 102.394 27.4636 102.356C27.4909 102.318 27.5181 102.28 27.5508 102.242C27.5835 102.21 27.6161 102.177 27.6488 102.139C27.6815 102.106 27.7196 102.057 27.7523 101.998C27.7687 102.079 27.7632 102.128 27.7414 102.161C27.7142 102.193 27.7033 102.237 27.7033 102.297C27.7796 102.275 27.834 102.253 27.8667 102.231C27.883 102.215 27.8939 102.215 27.9103 102.21C27.9212 102.199 27.9321 102.182 27.943 102.172C27.9539 101.97 27.9593 101.731 27.9756 101.525C27.9865 101.318 28.0083 101.389 28.0356 100.845H28.0247C28.0247 100.845 28.0138 100.84 28.0247 100.823C28.0356 100.802 28.041 100.807 28.0519 100.791C28.0682 100.698 28.0846 100.611 28.09 100.513C28.0955 100.416 28.1118 100.329 28.1282 100.231C28.09 100.209 28.0301 100.214 27.9756 100.214ZM28.9724 101.574C28.8036 101.53 28.6946 101.546 28.6456 101.617C28.5912 101.688 28.4931 101.715 28.346 101.693C28.3678 101.775 28.3896 101.862 28.4114 101.943C28.4332 102.03 28.4604 102.101 28.4877 102.161C28.5203 102.226 28.5694 102.269 28.6456 102.297C28.7219 102.329 28.8308 102.324 28.9724 102.286V101.568V101.574ZM34.3159 104.422C34.3159 104.422 34.3323 104.444 34.3323 104.428C34.3595 104.308 32.8725 102.351 32.8725 102.53C32.8725 102.71 32.8725 102.905 32.8779 103.074C32.8779 103.248 32.8779 103.417 32.8779 103.558C32.8779 103.569 32.8779 103.58 32.8779 103.59C32.8779 103.596 32.867 103.59 32.8616 103.612C32.8017 103.764 32.7962 103.955 32.8071 104.112C32.8126 104.205 32.8289 104.281 32.8507 104.357C32.8507 104.39 32.8507 104.428 32.8344 104.477C32.8561 104.477 32.8834 104.493 32.9106 104.498C32.9542 104.58 33.0141 104.651 33.1013 104.732C33.1176 104.748 33.1285 104.759 33.1448 104.776C33.1448 104.776 33.1448 104.776 33.1394 104.776C33.1939 104.863 33.2538 104.933 33.33 104.999C33.3464 105.009 33.3627 105.02 33.3791 105.037C33.3682 105.091 33.3573 105.145 33.3409 105.2C33.3028 105.221 33.2647 105.243 33.2429 105.276C33.2102 105.314 33.183 105.352 33.1557 105.39C33.1285 105.433 33.0958 105.461 33.0522 105.488C33.0522 105.488 33.0522 105.499 33.0522 105.504C33.0468 105.504 33.0359 105.504 33.0304 105.51C33.0141 105.412 32.9978 105.314 32.976 105.221C32.976 105.205 32.9596 105.2 32.9542 105.189C32.9542 105.189 32.9542 105.178 32.9542 105.172C32.9542 105.172 32.9542 105.178 32.9487 105.178C32.9487 105.178 32.9487 105.167 32.9433 105.167C32.9106 105.172 32.8834 105.172 32.8507 105.167C32.7254 105.156 32.7581 105.776 32.7744 105.852C32.7744 105.852 32.7744 105.863 32.7744 105.868C32.7853 105.982 32.8017 106.108 32.8289 106.238C32.8616 106.379 32.8834 106.521 32.8997 106.662C32.8235 106.651 32.7799 106.678 32.7744 106.738C32.7744 106.798 32.7744 106.869 32.7962 106.956C32.8126 107.043 32.8235 107.124 32.8289 107.206C32.8289 107.282 32.8017 107.336 32.7418 107.363C32.6546 107.032 32.4694 106.782 32.1807 106.608C32.1698 106.586 32.1535 106.559 32.1426 106.532C32.1426 106.532 32.1426 106.532 32.1426 106.526C32.1589 106.428 32.1262 106.368 32.0391 106.352C32.0119 106.412 32.0064 106.477 31.9955 106.542C31.9465 106.488 31.892 106.434 31.8321 106.401C31.8485 106.368 31.8757 106.341 31.8811 106.298C31.8267 106.281 31.7831 106.26 31.7504 106.227C31.7177 106.195 31.6578 106.167 31.5815 106.178C31.5707 106.222 31.5707 106.276 31.5761 106.276H31.5707C31.5707 106.276 31.5325 106.32 31.5162 106.352C31.4998 106.32 31.489 106.292 31.4726 106.254C31.4508 106.205 31.4345 106.156 31.429 106.097C31.3964 106.08 31.3691 106.086 31.3528 106.108C31.3364 106.129 31.3201 106.156 31.3092 106.178C31.2983 106.205 31.282 106.222 31.2711 106.238C31.2711 106.211 31.2711 106.184 31.2602 106.156C31.2602 106.135 31.2438 106.118 31.2384 106.102C31.2547 106.026 31.2874 105.966 31.3364 105.939C31.4072 105.896 31.489 105.885 31.587 105.89C31.6033 105.814 31.5924 105.765 31.5598 105.743C31.5271 105.722 31.5216 105.678 31.5325 105.613C31.5489 105.504 31.5543 105.39 31.5434 105.292C31.5434 105.249 31.5162 105.02 31.4508 105.156L31.4399 105.178C31.429 105.129 31.4181 105.091 31.4127 105.096C31.3746 105.102 31.3364 105.113 31.2983 105.124C31.2711 105.08 31.2493 105.026 31.222 104.988C31.1022 104.825 30.966 104.672 30.819 104.531C30.819 104.542 30.819 104.558 30.819 104.574C30.7808 104.531 30.7427 104.487 30.6991 104.444C30.6719 104.167 30.5684 103.938 30.3287 103.759C30.2688 103.585 30.1054 103.438 30.1054 103.297C30.1054 102.944 29.6315 102.677 29.4463 102.34C29.4354 102.313 29.4028 102.34 29.3864 102.373C29.3537 102.346 29.3265 102.307 29.2884 102.286C29.272 102.433 29.2829 102.541 29.3156 102.634C29.2993 102.764 29.2829 102.933 29.3428 103.041C29.4082 103.156 29.479 103.264 29.5553 103.368C29.5171 103.378 29.4518 103.433 29.4354 103.503C29.2775 103.319 29.1359 103.128 29.0051 102.922C29.0051 102.916 29.0051 102.911 29.0051 102.911C29.0051 102.911 28.9724 102.884 28.9615 102.862C28.9125 102.786 28.8526 103.101 28.8526 103.112C28.8363 103.243 28.8036 103.449 28.8744 103.569C28.8853 103.585 28.8962 103.601 28.9071 103.618C28.9071 103.645 28.8962 103.672 28.8962 103.699C28.8853 103.797 28.8962 103.906 28.9234 104.015C28.9833 104.015 29.0269 104.031 29.0541 104.058C29.0814 104.091 29.1032 104.123 29.1195 104.161C29.1359 104.199 29.1576 104.243 29.1794 104.281C29.1903 104.303 29.2121 104.308 29.2339 104.324C29.2339 104.411 29.2557 104.482 29.2993 104.498C29.3211 104.504 29.3374 104.509 29.3592 104.515C29.4627 104.721 29.5716 104.917 29.686 105.102C29.8058 105.298 29.9311 105.482 30.0564 105.662C30.1817 105.836 30.3124 106.015 30.4431 106.195C30.5357 106.325 30.6392 106.455 30.7427 106.591C30.7482 106.613 30.7536 106.64 30.7699 106.657C30.8462 106.754 30.9334 106.847 31.0151 106.934C31.0151 106.956 31.0151 106.977 31.026 107.005C31.0641 107.135 31.1349 107.271 31.2275 107.407C31.3255 107.543 31.4236 107.668 31.5271 107.777C31.6251 107.88 31.7123 107.95 31.794 108.005C31.8376 108.092 31.892 108.168 31.9465 108.244C31.9465 108.271 31.9302 108.288 31.9302 108.315C32.0772 108.581 32.2297 108.826 32.3877 109.059C32.5402 109.293 32.6927 109.538 32.8453 109.788C33.0958 109.831 33.3355 109.837 33.5643 109.81C33.793 109.783 34.0272 109.777 34.2669 109.788C34.256 109.44 34.2615 109.07 34.2724 108.679C34.2833 108.288 34.2996 107.885 34.3105 107.488C34.3214 107.092 34.3323 106.695 34.3377 106.303C34.3377 106.004 34.3377 105.727 34.3268 105.466C34.365 105.352 34.3595 105.189 34.365 105.096C34.365 105.096 34.365 105.058 34.3595 105.02C34.3595 104.971 34.3704 104.808 34.3704 104.759V104.64C34.3813 104.64 34.3704 104.52 34.3268 104.417L34.3159 104.422ZM49.4749 108.815C49.4749 108.815 49.4586 108.76 49.4422 108.744C49.3605 108.668 49.3115 108.57 49.2625 108.472C49.2625 108.472 49.2625 108.461 49.2625 108.456C49.2625 108.456 49.2516 108.456 49.2461 108.451C49.2026 108.369 49.159 108.288 49.0882 108.222C49.0664 108.201 49.0391 108.19 49.0119 108.179C48.9629 108.081 48.9139 107.989 48.8539 107.885C48.7559 107.722 48.647 107.554 48.5326 107.38L47.4377 108.277C47.4541 108.309 47.4704 108.342 47.4922 108.358C47.6066 108.353 47.6883 108.364 47.7428 108.407C47.6883 108.451 47.6665 108.5 47.6665 108.548C47.6665 108.603 47.6828 108.652 47.7101 108.701C47.7428 108.75 47.7809 108.788 47.8299 108.82C47.8789 108.847 47.9171 108.864 47.9552 108.864C47.9552 108.973 47.977 109.07 48.0206 109.146C48.0641 109.217 48.1132 109.288 48.1622 109.353C48.2166 109.418 48.2657 109.489 48.3147 109.56C48.3637 109.63 48.3964 109.723 48.4127 109.826C48.4999 109.793 48.6088 109.777 48.7341 109.777C48.8594 109.777 49.001 109.788 49.1535 109.804C49.306 109.815 49.464 109.831 49.622 109.837C49.7854 109.842 49.9433 109.837 50.0959 109.821C50.0359 109.647 49.9324 109.445 49.7908 109.212C49.6928 109.059 49.5893 108.929 49.4803 108.809L49.4749 108.815ZM41.3916 104.27C41.3698 104.227 41.299 104.205 41.2064 104.194C41.2064 104.194 41.2064 104.194 41.2064 104.188C41.2064 104.188 41.2009 104.188 41.1955 104.188C40.9994 104.161 40.727 104.194 40.6671 104.259C40.6671 104.259 40.6671 104.265 40.6617 104.265C40.5745 104.248 40.4819 104.237 40.3784 104.227C40.1714 104.216 39.9699 104.205 39.7738 104.205C39.5777 104.205 39.3871 104.205 39.2128 104.21C39.0385 104.21 39.0494 104.232 38.9622 104.205C38.8642 104.379 38.826 104.569 38.8097 104.814C38.7988 105.064 38.826 105.303 38.8097 105.558C39.0712 105.558 39.1147 105.558 39.3381 105.564C39.5614 105.564 39.7847 105.569 40.008 105.575C40.2314 105.575 40.4547 105.586 40.6835 105.602C40.9068 105.618 41.1519 105.629 41.4134 105.645C41.446 105.553 41.4678 105.461 41.4733 105.374C41.4733 105.281 41.4733 105.2 41.4733 105.113C41.4733 105.026 41.4624 104.944 41.4515 104.863C41.4515 104.863 41.4515 104.846 41.4515 104.841C41.5114 104.645 41.4896 104.444 41.3861 104.254L41.3916 104.27ZM41.8328 108.418C41.6421 108.451 40.58 108.461 40.324 108.456C40.068 108.445 39.8011 108.434 39.5178 108.418C39.2346 108.396 38.9513 108.391 38.6626 108.391C38.4012 108.391 38.1615 108.418 37.9327 108.461C37.9327 108.434 37.9164 108.407 37.9164 108.375C37.9164 108.271 37.8674 108.157 37.8129 108.054C37.8129 108.016 37.7966 107.972 37.7911 107.934C37.7911 107.923 37.7966 107.907 37.802 107.896C37.8292 107.695 37.8347 107.488 37.8292 107.265C37.8183 107.043 37.8075 106.831 37.7911 106.619C37.7748 106.412 37.7693 106.216 37.7693 106.031C37.7693 105.841 37.802 105.689 37.8565 105.569C37.9273 105.569 37.9818 105.569 38.0199 105.575C38.058 105.575 38.0961 105.58 38.1288 105.58C38.1615 105.58 38.2051 105.58 38.2487 105.575C38.2922 105.575 38.3467 105.569 38.4175 105.569C38.4066 105.466 38.4066 105.346 38.4175 105.211C38.4284 105.075 38.4393 104.944 38.4556 104.808C38.472 104.678 38.4938 104.553 38.521 104.439C38.5482 104.33 38.5755 104.243 38.6136 104.194C38.5537 104.167 38.4829 104.156 38.3957 104.156C38.3086 104.156 38.2269 104.156 38.1343 104.167C38.0417 104.178 37.96 104.183 37.8783 104.183C37.851 104.183 37.8401 104.172 37.8183 104.167C37.8183 104.145 37.8183 104.123 37.8129 104.102C37.8238 104.102 37.8347 104.085 37.8565 104.091C37.8674 104.031 37.8565 103.993 37.8238 103.976C37.7911 103.96 37.7857 103.917 37.802 103.846H37.7911C37.7911 103.781 37.7802 103.721 37.7693 103.661C37.7693 103.656 37.7802 103.65 37.7802 103.639C37.8238 103.525 37.851 103.4 37.851 103.264C37.851 103.128 37.8347 102.998 37.7966 102.873C37.7639 102.748 37.7257 102.645 37.6931 102.568C37.7639 102.552 37.802 102.498 37.8183 102.405C37.8292 102.318 37.8292 102.215 37.8183 102.106C37.8075 101.998 37.7857 101.889 37.7639 101.786C37.7421 101.677 37.7366 101.606 37.7421 101.552C37.96 101.53 38.1779 101.525 38.4066 101.541C38.63 101.557 38.8533 101.574 39.0657 101.584C39.2781 101.601 39.4742 101.601 39.6594 101.59C39.8446 101.579 39.9971 101.541 40.1279 101.459C40.1551 101.514 40.2041 101.552 40.2804 101.579C40.3512 101.606 40.4329 101.623 40.5255 101.628C40.6181 101.639 40.7053 101.639 40.7924 101.628C40.8796 101.623 40.9449 101.612 40.9885 101.606C40.9558 101.639 41.0375 101.688 41.0593 101.666C41.0811 101.644 41.1138 101.633 41.1519 101.639C41.19 101.639 41.2391 101.655 41.2881 101.666C41.3426 101.677 41.397 101.677 41.4569 101.661C41.4842 101.525 41.4951 101.394 41.4951 101.269C41.4951 101.144 41.4951 101.035 41.4896 100.927C41.4896 100.818 41.4787 100.709 41.4787 100.6C41.4733 100.492 41.4787 100.372 41.5005 100.242C41.4243 100.258 41.3534 100.269 41.299 100.269C41.2445 100.269 41.19 100.269 41.1465 100.263C41.1029 100.263 41.0539 100.253 40.9939 100.242C40.9395 100.231 40.9122 100.432 40.9504 100.475C40.983 100.519 41.0484 100.573 41.1465 100.644C41.1138 100.66 41.092 100.698 41.0865 100.753C41.0811 100.812 41.0811 100.867 41.0811 100.927C41.0811 100.943 41.0811 100.954 41.0756 100.965C41.0648 100.965 41.0539 100.965 41.043 100.965C41.043 100.965 41.043 100.965 41.043 100.959C41.043 100.959 41.0321 100.959 41.0266 100.959C40.983 100.959 40.934 100.959 40.8904 100.959C40.8687 100.823 40.5255 100.639 40.4547 100.492C40.373 100.334 40.3566 100.323 40.2368 100.22C39.9917 100.263 39.9862 100.198 39.7956 100.187C39.605 100.176 39.4143 100.166 39.2346 100.155C39.0494 100.144 38.8696 100.138 38.679 100.144C38.5265 100.144 38.3522 100.176 38.1615 100.214C38.1397 100.214 38.1179 100.258 38.0961 100.258V100.301H38.0853L38.216 100.258L38.265 100.214V100.187C37.7203 100.166 38.0253 100.166 37.9927 100.182C37.96 100.193 37.8728 100.209 37.8565 100.231C37.8075 100.231 37.7366 100.214 37.7094 100.193C37.7203 100.176 37.7094 100.16 37.7094 100.133C37.5896 100.144 37.4806 100.155 37.3989 100.166C37.3227 100.176 37.2301 100.166 37.132 100.133C37.132 100.144 37.1157 100.149 37.1102 100.16C37.0776 100.16 37.0449 100.149 37.0068 100.149C37.0068 100.144 37.0231 100.138 37.0231 100.133C36.827 100.149 36.6527 100.144 36.5111 100.111C36.3695 100.079 36.2496 100.089 36.1625 100.133C36.1516 100.214 36.1625 100.307 36.1843 100.421C36.206 100.535 36.2224 100.644 36.2387 100.747C36.2496 100.851 36.2496 100.948 36.2387 101.035C36.2224 101.122 36.1843 101.177 36.1134 101.204C36.157 101.269 36.1897 101.351 36.206 101.432C36.2224 101.514 36.2333 101.595 36.2442 101.671C36.2551 101.753 36.266 101.824 36.2769 101.894C36.2877 101.965 36.315 102.025 36.3477 102.079C36.3313 102.057 36.3041 102.057 36.2714 102.063C36.2551 102.329 36.2496 102.606 36.2551 102.873C36.2551 103.145 36.266 103.427 36.2714 103.716C36.3694 104.063 36.4675 104.411 36.571 104.759C36.6745 105.107 36.778 105.461 36.8706 105.825C36.8869 105.868 36.9033 105.906 36.9087 105.95C36.9196 105.988 36.9305 106.031 36.9468 106.075C36.9523 106.069 36.9523 106.064 36.9577 106.053C36.9686 106.091 36.9795 106.124 36.9904 106.156C36.9904 106.162 36.985 106.173 36.9686 106.178C37.0176 106.358 37.0721 106.542 37.1266 106.722C37.2137 107.184 37.2845 107.651 37.3771 108.119C37.4643 108.57 37.5188 108.973 37.7475 109.38C37.7802 109.522 37.8292 109.657 37.9218 109.772C37.9436 109.793 37.9654 109.772 37.9763 109.728C37.9763 109.728 37.9872 109.739 37.9872 109.744C37.9981 109.772 37.9981 109.788 38.009 109.815C38.4502 109.842 38.886 109.875 39.3108 109.908C39.7357 109.94 40.1115 109.908 40.4329 109.793C40.422 109.837 40.422 109.87 40.4329 109.891C40.4438 109.913 40.4547 109.935 40.471 109.951C40.5582 109.935 40.6127 109.913 40.6399 109.886C40.6671 109.859 41.6966 109.886 41.762 109.956C41.8164 109.761 41.7184 109.511 41.762 109.217C41.811 108.929 41.8273 108.674 41.8055 108.44L41.8328 108.418ZM37.0667 108.978C36.7398 107.804 36.4021 106.64 36.0808 105.466C36.0808 105.466 36.0808 105.45 36.0808 105.444C36.0644 105.401 36.0372 105.363 36.0154 105.325C35.9936 105.346 35.9718 105.357 35.95 105.374C35.9119 105.803 35.8302 106.358 35.9936 106.76C35.9882 106.836 35.9882 106.907 35.9827 106.983C36.0099 106.999 36.0208 107.021 36.0426 107.032C36.0208 107.314 36.01 107.597 36.01 107.88C36.01 107.961 36.01 108.054 36.01 108.146C35.9827 108.19 35.95 108.239 35.9282 108.293C35.9827 108.543 36.0045 108.788 35.9991 109.011C35.9991 109.244 35.9882 109.489 35.9773 109.761C36.0971 109.81 36.2333 109.837 36.3749 109.837C36.5165 109.837 36.6472 109.815 36.7507 109.772C36.8597 109.728 36.9359 109.663 36.9795 109.565C37.0231 109.473 37.0122 109.348 36.9414 109.201C37.0558 109.212 37.0993 109.179 37.0776 109.114C37.0558 109.049 37.0285 108.994 36.9959 108.951C37.0231 108.962 37.0394 108.962 37.0612 108.962L37.0667 108.978ZM24.8436 108.418C24.653 108.451 23.5908 108.461 23.3348 108.456C23.0788 108.445 22.8119 108.434 22.5287 108.418C22.2454 108.396 21.9622 108.391 21.6735 108.391C21.412 108.391 21.1724 108.418 20.9436 108.461C20.9436 108.434 20.9272 108.407 20.9272 108.375C20.9272 108.271 20.8782 108.157 20.8238 108.054C20.8238 108.016 20.8074 107.972 20.802 107.934C20.802 107.923 20.8074 107.907 20.8074 107.896C20.8346 107.695 20.8401 107.488 20.8346 107.265C20.8238 107.043 20.8129 106.831 20.7965 106.619C20.7802 106.412 20.7747 106.216 20.7802 106.031C20.7802 105.841 20.8129 105.689 20.8673 105.569C20.9381 105.569 20.9926 105.569 21.0307 105.575C21.0689 105.575 21.107 105.58 21.1397 105.58C21.1724 105.58 21.2159 105.58 21.2595 105.575C21.3031 105.575 21.3576 105.569 21.4284 105.569C21.4229 105.466 21.4229 105.346 21.4284 105.211C21.4393 105.075 21.4502 104.944 21.4665 104.808C21.4828 104.678 21.5046 104.553 21.5319 104.439C21.5591 104.33 21.5863 104.243 21.6245 104.194C21.5645 104.167 21.4937 104.156 21.412 104.156C21.3303 104.156 21.2432 104.156 21.1506 104.167C21.058 104.178 20.9763 104.183 20.8946 104.183C20.8673 104.183 20.8564 104.172 20.8346 104.167C20.8346 104.145 20.8346 104.123 20.8292 104.102C20.8401 104.102 20.851 104.085 20.8728 104.091C20.8782 104.031 20.8728 103.993 20.8401 103.976C20.8074 103.96 20.802 103.917 20.8183 103.846H20.8074C20.8074 103.781 20.7965 103.721 20.7911 103.661C20.7911 103.656 20.802 103.65 20.802 103.639C20.851 103.525 20.8728 103.4 20.8728 103.264C20.8728 103.128 20.8564 102.998 20.8183 102.873C20.7856 102.748 20.7475 102.645 20.7148 102.568C20.7856 102.552 20.8238 102.498 20.8401 102.405C20.851 102.318 20.851 102.215 20.8401 102.106C20.8292 101.998 20.8074 101.889 20.7856 101.786C20.7638 101.677 20.7584 101.606 20.7638 101.552C20.9817 101.53 21.205 101.525 21.4284 101.541C21.6571 101.557 21.875 101.574 22.0875 101.584C22.2999 101.601 22.496 101.601 22.6812 101.59C22.8664 101.579 23.0189 101.541 23.1496 101.459C23.1769 101.514 23.2259 101.552 23.3021 101.579C23.3784 101.606 23.4601 101.623 23.5527 101.628C23.6453 101.639 23.7324 101.639 23.8196 101.628C23.9067 101.623 23.9721 101.612 24.0157 101.606C23.983 101.639 24.0647 101.688 24.0865 101.666C24.1083 101.644 24.141 101.633 24.1791 101.639C24.2172 101.639 24.2662 101.655 24.3153 101.666C24.3643 101.677 24.4242 101.677 24.4841 101.661C24.5114 101.525 24.5223 101.394 24.5223 101.269C24.5223 101.144 24.5223 101.035 24.5168 100.927C24.5168 100.818 24.5059 100.709 24.5059 100.6C24.5005 100.492 24.5059 100.372 24.5223 100.242C24.446 100.258 24.3752 100.269 24.3207 100.269C24.2662 100.269 24.2118 100.269 24.1682 100.263C24.1246 100.263 24.0756 100.253 24.0157 100.242C23.9612 100.231 23.934 100.432 23.9721 100.475C24.0048 100.519 24.0702 100.573 24.1682 100.644C24.1355 100.66 24.1137 100.698 24.1083 100.753C24.1083 100.812 24.1028 100.867 24.1028 100.927C24.1028 100.943 24.0974 100.954 24.0974 100.965C24.0865 100.965 24.0756 100.965 24.0647 100.965C24.0647 100.965 24.0647 100.965 24.0647 100.959C24.0647 100.959 24.0538 100.959 24.0484 100.959C24.0048 100.959 23.9612 100.959 23.9122 100.959C23.8904 100.823 23.5472 100.639 23.4764 100.492C23.3947 100.334 23.3784 100.323 23.2586 100.22C23.0134 100.263 23.008 100.198 22.8174 100.187C22.6267 100.176 22.4361 100.166 22.2563 100.155C22.0711 100.144 21.8914 100.138 21.7007 100.144C21.5482 100.144 21.2377 100.176 21.0471 100.214C21.0253 100.214 21.3902 100.214 20.8455 100.214V100.307H21.1124L21.0253 100.263C21.0035 100.263 20.851 100.22 20.851 100.22V100.193C20.851 100.193 20.8292 100.171 20.802 100.187C20.7693 100.198 20.7911 100.214 20.7747 100.236C20.7257 100.236 20.7094 100.22 20.6821 100.198C20.693 100.182 20.7148 100.166 20.7148 100.138C20.595 100.149 20.4969 100.16 20.4207 100.171C20.3444 100.182 20.2573 100.171 20.1592 100.138C20.1538 100.149 20.1483 100.155 20.1374 100.166C20.1048 100.166 20.0721 100.155 20.0339 100.155C20.0339 100.149 20.0503 100.144 20.0557 100.138C19.8542 100.155 19.6853 100.149 19.5437 100.117C19.4021 100.084 19.2823 100.095 19.1951 100.138C19.1842 100.22 19.1951 100.312 19.2169 100.426C19.2387 100.541 19.255 100.649 19.2714 100.753C19.2823 100.856 19.2823 100.954 19.2714 101.041C19.255 101.128 19.2169 101.182 19.1461 101.209C19.1897 101.275 19.2223 101.356 19.2387 101.438C19.255 101.519 19.2714 101.601 19.2768 101.677C19.2877 101.758 19.2986 101.829 19.3095 101.9C19.3204 101.97 19.3476 102.03 19.3803 102.085C19.364 102.063 19.3367 102.063 19.304 102.068C19.2877 102.335 19.2823 102.612 19.2877 102.878C19.2877 103.15 19.2986 103.433 19.304 103.721C19.4021 104.069 19.5001 104.417 19.6036 104.765C19.7071 105.113 19.8106 105.466 19.9032 105.83C19.9196 105.874 19.9359 105.912 19.9413 105.955C19.9522 105.993 19.9631 106.037 19.9795 106.08C19.9849 106.075 19.9849 106.069 19.9904 106.059C20.0013 106.097 20.0122 106.129 20.023 106.162C20.023 106.167 20.0176 106.178 20.0013 106.184C20.0503 106.363 20.1048 106.548 20.1592 106.727C20.2464 107.189 20.3172 107.657 20.4098 108.124C20.4969 108.576 20.5514 108.978 20.7802 109.386C20.8129 109.527 20.8619 109.663 20.9545 109.777C20.9763 109.799 20.9926 109.777 21.009 109.734C21.0144 109.734 21.0198 109.744 21.0253 109.75C21.0307 109.777 21.0362 109.793 21.0471 109.821C21.4937 109.848 21.924 109.88 22.3489 109.913C22.7738 109.946 23.1496 109.913 23.471 109.799C23.4601 109.842 23.4601 109.875 23.471 109.897C23.4819 109.918 23.4928 109.94 23.5091 109.956C23.5963 109.94 23.6507 109.918 23.678 109.891C23.7052 109.864 24.7347 109.891 24.8001 109.962C24.8545 109.766 24.7565 109.516 24.8001 109.223C24.8491 108.934 24.8654 108.679 24.8436 108.445V108.418ZM57.1388 106.14C57.7053 106.135 58.3317 106.156 58.9962 106.195C59.0017 106.189 59.0071 106.178 59.0126 106.173C58.8437 105.77 58.6803 105.368 58.5332 104.966C58.5278 104.95 58.5332 104.933 58.5332 104.917C58.0648 104.846 57.58 104.808 57.0734 104.808C56.4906 104.808 55.8642 104.835 55.1942 104.895C55.2378 105.162 55.2542 105.374 55.2433 105.542C55.2324 105.711 55.216 105.901 55.1942 106.118C55.8533 106.146 56.5015 106.156 57.1279 106.146L57.1388 106.14ZM59.8841 102.612C59.8841 102.612 59.8078 102.601 59.7425 102.558C59.7152 102.612 59.688 102.65 59.6553 102.672C59.6281 102.699 59.6008 102.721 59.5791 102.742C59.5573 102.764 59.5355 102.791 59.5191 102.824C59.5028 102.851 59.4865 102.9 59.481 102.96C59.6553 102.982 59.8187 102.992 59.9767 102.982C60.1346 102.965 60.3253 102.96 60.5486 102.96C60.6194 102.895 60.6412 102.819 60.6194 102.737C60.5976 102.661 60.5377 102.601 60.4451 102.558C60.4124 102.563 60.3689 102.579 60.3198 102.59C60.2708 102.601 60.2109 102.628 60.1455 102.661C60.1455 102.612 60.1619 102.558 60.2 102.503C60.1238 102.487 60.0638 102.487 60.0312 102.503C59.9985 102.525 59.9712 102.547 59.9549 102.563C59.9386 102.579 59.9168 102.59 59.8895 102.601L59.8841 102.612ZM58.7021 102.498C58.7348 102.536 58.7675 102.563 58.7892 102.59C58.7892 102.59 58.7892 102.59 58.8001 102.596C58.7892 102.634 58.7838 102.672 58.7675 102.71C58.8328 102.775 58.8982 102.835 58.9581 102.895C59.2958 102.547 59.8024 102.351 59.9113 101.802C59.9222 101.758 59.9386 101.72 59.9658 101.682C59.8732 101.612 59.7806 101.541 59.6934 101.459C59.5791 101.356 59.4701 101.253 59.3612 101.155C59.2522 101.057 59.1378 100.959 59.018 100.872C58.8982 100.78 58.7675 100.698 58.6258 100.633C58.6258 100.66 58.6313 100.693 58.6313 100.72C58.6204 100.693 58.6204 100.666 58.604 100.633C58.5278 100.606 58.4842 100.611 58.4788 100.655C58.4788 100.698 58.4515 100.725 58.408 100.742C58.4515 101.035 58.4951 101.329 58.5441 101.617C58.5932 101.905 58.6476 102.199 58.7075 102.492L58.7021 102.498ZM108.155 100.617C108.155 100.617 108.166 100.606 108.177 100.6C108.15 100.726 108.308 100.579 108.335 100.552C108.357 100.524 108.384 100.492 108.406 100.465C108.455 100.524 108.515 100.568 108.526 100.557C108.564 100.513 108.602 100.481 108.64 100.443C108.651 100.437 108.64 100.426 108.64 100.41C108.689 100.34 108.727 100.263 108.793 100.204C108.82 100.182 108.847 100.16 108.874 100.133C108.891 100.144 108.902 100.149 108.902 100.149C108.902 100.127 108.912 100.117 108.923 100.111C108.923 100.106 108.923 100.095 108.923 100.084C108.923 100.019 108.749 99.8122 108.716 99.8394C108.695 99.8502 108.684 99.8665 108.662 99.8774C108.662 99.8557 108.678 99.8339 108.684 99.8067C108.7 99.7198 108.515 99.8883 108.515 99.8883C108.324 100.089 108.188 100.312 108.068 100.562C108.008 100.677 108.052 100.709 108.15 100.622L108.155 100.617ZM27.8667 105.227C27.9266 105.14 27.4582 104.417 27.4309 104.428C27.4037 104.444 27.3765 104.439 27.3547 104.422C27.3275 104.357 26.6629 103.324 26.5159 103.112C26.4995 103.525 26.4995 103.65 26.4941 104.047C26.4941 104.444 26.4505 104.841 26.3851 105.232C26.3688 105.205 26.3415 105.183 26.3089 105.162C26.2762 105.14 26.2381 105.134 26.2054 105.145C26.2217 105.211 26.2326 105.27 26.2326 105.314C26.2598 105.341 26.2816 105.368 26.3034 105.395C26.3252 105.417 26.3742 105.455 26.4396 105.499C26.4233 105.629 26.4178 105.76 26.4178 105.89C26.4178 106.021 26.4233 106.156 26.4233 106.292C26.4886 106.629 26.5485 106.966 26.6085 107.309C26.6684 107.646 26.7283 107.983 26.7773 108.309C26.8481 108.353 26.9189 108.396 26.9952 108.44C27.0714 108.483 27.1586 108.516 27.2512 108.543C27.2621 108.592 27.2512 108.614 27.2403 108.635C27.1913 108.679 27.1749 108.804 27.164 108.918C27.1368 108.918 27.115 108.94 27.0932 108.94C27.0932 108.924 27.0932 108.907 27.0932 108.891C27.0497 108.826 27.0115 108.788 26.9734 108.793C26.9407 108.793 26.9026 108.815 26.8699 108.842C26.8971 108.989 26.9189 109.136 26.9462 109.277C26.9516 109.315 26.9571 109.348 26.968 109.386C26.968 109.538 26.9952 109.668 27.0224 109.679C27.0224 109.696 27.0224 109.701 27.0279 109.717C27.1695 109.723 27.3057 109.739 27.4364 109.755C27.5726 109.777 27.7142 109.766 27.8667 109.734C27.8776 109.69 27.883 109.647 27.8885 109.598C27.8885 109.549 27.8939 109.505 27.8939 109.462L27.8177 109.108C27.8722 108.799 27.9157 108.472 27.9484 108.13C27.9811 107.787 28.0029 107.445 28.0083 107.108C28.0083 106.771 28.0083 106.445 27.9811 106.129C27.9593 105.814 27.9212 105.52 27.8722 105.249L27.8667 105.227ZM20.0721 108.973C19.7453 107.798 19.4075 106.635 19.0862 105.461C19.0862 105.461 19.0862 105.444 19.0862 105.439C19.0698 105.395 19.0426 105.357 19.0208 105.319C18.999 105.341 18.9772 105.352 18.9554 105.368C18.9173 105.798 18.8356 106.352 18.999 106.754C18.9936 106.831 18.9936 106.901 18.9881 106.977C19.0154 106.994 19.0262 107.015 19.048 107.026C19.0262 107.309 19.0154 107.592 19.0154 107.874C19.0154 107.956 19.0154 108.048 19.0154 108.141C18.9881 108.184 18.9554 108.233 18.9336 108.288C18.9881 108.538 19.0099 108.782 19.0045 109.005C18.999 109.239 18.9936 109.484 18.9827 109.755C19.1025 109.804 19.2387 109.831 19.3803 109.831C19.5219 109.831 19.6527 109.81 19.7561 109.766C19.8651 109.723 19.9413 109.657 19.9849 109.56C20.0285 109.467 20.0176 109.342 19.9468 109.195C20.0612 109.206 20.1048 109.174 20.083 109.108C20.0612 109.043 20.0339 108.989 20.0013 108.945C20.0285 108.956 20.0448 108.956 20.0666 108.956L20.0721 108.973ZM26.6629 109.478C26.6629 109.478 26.6629 109.478 26.6575 109.478C26.6575 109.418 26.6575 109.369 26.6575 109.353C26.6575 109.07 26.603 108.82 26.5104 108.554C26.5104 108.543 26.396 108.548 26.396 108.538C26.396 108.51 26.2816 108.478 26.2816 108.451C26.2816 108.407 26.4124 108.081 26.3307 108.076C26.3143 108.076 26.3579 108.092 26.347 108.114C26.3415 108.114 26.3633 108.114 26.347 108.114C26.347 108.124 26.3633 108.135 26.3633 108.141C26.3307 108.239 26.3307 108.402 26.3307 108.434C26.3034 108.847 26.298 109.261 26.3633 109.674C26.3633 109.696 26.3742 109.777 26.4124 109.783C26.4614 109.793 26.5104 109.804 26.5649 109.804C26.5921 109.804 26.6139 109.761 26.6248 109.701L26.7011 109.69C26.6956 109.647 26.6847 109.609 26.6847 109.581C26.6847 109.549 26.6738 109.516 26.6629 109.473V109.478ZM24.397 104.265C24.3752 104.221 24.2989 104.199 24.2118 104.188C24.2118 104.188 24.2118 104.188 24.2118 104.183H24.2063C24.0102 104.156 23.7379 104.188 23.678 104.254C23.678 104.254 23.678 104.259 23.6671 104.259C23.5799 104.243 23.4873 104.232 23.3838 104.221C23.1769 104.21 22.9753 104.199 22.7792 104.199C22.5831 104.199 22.3925 104.199 22.2182 104.205C22.0439 104.205 22.0548 104.227 21.9676 104.199C21.8696 104.373 21.8314 104.564 21.8151 104.808C21.8042 105.058 21.8314 105.298 21.8151 105.553C22.0766 105.553 22.1201 105.553 22.3435 105.558C22.5668 105.558 22.7956 105.564 23.0134 105.569C23.2368 105.569 23.4601 105.58 23.6834 105.597C23.9067 105.613 24.1519 105.624 24.4133 105.64C24.446 105.548 24.4678 105.455 24.4732 105.368C24.4732 105.276 24.4732 105.194 24.4732 105.107C24.4732 105.02 24.4623 104.939 24.4514 104.857C24.4514 104.857 24.4514 104.841 24.4514 104.835C24.5114 104.64 24.4896 104.439 24.3861 104.248L24.397 104.265ZM50.1176 101.932C50.025 101.742 49.9216 101.563 49.7963 101.405C49.6764 101.247 49.5403 101.09 49.3986 100.948C49.257 100.807 49.1099 100.666 48.9629 100.524C48.7178 100.454 48.489 100.394 48.2711 100.345C48.0532 100.291 47.8898 100.214 47.7863 100.122C47.9225 100.176 48.0532 100.171 48.1731 100.106C48.2929 100.046 48.3964 99.9753 48.4999 99.8937C48.5979 99.8122 48.6905 99.7361 48.7668 99.6763C48.843 99.6165 48.9084 99.611 48.9629 99.66C48.9792 99.6002 49.0119 99.5567 49.0555 99.5241C49.0991 99.4914 49.1481 99.4697 49.208 99.4534C49.2625 99.4371 49.3224 99.4262 49.3769 99.4208C49.4313 99.4208 49.4803 99.4099 49.5294 99.399C49.4313 99.2685 49.3224 99.2033 49.2026 99.2142C49.0827 99.2251 48.952 99.2631 48.8213 99.3229C48.6851 99.3881 48.5489 99.4588 48.4182 99.5295C48.282 99.6056 48.1567 99.6491 48.0478 99.6545C48.0151 99.7252 47.9443 99.7796 47.8408 99.8176C47.7373 99.8557 47.6175 99.8937 47.4922 99.9318C47.3615 99.9698 47.2307 100.013 47.1 100.051C46.9693 100.089 46.8658 100.144 46.7895 100.214C46.7569 100.171 46.7242 100.127 46.6915 100.079C46.6588 100.035 46.6043 100.008 46.5281 100.008C46.2013 100.079 45.8908 100.122 45.6075 100.144C45.3297 100.166 45.0465 100.22 44.7633 100.301C44.7524 100.204 44.736 100.127 44.7251 100.133C44.6053 100.166 44.4855 100.193 44.3711 100.209C44.2349 100.187 44.1042 100.176 43.9789 100.182C43.8427 100.182 43.6956 100.198 43.5322 100.214C43.5867 100.323 43.6139 100.41 43.6248 100.481C43.6303 100.541 43.663 100.611 43.7011 100.693C43.7011 100.72 43.7011 100.747 43.7011 100.774C43.6684 100.774 43.6357 100.764 43.6031 100.774C43.554 100.774 43.5104 100.791 43.4723 100.802C43.4342 100.818 43.407 100.829 43.3961 100.851C43.3852 100.872 43.3961 100.899 43.4396 100.921C43.4723 100.965 43.4941 101.03 43.4996 101.111C43.4996 101.193 43.4996 101.285 43.4996 101.383C43.4996 101.487 43.4996 101.584 43.505 101.682C43.5105 101.786 43.5377 101.867 43.5813 101.938C43.5377 101.981 43.505 102.041 43.4778 102.112C43.4505 102.188 43.4342 102.264 43.4342 102.356C43.4342 102.443 43.4342 102.53 43.456 102.623C43.4723 102.71 43.4996 102.791 43.5322 102.862C43.505 102.944 43.4887 103.036 43.4778 103.145C43.4669 103.253 43.4778 103.362 43.4887 103.465C43.505 103.569 43.5322 103.661 43.5595 103.748C43.5813 103.802 43.6139 103.835 43.6412 103.868C43.6739 103.966 43.7338 104.053 43.8264 104.107C43.8264 104.14 43.8264 104.172 43.8264 104.205C43.8155 104.314 43.7882 104.406 43.7338 104.487C43.7665 104.531 43.6793 104.558 43.7338 104.569C43.7828 104.574 43.7229 104.602 43.7229 104.645V106.113C43.7229 106.113 43.761 106.129 43.7447 106.184C43.7229 106.238 43.7719 106.298 43.7556 106.363C43.7447 106.423 43.7556 106.466 43.7174 106.494C43.6848 106.521 43.6412 106.494 43.5649 106.428C43.5322 106.472 43.4996 106.515 43.4505 106.553C43.4015 106.591 43.3852 106.651 43.3852 106.727C43.456 106.727 43.4996 106.733 43.5104 106.744C43.5213 106.754 43.5268 106.765 43.5159 106.787C43.505 106.809 43.4941 106.831 43.4723 106.858C43.4505 106.879 43.4396 106.907 43.4396 106.934C43.4723 106.983 43.505 106.994 43.5213 106.956C43.5431 106.912 43.5649 106.923 43.5813 106.977C43.5486 107.026 43.505 107.075 43.4669 107.113C43.4233 107.151 43.3797 107.195 43.3361 107.238C43.3634 107.293 43.3743 107.358 43.3688 107.439C43.3688 107.521 43.3688 107.603 43.3688 107.684C43.3688 107.766 43.3852 107.847 43.4015 107.929C43.4179 108.005 43.4614 108.059 43.5322 108.097C43.4342 108.081 43.3743 108.097 43.3416 108.135C43.3089 108.179 43.298 108.222 43.298 108.266C43.298 108.326 43.3089 108.391 43.3361 108.461C43.3525 108.527 43.3634 108.619 43.3634 108.728C43.3634 108.837 43.3634 108.951 43.3579 109.081C43.3579 109.206 43.347 109.331 43.3361 109.462C43.3253 109.592 43.3253 109.717 43.3361 109.826C43.5867 109.837 43.8482 109.842 44.1096 109.842C44.3711 109.842 44.6598 109.821 44.9648 109.777C44.9376 109.032 44.9321 108.326 44.9376 107.668C44.9485 107.01 44.9593 106.379 44.9757 105.776C44.992 105.172 44.8885 104.596 44.9103 104.042C44.9267 103.493 44.8177 102.378 44.8177 102.373V101.389H46.3865C46.3865 101.389 46.5063 101.574 46.49 101.47C46.8821 101.383 47.2471 101.465 47.5957 101.633C47.9443 101.807 48.2221 102.068 48.4291 102.389C48.6361 102.71 48.7505 103.085 48.7722 103.493C48.794 103.9 48.6742 104.308 48.4127 104.694C48.2275 104.868 48.0423 104.999 47.8517 105.085C47.6611 105.172 47.4541 105.238 47.2416 105.276C47.0238 105.314 46.795 105.341 46.5499 105.346C46.3102 105.352 46.0487 105.357 45.7709 105.357C45.9888 105.825 46.2285 106.265 46.4954 106.684C46.7569 107.102 47.0183 107.526 47.2689 107.961C47.4432 107.787 47.612 107.624 47.7809 107.461C47.9497 107.304 48.124 107.135 48.2983 106.961C48.1349 106.695 47.9824 106.445 47.8517 106.222C48.331 106.189 48.745 106.059 49.0991 105.83C49.4531 105.602 49.7309 105.319 49.9488 104.971C50.1612 104.623 50.3028 104.237 50.3737 103.819C50.4445 103.395 50.4336 102.982 50.3464 102.563C50.2919 102.34 50.2211 102.128 50.1285 101.938L50.1176 101.932ZM43.3307 106.26C43.4015 106.233 43.4015 106.216 43.4451 106.156C43.4669 106.124 43.4778 106.069 43.4887 106.026C43.4996 106.026 43.5105 106.026 43.5213 106.026C43.6248 106.031 43.6194 105.531 43.6194 105.477C43.5867 105.14 43.4996 104.825 43.4015 104.498C43.3961 104.417 43.3743 104.292 43.3416 104.292C43.3361 104.27 43.3253 104.248 43.3198 104.221C43.2871 104.112 43.2381 104.221 43.2272 104.275C43.1891 104.417 43.1836 104.569 43.1891 104.716C43.2163 105.194 43.1945 105.673 43.2871 106.14C43.2871 106.14 43.3035 106.26 43.3307 106.249V106.26ZM97.6589 100.209C97.6589 100.209 97.648 100.182 97.6426 100.187C97.6045 100.204 97.5663 100.209 97.5282 100.225C97.5173 100.198 97.501 100.182 97.4955 100.155C97.3975 100.198 97.3321 100.22 97.294 100.22C97.2559 100.22 97.2068 100.182 97.136 100.106C97.0434 100.171 96.9617 100.214 96.9018 100.214C96.8364 100.214 96.7874 100.214 96.7384 100.214C96.6894 100.214 96.6349 100.214 96.5913 100.214C96.5423 100.214 96.4824 100.253 96.4116 100.312C96.4551 100.269 96.4715 100.22 96.4497 100.16C96.4279 100.1 96.3843 100.084 96.3026 100.1C96.2917 100.41 96.2863 100.72 96.2808 101.025C96.2808 101.329 96.2645 101.677 96.2482 102.074C96.2264 102.085 96.1882 102.09 96.1556 102.09C96.1229 102.09 96.1065 102.106 96.1065 102.128C96.1719 102.166 96.2209 102.199 96.2482 102.231C96.2482 102.302 96.2482 102.356 96.2373 102.389C96.2972 102.476 96.3517 102.563 96.4061 102.645C96.4606 102.726 96.5151 102.813 96.575 102.9C96.575 102.9 96.5859 102.922 96.5913 102.922C96.6022 102.949 96.6131 103.014 96.624 103.014H96.6131C96.6785 103.014 96.7329 103.204 96.782 103.286C96.8419 103.368 96.8909 103.558 96.9563 103.558H97.0761V103.471C97.0761 103.525 97.0924 103.574 97.1306 103.629C97.1633 103.677 97.1741 103.732 97.2177 103.781C97.2341 103.754 97.2395 103.748 97.2504 103.754C97.2613 103.764 97.2722 103.781 97.294 103.797C97.3158 103.819 97.3321 103.841 97.3594 103.857C97.3811 103.879 97.4029 103.879 97.4302 103.857C97.3648 103.938 97.3648 104.025 97.4302 104.134C97.4519 104.15 97.4574 104.167 97.4628 104.178C97.4628 104.194 97.4792 104.205 97.4955 104.227L97.5336 104.265L97.5173 104.281L97.6317 104.265C97.6317 104.221 97.6317 104.178 97.6426 104.129C97.6426 104.085 97.6426 104.031 97.6426 103.982C97.6426 103.884 97.6426 103.786 97.6426 103.688C97.6426 103.585 97.6317 103.493 97.6208 103.395C97.6208 103.286 97.6154 103.188 97.6154 103.085V102.77C97.6154 102.77 97.5554 102.721 97.5391 102.693C97.5173 102.666 97.4955 102.634 97.4792 102.59C97.4356 102.59 97.3975 102.601 97.3702 102.623C97.3484 102.65 97.3103 102.65 97.2613 102.645C97.2722 102.568 97.2722 102.52 97.2613 102.503C97.245 102.487 97.2286 102.481 97.2014 102.481C97.1741 102.481 97.1469 102.498 97.1251 102.509C97.1033 102.52 97.0816 102.52 97.0707 102.503C97.0924 102.443 97.1088 102.389 97.136 102.351C97.1633 102.313 97.1905 102.275 97.2177 102.237C97.245 102.204 97.2831 102.172 97.3158 102.134C97.3485 102.101 97.3866 102.052 97.4247 101.992C97.4411 102.074 97.4356 102.123 97.4084 102.155C97.3866 102.188 97.3702 102.231 97.3702 102.291C97.4465 102.269 97.5064 102.248 97.5336 102.226C97.55 102.21 97.5609 102.21 97.5718 102.204C97.5881 102.193 97.5936 102.177 97.6045 102.166C97.6154 101.965 97.6263 101.726 97.6371 101.519C97.648 101.313 97.6644 101.383 97.6916 100.84H97.6807C97.6807 100.84 97.6698 100.834 97.6807 100.818C97.6916 100.796 97.6971 100.802 97.7025 100.785C97.7243 100.693 97.7352 100.606 97.7406 100.508C97.7515 100.41 97.7624 100.323 97.7788 100.225C97.7461 100.204 97.6862 100.209 97.6317 100.209H97.6589ZM97.55 105.227C97.6099 105.14 97.136 104.417 97.1142 104.428C97.087 104.444 97.0598 104.439 97.0325 104.422C97.0107 104.357 96.3462 103.324 96.1937 103.112C96.1719 103.525 96.1719 103.65 96.1719 104.047C96.1719 104.444 96.1283 104.841 96.0575 105.232C96.0412 105.205 96.0194 105.183 95.9813 105.162C95.9486 105.14 95.9159 105.134 95.8778 105.145C95.8941 105.211 95.8996 105.27 95.8996 105.314C95.9268 105.341 95.954 105.368 95.9704 105.395C95.9922 105.417 96.0357 105.455 96.112 105.499C96.0902 105.629 96.0902 105.76 96.0902 105.89C96.0902 106.021 96.1011 106.156 96.1011 106.292C96.161 106.629 96.2209 106.966 96.2863 107.309C96.3462 107.646 96.4007 107.983 96.4551 108.309C96.5205 108.353 96.5968 108.396 96.673 108.44C96.7438 108.483 96.831 108.516 96.929 108.543C96.9454 108.592 96.929 108.614 96.9127 108.635C96.8637 108.679 96.8473 108.804 96.8419 108.918C96.8201 108.918 96.7929 108.94 96.7711 108.94C96.7711 108.924 96.7711 108.907 96.7711 108.891C96.7275 108.826 96.6894 108.788 96.6567 108.793C96.624 108.793 96.5913 108.815 96.5477 108.842C96.575 108.989 96.6022 109.136 96.624 109.277C96.6349 109.315 96.6403 109.348 96.6458 109.386C96.6458 109.538 96.6676 109.668 96.6948 109.679C96.6948 109.696 96.6948 109.701 96.7057 109.717C96.8419 109.723 96.9835 109.739 97.1142 109.755C97.2504 109.777 97.3975 109.766 97.5445 109.734C97.5554 109.69 97.5609 109.647 97.5609 109.598C97.5609 109.549 97.5718 109.505 97.5718 109.462L97.4955 109.108C97.55 108.799 97.5936 108.472 97.6262 108.13C97.6589 107.787 97.6807 107.445 97.6862 107.108C97.6862 106.771 97.6862 106.445 97.6644 106.129C97.6426 105.814 97.599 105.52 97.5554 105.249L97.55 105.227ZM96.3462 109.484C96.3462 109.484 96.3462 109.484 96.3353 109.484C96.3353 109.424 96.3353 109.375 96.3353 109.358C96.3353 109.076 96.2808 108.826 96.1882 108.559C96.1882 108.548 96.0956 108.554 96.0902 108.543C96.0902 108.516 95.9921 108.483 95.9921 108.456C95.9921 108.413 96.1011 108.086 96.0248 108.081C96.0085 108.081 96.0412 108.097 96.0357 108.119C96.0248 108.119 96.0466 108.119 96.0357 108.119C96.0357 108.13 96.0521 108.141 96.0521 108.146C96.0248 108.244 96.0194 108.407 96.0139 108.44C95.9922 108.853 95.9813 109.266 96.0521 109.679C96.0521 109.701 96.063 109.783 96.0956 109.788C96.1447 109.799 96.1991 109.81 96.2482 109.81C96.2754 109.81 96.2972 109.766 96.3135 109.706L96.3898 109.696C96.3789 109.652 96.3734 109.614 96.368 109.587C96.368 109.554 96.3571 109.522 96.3462 109.478V109.484ZM95.6653 99.9155C95.6272 99.872 95.6 99.8231 95.6 99.7633C95.6 99.6763 95.5782 99.5947 95.5346 99.5132C95.284 99.4697 95.1315 99.5132 95.0825 99.6219C95.028 99.7415 95.0825 99.91 95.2241 100.138C95.2895 100.117 95.3712 100.117 95.4638 100.138C95.5564 100.16 95.649 100.171 95.7307 100.171C95.7089 100.127 95.7035 100.084 95.7035 100.046C95.7035 100.008 95.6926 99.959 95.6708 99.9155H95.6653ZM98.6557 101.568C98.4923 101.525 98.3779 101.541 98.3289 101.612C98.2744 101.682 98.1764 101.709 98.0293 101.688C98.0511 101.769 98.0729 101.856 98.0947 101.938C98.1165 102.025 98.1437 102.095 98.1709 102.155C98.2036 102.221 98.2527 102.264 98.3289 102.291C98.3997 102.324 98.5087 102.318 98.6557 102.28V101.563V101.568ZM112.328 109.282C112.224 109.146 112.121 109.016 112.012 108.896C111.903 108.777 111.788 108.657 111.674 108.543C111.565 108.434 111.467 108.326 111.374 108.206C111.364 108.217 111.353 108.228 111.342 108.239C111.342 108.266 111.342 108.288 111.347 108.32C111.358 108.375 111.255 108.391 111.255 108.364V108.326C111.255 108.364 111.135 108.451 111.091 108.451H111.069C111.042 108.451 111.004 108.451 110.977 108.494C110.873 108.478 110.775 108.478 110.666 108.521C110.645 108.5 110.617 108.467 110.596 108.44C110.579 108.402 110.645 108.358 110.612 108.315C110.612 108.315 110.715 108.315 110.715 108.304V107.907C110.715 107.907 110.715 108.027 110.715 108.021L110.639 108.076C110.661 108.065 110.639 108.07 110.661 108.048C110.672 108.048 110.666 108.07 110.677 108.065C110.715 108.054 110.743 108.043 110.775 108.01C110.797 107.994 110.775 107.956 110.753 107.902C110.753 107.896 110.759 107.891 110.764 107.88C110.808 107.923 110.857 107.956 110.895 107.956C110.906 107.956 110.895 107.923 110.873 107.885C110.89 107.885 110.895 107.896 110.906 107.896C110.917 107.896 110.906 107.88 110.906 107.858C110.928 107.874 110.95 107.896 110.971 107.896C110.993 107.896 110.95 107.804 110.895 107.695C110.911 107.711 110.933 107.722 110.971 107.717C110.971 107.717 110.982 107.711 110.988 107.706C110.884 107.472 110.753 107.233 110.59 106.983C110.487 106.825 110.367 106.689 110.236 106.564C110.187 106.483 110.127 106.407 110.062 106.341C109.996 106.281 109.947 106.271 109.898 106.276C109.898 106.265 109.898 106.249 109.898 106.238C109.882 106.162 109.844 106.113 109.778 106.086C109.768 106.097 109.757 106.108 109.757 106.124C109.664 105.982 109.577 105.836 109.501 105.689C109.441 105.58 109.375 105.471 109.288 105.374C109.163 105.227 109.043 105.145 108.918 105.129C108.983 104.852 109.092 104.613 109.239 104.411C109.381 104.21 109.533 104.02 109.697 103.841C109.86 103.656 110.024 103.476 110.187 103.286C110.29 103.166 110.383 103.025 110.459 102.878C110.568 102.748 110.661 102.612 110.737 102.46C110.748 102.443 110.792 102.362 110.759 102.34C110.623 102.253 110.492 102.172 110.345 102.112C110.323 102.101 110.296 102.112 110.269 102.134C110.269 102.09 110.258 102.052 110.258 102.014C110.247 101.905 110.231 101.807 110.198 101.726C110.182 101.682 110.16 101.661 110.138 101.628C110.203 101.563 110.274 101.497 110.345 101.438C110.378 101.421 110.41 101.4 110.448 101.389C110.465 101.389 110.47 101.372 110.481 101.367C110.492 101.367 110.497 101.367 110.503 101.372C110.546 101.383 110.585 101.389 110.617 101.394C110.655 101.405 110.677 101.41 110.683 101.421C110.655 101.432 110.617 101.465 110.579 101.53C110.541 101.595 110.557 101.639 110.628 101.666C110.639 101.65 110.65 101.644 110.661 101.655C110.677 101.661 110.688 101.677 110.715 101.688C110.737 101.699 110.759 101.709 110.786 101.715C110.808 101.715 110.846 101.704 110.89 101.666C110.879 101.693 110.868 101.726 110.857 101.753C110.868 101.753 110.879 101.748 110.884 101.753C110.901 101.78 110.911 101.807 110.928 101.829C110.944 101.851 110.939 101.878 110.928 101.916C110.944 101.911 110.96 101.894 110.977 101.894C111.037 101.878 111.108 101.894 111.195 101.932C111.287 101.786 111.396 101.65 111.522 101.519C111.641 101.394 111.761 101.264 111.881 101.133C111.995 101.003 112.104 100.867 112.202 100.72C112.3 100.568 112.371 100.394 112.426 100.198C112.268 100.182 112.099 100.166 111.919 100.155C111.734 100.144 111.565 100.155 111.413 100.198C111.429 100.231 111.434 100.263 111.44 100.291C111.374 100.301 111.32 100.312 111.26 100.329C111.26 100.318 111.26 100.301 111.26 100.291C111.233 100.225 111.189 100.171 111.129 100.127C111.064 100.084 110.993 100.068 110.906 100.089C110.819 100.253 110.721 100.405 110.617 100.546C110.508 100.687 110.383 100.807 110.241 100.91C110.241 100.927 110.241 100.932 110.241 100.948C110.089 101.079 109.969 101.247 109.871 101.427C109.855 101.427 109.849 101.421 109.827 101.421C109.522 101.943 109.168 102.454 108.76 102.96C108.346 103.46 107.943 103.949 107.529 104.417C107.54 104.27 107.545 104.172 107.551 104.123C107.551 104.074 107.583 104.004 107.638 103.906C107.572 103.808 107.534 103.688 107.545 103.547C107.556 103.406 107.567 103.264 107.6 103.118C107.621 102.976 107.643 102.851 107.649 102.742C107.66 102.645 107.621 102.585 107.551 102.552C107.54 102.416 107.529 102.275 107.496 102.139C107.518 102.074 107.54 102.008 107.545 101.932C107.556 101.769 107.545 101.568 107.529 101.356C107.529 101.34 107.518 101.324 107.518 101.307C107.518 101.307 107.518 101.307 107.518 101.296C107.507 101.188 107.502 101.079 107.485 100.965C107.458 100.965 107.436 100.965 107.42 100.965C107.42 100.894 107.42 100.818 107.409 100.747C107.409 100.758 107.42 100.769 107.431 100.78C107.447 100.807 107.458 100.829 107.485 100.845C107.507 100.861 107.54 100.867 107.583 100.861C107.6 100.807 107.605 100.764 107.583 100.72C107.567 100.671 107.562 100.633 107.545 100.595C107.534 100.557 107.523 100.524 107.523 100.492C107.523 100.465 107.545 100.432 107.578 100.405C107.578 100.475 107.578 100.513 107.594 100.53C107.594 100.541 107.611 100.541 107.616 100.53C107.616 100.519 107.632 100.497 107.638 100.47C107.654 100.443 107.665 100.421 107.681 100.405C107.681 100.421 107.692 100.432 107.703 100.437C107.714 100.437 107.725 100.432 107.73 100.405C107.687 100.372 107.665 100.329 107.654 100.274C107.643 100.22 107.632 100.166 107.632 100.095C107.556 100.068 107.485 100.062 107.431 100.073C107.371 100.084 107.322 100.095 107.278 100.111C107.235 100.122 107.191 100.127 107.142 100.122C107.093 100.122 107.033 100.095 106.962 100.051C106.973 100.1 106.979 100.138 106.979 100.176C106.962 100.176 106.941 100.176 106.913 100.182C106.924 100.155 106.935 100.127 106.924 100.089C106.804 100.062 106.679 100.051 106.554 100.051C106.434 100.051 106.396 100.062 106.222 100.089C106.232 100.253 106.363 100.399 106.363 100.53V100.921C106.363 101.052 106.238 101.182 106.232 101.324C106.232 101.459 106.167 101.628 106.167 101.818C106.2 101.818 106.189 101.818 106.211 101.813C106.183 101.883 106.145 101.954 106.145 102.019C106.145 102.019 106.124 102.019 106.113 102.025C106.134 102.264 106.134 102.492 106.129 102.699C106.113 102.9 106.102 103.096 106.091 103.286C106.075 103.471 106.069 103.656 106.075 103.841C106.075 103.922 106.096 104.015 106.113 104.102C106.069 104.178 106.036 104.259 106.031 104.335C106.009 104.607 106.053 104.863 106.102 105.124C106.075 105.2 106.036 105.27 106.031 105.357C106.009 105.493 105.998 105.629 105.993 105.77C105.982 105.906 105.938 106.015 105.857 106.097C105.878 106.102 105.895 106.108 105.922 106.108C105.944 106.108 105.955 106.118 105.944 106.146C105.911 106.744 105.878 107.325 105.846 107.891C105.819 108.456 105.802 109.059 105.802 109.701C105.906 109.744 106.004 109.772 106.091 109.783C106.183 109.793 106.282 109.793 106.374 109.783C106.478 109.783 106.581 109.772 106.69 109.766C106.799 109.755 106.924 109.75 107.06 109.75C107.06 109.734 107.06 109.723 107.06 109.706C107.082 109.685 107.12 109.657 107.153 109.625C107.131 109.663 107.115 109.701 107.109 109.755C107.142 109.783 107.186 109.799 107.24 109.799C107.289 109.799 107.349 109.799 107.42 109.799C107.431 109.723 107.431 109.614 107.42 109.478C107.409 109.413 107.404 109.348 107.398 109.282C107.42 109.239 107.425 109.201 107.42 109.174C107.42 109.152 107.42 109.13 107.409 109.108C107.425 109.087 107.42 109.065 107.409 109.043C107.393 109.043 107.387 109.032 107.382 109.027C107.365 108.913 107.36 108.804 107.36 108.712C107.36 108.657 107.36 108.614 107.382 108.581C107.382 108.538 107.393 108.5 107.398 108.456C107.387 108.456 107.387 108.472 107.376 108.472C107.393 108.054 107.414 107.646 107.442 107.233C107.474 106.825 107.464 106.428 107.42 106.037C107.42 105.972 107.42 105.912 107.42 105.852C107.491 105.76 107.572 105.673 107.638 105.586C107.654 105.586 107.66 105.575 107.67 105.586C107.888 105.896 108.008 106.195 108.237 106.488C108.368 106.651 108.526 106.814 108.526 106.977V106.988C109.07 107.189 108.869 107.358 109.021 107.516C109.087 107.613 109.196 107.711 109.261 107.804C109.321 107.885 109.435 107.94 109.528 107.978C109.67 108.222 109.833 108.516 110.018 108.76C110.018 108.788 110.018 108.809 110.007 108.826C110.024 108.799 110.034 108.788 110.045 108.782C110.111 108.858 110.171 108.934 110.241 108.994C110.263 109.059 110.29 109.125 110.334 109.168C110.394 109.228 110.448 109.288 110.508 109.348C110.574 109.407 110.623 109.473 110.672 109.538C110.721 109.603 110.753 109.69 110.775 109.793C111.064 109.777 111.374 109.777 111.696 109.793C112.023 109.815 112.306 109.799 112.556 109.75C112.497 109.576 112.415 109.424 112.317 109.293L112.328 109.282ZM98.6557 102.846L98.6721 102.911C98.6721 102.911 98.6721 102.884 98.6721 102.878C98.6721 102.873 98.6612 102.862 98.6612 102.846H98.6557ZM103.896 100.176C103.819 100.187 103.743 100.187 103.667 100.182C103.678 100.187 103.689 100.187 103.689 100.204C103.569 100.22 103.395 100.225 103.166 100.214C102.937 100.209 102.741 100.187 102.567 100.149C102.567 100.28 102.578 100.361 102.588 100.394C102.605 100.426 102.599 100.503 102.567 100.6C102.61 100.611 102.643 100.6 102.676 100.579C102.697 100.557 102.736 100.546 102.785 100.546C102.73 100.595 102.599 100.666 102.616 100.747C102.627 100.812 102.539 100.872 102.539 100.921C102.539 100.921 102.583 100.899 102.534 100.889C102.507 100.889 102.545 100.916 102.529 100.97C102.529 100.97 102.55 100.97 102.545 100.959C102.545 100.981 102.567 100.992 102.567 101.014C102.529 101.204 102.545 101.546 102.583 101.606C102.627 101.671 102.676 101.731 102.73 101.775C102.763 101.824 102.806 101.873 102.834 101.922C102.834 101.922 102.834 101.932 102.834 101.938C102.844 101.949 102.855 101.96 102.861 101.97C102.883 102.008 102.91 102.047 102.932 102.079C102.932 102.09 102.932 102.101 102.932 102.106C103.008 102.28 103.144 102.465 103.302 102.617C103.324 102.639 103.335 102.661 103.351 102.688C103.351 102.683 103.351 102.672 103.351 102.666C103.367 102.699 103.378 102.732 103.389 102.77C103.411 102.813 103.416 102.819 103.438 102.808C103.542 102.954 103.64 103.096 103.749 103.243C103.858 103.395 103.972 103.547 104.092 103.705C104.114 103.4 104.114 103.09 104.092 102.77C104.075 102.503 104.092 102.269 104.114 102.047C104.135 101.927 104.157 101.737 104.114 101.623C104.114 101.579 104.103 101.53 104.103 101.492C104.103 101.394 104.103 101.302 104.103 101.204C104.103 101.111 104.114 101.008 104.119 100.894C104.119 100.785 104.119 100.649 104.119 100.503C104.163 100.465 104.146 100.459 104.201 100.47C104.201 100.448 104.146 100.426 104.146 100.405C104.146 100.334 103.961 100.263 103.858 100.193C103.836 100.182 103.885 100.171 103.868 100.16L103.896 100.176ZM103.999 104.422C103.999 104.422 104.016 104.444 104.021 104.428C104.048 104.308 102.561 102.351 102.561 102.53C102.561 102.71 102.55 102.905 102.556 103.074C102.556 103.248 102.545 103.422 102.545 103.563V103.59C102.545 103.59 102.545 103.59 102.539 103.607C102.48 103.759 102.485 103.949 102.49 104.107C102.49 104.199 102.518 104.275 102.539 104.352C102.539 104.384 102.539 104.422 102.523 104.471C102.545 104.471 102.578 104.487 102.599 104.493C102.643 104.574 102.703 104.58 102.79 104.661L102.834 104.64C102.883 104.64 102.943 104.863 103.019 104.928C103.041 104.939 103.051 104.982 103.068 104.999C103.057 105.053 103.046 105.124 103.03 105.178C102.992 105.2 102.959 105.232 102.932 105.265C102.899 105.303 102.872 105.346 102.844 105.384C102.823 105.428 102.779 105.461 102.741 105.488C102.741 105.488 102.741 105.499 102.741 105.504C102.73 105.504 102.719 105.504 102.719 105.51C102.697 105.412 102.643 105.319 102.621 105.221C102.621 105.205 102.556 105.2 102.556 105.189V105.172C102.556 105.172 102.599 105.178 102.594 105.178C102.594 105.178 102.61 105.167 102.605 105.167C102.578 105.172 102.556 105.172 102.523 105.167C102.398 105.156 102.436 105.776 102.458 105.852C102.458 105.852 102.458 105.863 102.463 105.868C102.474 105.982 102.49 106.108 102.518 106.238C102.545 106.379 102.572 106.521 102.583 106.662C102.507 106.651 102.463 106.678 102.463 106.738C102.463 106.798 102.463 106.869 102.485 106.956C102.501 107.043 102.512 107.124 102.518 107.206C102.518 107.282 102.496 107.336 102.43 107.363C102.343 107.032 102.245 106.782 101.957 106.608C101.94 106.586 102.006 106.559 102.006 106.532C102.006 106.423 101.897 106.363 101.815 106.352C101.788 106.412 101.733 106.477 101.728 106.542C101.679 106.488 101.597 106.434 101.543 106.401C101.559 106.368 101.575 106.341 101.581 106.298C101.526 106.281 101.483 106.26 101.445 106.227C101.412 106.195 101.352 106.167 101.27 106.178C101.27 106.222 101.265 106.276 101.265 106.276C101.265 106.276 101.227 106.32 101.21 106.352C101.194 106.32 101.183 106.292 101.161 106.254C101.14 106.205 101.129 106.156 101.118 106.097C101.085 106.08 101.058 106.086 101.042 106.108C101.02 106.129 101.009 106.156 100.992 106.178C100.982 106.205 100.971 106.222 100.96 106.238C100.96 106.211 100.96 106.184 100.949 106.156C100.949 106.135 100.933 106.118 100.927 106.102C100.949 106.026 100.976 105.966 101.025 105.939C101.096 105.896 101.178 105.885 101.27 105.89C101.292 105.814 101.281 105.765 101.248 105.743C101.216 105.722 101.21 105.678 101.221 105.613C101.243 105.504 101.243 105.39 101.238 105.292C101.238 105.249 101.216 105.02 101.145 105.156L101.129 105.178C101.118 105.129 101.107 105.091 101.101 105.096C101.069 105.102 101.031 105.113 100.992 105.124C100.965 105.08 100.943 105.026 100.916 104.988C100.796 104.825 100.66 104.672 100.508 104.531C100.508 104.542 100.508 104.558 100.508 104.574C100.47 104.531 100.431 104.487 100.393 104.444C100.366 104.167 100.241 103.938 100.001 103.759C99.9358 103.585 99.8541 103.438 99.756 103.297C99.5926 102.949 99.3094 102.683 99.1242 102.346C99.1078 102.318 99.0915 102.346 99.0751 102.378C99.0479 102.351 99.0261 102.313 98.988 102.291C98.9662 102.438 98.988 102.547 99.0098 102.639C98.9934 102.77 98.9826 102.938 99.037 103.047C99.1024 103.161 99.1786 103.27 99.2549 103.373C99.2168 103.384 99.1514 103.438 99.1405 103.509C98.9825 103.324 98.8573 103.134 98.7265 102.927C98.7265 102.922 98.7483 102.916 98.7483 102.916C98.7483 102.916 98.6939 102.889 98.6884 102.867C98.6394 102.791 98.5686 103.107 98.5686 103.118C98.5522 103.248 98.5196 103.455 98.5849 103.574C98.6013 103.59 98.6067 103.607 98.6176 103.623C98.6176 103.65 98.6122 103.677 98.6067 103.705C98.6067 103.802 98.6067 103.911 98.6339 104.02C98.6939 104.02 98.7374 104.036 98.7647 104.063C98.7865 104.096 98.8137 104.129 98.8246 104.167C98.8464 104.205 98.8627 104.248 98.8845 104.286C98.9008 104.308 98.9172 104.314 98.939 104.33C98.939 104.417 98.9608 104.487 99.0043 104.504C99.0261 104.509 99.0479 104.515 99.0697 104.52C99.1732 104.727 99.2821 104.922 99.3965 105.107C99.5163 105.303 99.6362 105.488 99.7669 105.667C99.8922 105.841 100.017 106.021 100.148 106.2C100.241 106.33 100.35 106.461 100.448 106.597C100.448 106.619 100.459 106.646 100.47 106.662C100.546 106.76 100.633 106.852 100.715 106.939C100.715 106.961 100.715 106.983 100.726 107.01C100.764 107.14 100.835 107.276 100.922 107.412C101.02 107.548 101.123 107.673 101.227 107.782C101.319 107.885 101.406 107.956 101.488 108.01C101.537 108.097 101.586 108.173 101.641 108.249C101.641 108.277 101.619 108.293 101.624 108.32C101.771 108.587 101.924 108.831 102.076 109.065C102.234 109.299 102.387 109.543 102.534 109.793C102.785 109.837 103.03 109.842 103.258 109.815C103.482 109.788 103.716 109.783 103.961 109.793C103.95 109.445 103.961 109.076 103.972 108.684C103.983 108.293 103.994 107.891 104.005 107.494C104.021 107.097 104.026 106.7 104.032 106.309C104.032 106.01 104.032 105.732 104.021 105.471C104.059 105.357 104.054 105.194 104.054 105.102C104.054 105.102 104.054 105.064 104.054 105.026C104.054 104.977 104.054 104.814 104.065 104.765V104.645C104.065 104.645 104.065 104.526 104.021 104.422H103.999ZM76.2523 100.263C75.9963 100.242 75.7457 100.22 75.4843 100.209C75.2282 100.187 74.9777 100.193 74.7326 100.22C74.7108 100.78 74.7162 101.307 74.7544 101.802C74.7816 102.302 74.7761 102.802 74.7326 103.319C74.7217 103.391 74.7144 103.464 74.7108 103.536C74.738 103.558 74.7707 103.677 74.7925 103.705C75.2391 103.183 77.2545 100.263 77.0312 100.247C76.7806 100.231 76.5083 100.291 76.2468 100.269L76.2523 100.263ZM68.7572 100.296C68.6156 100.296 68.4631 100.312 68.2997 100.301C68.1308 100.291 67.9511 100.28 67.7604 100.247C67.5589 100.66 67.3682 101.084 67.1776 101.503C66.9979 101.905 66.8235 102.324 66.6547 102.748C66.5948 102.878 66.5621 103.02 66.5185 103.166C66.415 103.308 66.3115 103.455 66.208 103.623C66.0991 103.808 66.0664 104.009 66.0828 104.227C66.061 104.248 66.0392 104.275 66.0228 104.292C65.9902 104.281 65.9684 104.281 65.9793 104.314C65.9793 104.319 65.9793 104.33 65.9847 104.335C65.8976 104.433 65.8159 104.547 65.7559 104.667C65.6851 104.607 65.6143 104.547 65.5707 104.46C65.5054 104.341 65.4455 104.221 65.3964 104.096C65.342 103.966 65.2875 103.846 65.233 103.726C65.1895 103.634 65.1295 103.558 65.0696 103.487C65.0206 103.362 64.9716 103.237 64.9171 103.118C64.9008 102.949 64.8572 102.791 64.7864 102.634C64.7156 102.476 64.6339 102.329 64.5413 102.177C64.4432 102.03 64.367 101.9 64.307 101.786C64.307 101.775 64.3016 101.758 64.2961 101.748C64.307 101.748 64.307 101.737 64.3125 101.742C64.2362 101.519 64.1491 101.296 64.0619 101.079C64.051 101.057 64.0401 101.035 64.0292 101.014C63.9475 100.818 63.844 100.595 63.6915 100.454C63.6915 100.437 63.7079 100.432 63.7079 100.41C63.7188 100.345 63.7024 100.296 63.6643 100.269C63.6262 100.242 63.588 100.209 63.5554 100.166C63.4083 100.204 63.2667 100.209 63.125 100.198C62.9834 100.182 62.8472 100.176 62.7111 100.166C62.5749 100.16 62.4496 100.166 62.3298 100.171C62.2099 100.182 62.0956 100.231 61.9921 100.307C61.9921 100.334 62.003 100.345 62.0302 100.35C62.0574 100.35 62.0847 100.356 62.1065 100.361C62.1337 100.367 62.1555 100.378 62.1718 100.388C62.1882 100.399 62.1936 100.426 62.1827 100.459C62.1119 100.486 62.0792 100.535 62.0792 100.611C62.3243 100.916 62.5313 101.247 62.7111 101.612C62.8908 101.976 63.0597 102.351 63.2176 102.737C63.3811 103.123 63.5445 103.503 63.7133 103.884C63.8822 104.259 64.0837 104.607 64.3179 104.917C64.3452 104.912 64.3615 104.89 64.3779 104.868C64.3833 104.901 64.3887 104.933 64.3996 104.96C64.3779 105.02 64.367 105.085 64.3724 105.178C64.6339 105.482 64.8191 105.814 64.9334 106.173C65.0478 106.532 65.1132 106.912 65.135 107.304C65.1568 107.7 65.1513 108.108 65.1241 108.527C65.0914 108.945 65.0642 109.369 65.0369 109.793C65.3256 109.777 65.6089 109.777 65.8921 109.793C66.1754 109.81 66.4314 109.81 66.6547 109.793C66.6601 109.489 66.6656 109.212 66.6656 108.962C66.6656 108.712 66.6656 108.461 66.6547 108.222C66.6438 107.983 66.6383 107.733 66.6275 107.477C66.6166 107.227 66.6166 106.95 66.6166 106.646C66.5893 106.608 66.5621 106.58 66.524 106.553C66.4913 106.526 66.4695 106.488 66.4586 106.434C66.573 106.287 66.671 106.124 66.7582 105.95C66.8453 105.77 66.9161 105.58 66.9652 105.368C66.9379 105.363 66.9216 105.374 66.8998 105.384C66.927 105.33 66.9488 105.276 66.9706 105.227C66.987 105.227 66.9924 105.227 67.0142 105.227C67.1177 105.085 67.2157 104.933 67.2974 104.77C67.3791 104.607 67.4608 104.439 67.5371 104.27C67.6134 104.102 67.6951 103.933 67.7768 103.775C67.8585 103.618 67.9565 103.471 68.0818 103.34C68.0927 103.34 68.109 103.34 68.1254 103.34C68.1417 103.313 68.1526 103.291 68.169 103.264C68.1581 103.264 68.1417 103.264 68.1308 103.243C68.1907 103.166 68.1962 103.101 68.1417 103.047C68.0927 102.992 68.0491 102.933 68.0273 102.884C68.0981 102.9 68.1417 102.895 68.1581 102.862C68.1744 102.835 68.2125 102.819 68.2724 102.829C68.5176 102.438 68.73 102.03 68.9261 101.595C69.1167 101.16 69.3237 100.725 69.5525 100.323C69.4218 100.307 69.2965 100.28 69.1658 100.28H68.7627L68.7572 100.296ZM76.3558 108.603C76.3885 108.603 76.4211 108.614 76.4484 108.635C76.4702 108.657 76.4919 108.646 76.5137 108.603C76.4484 108.516 76.4211 108.44 76.4429 108.375C76.4647 108.309 76.4702 108.217 76.4647 108.092C76.3667 108.076 76.285 108.07 76.2196 108.086C76.1542 108.103 76.078 108.114 76.0126 108.13C76.0235 108.059 76.0235 107.989 76.0126 107.907C76.0017 107.831 76.0235 107.771 76.0671 107.728C76.0889 107.733 76.1161 107.749 76.1324 107.771C76.2033 107.679 76.285 107.597 76.383 107.532C76.4102 107.184 76.432 106.831 76.4429 106.488C76.4538 106.004 76.4593 105.531 76.4593 105.069C76.4593 104.607 76.4593 104.15 76.4484 103.71C76.4484 103.319 76.4484 102.944 76.4702 102.568C76.4429 102.558 76.4102 102.547 76.383 102.541C76.127 102.884 75.8655 103.221 75.615 103.563C75.3263 103.938 75.0376 104.324 74.7544 104.716C74.7979 105.183 74.847 105.651 74.896 106.113C74.9504 106.575 74.9668 107.015 74.9505 107.439C74.9505 107.554 74.9504 107.646 74.9287 107.722C74.9123 107.793 74.9014 107.869 74.8905 107.929C74.8796 107.994 74.8687 108.059 74.8578 108.114C74.8578 108.168 74.847 108.233 74.847 108.298C74.847 108.581 74.847 108.847 74.8361 109.103C74.8252 109.364 74.8252 109.619 74.847 109.87C74.994 109.886 75.1302 109.897 75.2609 109.897C75.3917 109.897 75.5224 109.897 75.6531 109.897C75.7784 109.897 75.92 109.891 76.0671 109.891C76.2141 109.891 76.383 109.902 76.5737 109.929C76.541 109.706 76.5083 109.478 76.4974 109.25C76.4756 109.021 76.432 108.809 76.3667 108.619L76.3558 108.603ZM59.1814 106.782C59.1651 106.874 59.1705 106.95 59.1923 106.999C59.2196 107.048 59.2304 107.108 59.2304 107.189C59.1705 107.195 59.1433 107.179 59.1433 107.124C59.1433 107.07 59.1215 107.043 59.0779 107.032C59.0344 107.157 58.9635 107.265 58.8601 107.363C58.762 107.467 58.713 107.559 58.7239 107.646C58.7184 107.624 58.6966 107.603 58.6694 107.603C58.6367 107.603 58.604 107.603 58.5714 107.603C58.3208 107.853 58.0267 108.059 57.6944 108.217C57.3621 108.38 56.9754 108.478 56.5342 108.521C56.5451 108.635 56.4743 108.684 56.3272 108.663C56.1801 108.576 56.0058 108.527 55.8152 108.516C55.6191 108.5 55.4176 108.516 55.2106 108.559C55.167 108.51 55.1016 108.461 55.0199 108.413C54.9382 108.364 54.8511 108.326 54.7639 108.293C54.6768 108.26 54.5896 108.244 54.5079 108.233C54.4262 108.222 54.3663 108.233 54.3336 108.244C54.3499 108.211 54.3554 108.179 54.3445 108.152C53.8216 107.782 53.424 107.314 53.1462 106.738C52.8684 106.162 52.6886 105.499 52.6124 104.754C52.7159 104.21 52.9119 103.705 53.2006 103.243C53.4893 102.786 53.8379 102.4 54.2465 102.09C54.655 101.78 55.1125 101.574 55.6245 101.465C56.1311 101.356 56.6595 101.383 57.2096 101.552C57.3294 101.595 57.4656 101.655 57.6127 101.726C57.6781 101.758 57.7434 101.802 57.8088 101.845C57.8088 101.845 57.8088 101.845 57.8088 101.835C57.6835 101.302 57.58 100.764 57.5146 100.214C57.4057 100.176 57.3077 100.122 57.1878 100.095C56.9645 100.051 56.7412 100.019 56.5233 100.013C56.3 100.002 56.0875 100.013 55.886 100.035C55.679 100.062 55.5102 100.095 55.3685 100.127C55.3685 100.073 55.3685 100.046 55.3522 100.035C55.3413 100.03 55.3195 100.03 55.2977 100.035C55.2759 100.046 55.2542 100.051 55.2269 100.062C55.1997 100.068 55.1833 100.062 55.1724 100.024C54.9219 100.122 54.6768 100.214 54.4425 100.307C54.2083 100.399 53.9414 100.492 53.6364 100.584C53.2115 100.845 52.8466 101.155 52.5415 101.508C52.2365 101.862 51.986 102.248 51.7844 102.666C51.5829 103.085 51.4304 103.525 51.316 103.987C51.2016 104.455 51.1308 104.928 51.0927 105.412C51.0654 105.803 51.1362 106.211 51.3105 106.635C51.4794 107.053 51.7027 107.45 51.9805 107.825C52.2583 108.195 52.5688 108.532 52.9011 108.826C53.2333 109.125 53.5492 109.342 53.8488 109.478C53.8543 109.462 53.8652 109.456 53.8706 109.445C53.9033 109.505 53.9578 109.554 54.0231 109.598C54.0177 109.603 54.0068 109.609 54.0013 109.625C54.5243 109.826 55.0635 109.946 55.6245 109.984C56.1856 110.027 56.7303 109.984 57.2695 109.88C57.8033 109.772 58.3154 109.592 58.7947 109.337C59.2413 109.103 59.6226 108.815 59.9658 108.478C59.7534 107.896 59.5082 107.32 59.2631 106.744C59.2413 106.76 59.2196 106.776 59.1923 106.787L59.1814 106.782ZM61.126 105.308C61.0933 105.189 61.0497 105.069 61.0062 104.944C60.8591 104.912 60.7229 104.884 60.5922 104.879C60.4615 104.873 60.3416 104.863 60.2327 104.863C60.1891 104.863 60.1619 104.857 60.1238 104.852C60.102 104.863 60.0802 104.873 60.0529 104.879C59.8514 104.922 59.6499 104.879 59.4538 104.841C59.3884 104.863 59.3339 104.879 59.2795 104.879C59.274 104.884 59.2631 104.895 59.2413 104.895C59.6281 105.89 60.0802 106.874 60.4506 107.874C60.6412 107.603 60.8046 107.314 60.9299 106.994C61.0879 106.57 61.1696 106.102 61.1696 105.602C61.1859 105.575 61.2077 105.645 61.224 105.645C61.2458 105.645 61.2676 105.738 61.284 105.738C61.284 105.738 61.2949 105.618 61.3058 105.602C61.2186 105.558 61.1532 105.417 61.126 105.314V105.308ZM94.3798 105.814C94.4071 105.037 94.3581 104.265 94.2219 103.503C94.2437 103.525 94.2655 103.552 94.2872 103.574C94.3036 103.395 94.3145 103.215 94.3145 103.047C94.3145 102.878 94.3145 102.737 94.2872 102.623C94.2001 102.623 94.1456 102.645 94.1347 102.683C94.1347 102.688 94.0203 102.699 94.0149 102.71C93.9931 102.71 93.8352 102.715 93.8352 102.732V102.465H94.053C94.053 102.465 94.0912 102.574 94.0966 102.541C94.0585 102.541 94.0312 102.596 94.0258 102.574C94.0094 102.552 93.9822 102.579 93.9386 102.585C93.9931 102.509 94.0149 102.465 94.0149 102.433C94.0149 102.4 94.004 102.329 93.9931 102.204C94.0694 102.221 94.1238 102.221 94.1565 102.199C94.1838 102.172 94.2655 102.161 94.3308 102.161C94.3417 101.943 94.3853 101.758 94.3853 101.595V101.117C94.3853 100.965 94.3472 100.818 94.3526 100.677C94.3526 100.53 94.3526 100.372 94.3689 100.187C94.2437 100.182 94.1184 100.171 93.9986 100.16C93.8787 100.155 93.7589 100.198 93.6445 100.291C93.59 100.231 93.5301 100.193 93.4593 100.176C93.3939 100.155 93.3177 100.149 93.2469 100.155C93.1761 100.155 93.0944 100.166 93.0235 100.176C92.9527 100.182 92.8819 100.187 92.822 100.187C92.7839 100.437 92.7512 100.687 92.7349 100.932C92.7131 101.177 92.7076 101.421 92.6967 101.671C92.6967 101.682 92.7076 101.688 92.7185 101.693C92.6368 102.063 92.6314 102.416 92.6967 102.764C92.6967 102.971 92.6967 103.177 92.7076 103.389C92.7349 103.841 92.7621 104.286 92.7948 104.738C92.8166 105.151 92.8547 105.553 92.8819 105.961C92.8166 106.042 92.7675 106.129 92.7621 106.2C92.7185 106.852 92.8438 107.445 92.9636 108.065C92.9636 108.336 92.9527 108.478 92.9364 108.739C92.9146 109.049 92.8765 109.538 92.8275 109.538H94.4615C94.4615 109.538 94.4997 109.016 94.5215 108.679C94.5433 108.347 94.5542 108.065 94.5596 107.717C94.5596 107.374 94.5596 107.053 94.5324 106.7C94.5106 106.396 94.4616 106.118 94.4071 105.814H94.3798ZM91.0354 101.938C90.9482 101.748 90.8339 101.568 90.714 101.41C90.5942 101.253 90.4635 101.095 90.3164 100.954C90.1748 100.812 90.0331 100.671 89.8806 100.53C89.6355 100.459 89.4068 100.399 89.1889 100.35C88.9764 100.296 88.813 100.22 88.7095 100.127C88.8512 100.182 88.9764 100.176 89.0908 100.111C89.2107 100.051 89.3196 99.9807 89.4176 99.8992C89.5157 99.8176 89.6083 99.7415 89.6845 99.6817C89.7608 99.6219 89.8262 99.6165 89.8806 99.6654C89.9024 99.6056 89.9297 99.5621 89.9732 99.5295C90.0168 99.4969 90.0658 99.4751 90.1258 99.4588C90.1857 99.4425 90.2347 99.4316 90.2946 99.4262C90.3545 99.4262 90.4035 99.4153 90.4471 99.4045C90.3491 99.274 90.2456 99.2087 90.1203 99.2196C89.995 99.2305 89.8697 99.2685 89.7336 99.3283C89.5974 99.3936 89.4667 99.4643 89.3305 99.5349C89.1943 99.611 89.069 99.6545 88.9601 99.66C88.9274 99.7306 88.8512 99.785 88.7531 99.8231C88.6496 99.8611 88.5298 99.8992 88.3991 99.9372C88.2683 99.9753 88.1376 100.019 88.0069 100.057C87.8762 100.095 87.7727 100.149 87.6964 100.22C87.6637 100.176 87.631 100.133 87.5984 100.084C87.5657 100.041 87.5112 100.013 87.4349 100.013C87.1027 100.084 86.7976 100.127 86.5144 100.149C86.2312 100.171 85.9534 100.225 85.6701 100.307C85.6538 100.209 85.6429 100.133 85.632 100.138C85.5122 100.171 85.3923 100.198 85.2725 100.214C85.1418 100.193 85.0056 100.182 84.8803 100.187C84.7496 100.187 84.5971 100.204 84.4336 100.22C84.4827 100.329 84.5154 100.416 84.5208 100.486C84.5317 100.546 84.5589 100.617 84.5971 100.698C84.5971 100.725 84.5971 100.753 84.5971 100.78C84.5644 100.78 84.5317 100.769 84.4936 100.78C84.4445 100.78 84.4064 100.796 84.3683 100.807C84.3302 100.823 84.3029 100.834 84.2866 100.856C84.2702 100.878 84.2866 100.905 84.3356 100.927C84.3683 100.97 84.3901 101.035 84.3955 101.117C84.3955 101.198 84.3955 101.291 84.3955 101.389C84.3955 101.492 84.3955 101.59 84.3955 101.688C84.4064 101.791 84.4282 101.873 84.4718 101.943C84.4282 101.987 84.3955 102.047 84.3683 102.117C84.341 102.193 84.3247 102.269 84.3247 102.362C84.3138 102.449 84.3247 102.536 84.341 102.628C84.3628 102.715 84.3846 102.797 84.4228 102.867C84.3955 102.949 84.3737 103.041 84.3683 103.15C84.3574 103.259 84.3683 103.368 84.3846 103.471C84.401 103.574 84.4228 103.667 84.45 103.754C84.4718 103.808 84.5045 103.841 84.5317 103.873C84.5644 103.971 84.6243 104.058 84.7169 104.112C84.7169 104.145 84.7169 104.178 84.7169 104.21C84.7169 104.319 84.6788 104.411 84.6297 104.493C84.6624 104.536 84.8204 104.564 84.8749 104.574C84.9239 104.58 85.1036 104.607 85.1036 104.651V106.118C84.5589 106.113 84.8966 106.135 84.8803 106.189C84.8585 106.243 84.7877 106.303 84.7714 106.368C84.7605 106.428 84.7114 106.472 84.6679 106.499C84.6352 106.526 84.5644 106.499 84.4827 106.434C84.45 106.477 84.401 106.521 84.3519 106.559C84.3029 106.597 84.2757 106.657 84.2757 106.733C84.341 106.733 84.3846 106.738 84.401 106.749C84.4119 106.76 84.4173 106.771 84.401 106.793C84.3901 106.814 84.3737 106.836 84.3574 106.863C84.3356 106.885 84.3247 106.912 84.3247 106.939C84.3574 106.988 84.3901 106.999 84.4064 106.961C84.4282 106.918 84.45 106.928 84.4663 106.983C84.4337 107.032 84.3955 107.081 84.3519 107.119C84.3084 107.157 84.2648 107.2 84.2212 107.244C84.2485 107.298 84.2593 107.363 84.2539 107.445C84.2485 107.526 84.2539 107.608 84.2539 107.69C84.2539 107.771 84.2702 107.853 84.2866 107.934C84.3029 108.01 84.3465 108.065 84.4173 108.103C84.3193 108.086 84.2593 108.103 84.2212 108.141C84.194 108.184 84.1776 108.228 84.1776 108.271C84.1776 108.331 84.194 108.396 84.2158 108.467C84.2376 108.532 84.243 108.625 84.243 108.733C84.243 108.842 84.243 108.956 84.2321 109.087C84.2321 109.212 84.2212 109.337 84.2103 109.467C84.1994 109.598 84.1994 109.723 84.2103 109.831C84.4609 109.842 84.7223 109.848 84.9838 109.848C85.2453 109.848 85.5339 109.826 85.839 109.783C85.8117 109.038 85.8063 108.331 85.8117 107.673C85.8226 107.015 85.8335 106.385 85.8553 105.781C85.8717 105.178 86.0133 104.602 86.0242 104.047C86.046 103.498 85.632 102.384 86.1767 102.378V101.394H87.2552C87.2552 101.394 87.375 101.579 87.3641 101.476C87.7509 101.389 88.1267 101.47 88.4753 101.639C88.8239 101.813 89.1017 102.074 89.3087 102.394C89.5157 102.715 89.6355 103.09 89.6519 103.498C89.6736 103.906 89.5538 104.314 89.2924 104.7C89.1126 104.873 88.922 105.004 88.7368 105.091C88.5407 105.178 88.3391 105.243 88.1213 105.281C87.9034 105.319 87.6746 105.346 87.4295 105.352C87.1898 105.357 86.9284 105.363 86.6506 105.363C86.8685 105.83 87.1081 106.271 87.375 106.689C87.6419 107.108 87.8979 107.532 88.1485 107.967C88.3228 107.793 88.4971 107.63 88.666 107.467C88.8348 107.309 89.0037 107.14 89.178 106.966C89.0146 106.7 88.8675 106.45 88.7368 106.227C89.2107 106.195 89.6301 106.064 89.9841 105.836C90.3382 105.607 90.6214 105.325 90.8339 104.977C91.0463 104.629 91.1879 104.243 91.2587 103.824C91.3241 103.4 91.3186 102.987 91.2315 102.568C91.177 102.346 91.1062 102.134 91.0136 101.943L91.0354 101.938ZM81.5849 101.617C81.1927 101.188 80.7134 100.856 80.1305 100.617C79.5532 100.383 78.8723 100.28 78.0934 100.307C78.028 100.372 77.979 100.443 77.9245 100.513C77.87 100.579 77.8156 100.649 77.7556 100.72C77.8156 100.742 77.8591 100.769 77.8918 100.807C77.8537 100.883 77.8319 100.948 77.87 100.986C77.8864 101.003 77.8973 101.025 77.9136 101.041C77.9027 101.046 77.8918 101.052 77.8918 101.073C77.9245 101.15 77.9572 101.198 77.9844 101.215C78.0062 101.231 78.0389 101.231 78.0661 101.215C78.0934 101.198 78.1315 101.171 78.1751 101.144C78.2186 101.111 78.2786 101.09 78.3439 101.073C78.3548 101.15 78.3766 101.209 78.4147 101.247C78.4365 101.269 78.4692 101.28 78.4964 101.296C78.4964 101.34 78.4964 101.383 78.5128 101.427C78.4746 101.459 78.4474 101.508 78.4474 101.584C78.3657 101.557 78.3003 101.552 78.2513 101.557C78.1969 101.568 78.1315 101.541 78.0443 101.476C78.0661 101.53 78.0661 101.563 78.0443 101.584C78.0334 101.601 78.0225 101.617 78.0008 101.623C77.979 101.633 77.9681 101.644 77.9463 101.661C77.93 101.682 77.9245 101.704 77.9354 101.742C78.3548 101.682 78.747 101.704 79.1011 101.818C79.4497 101.932 79.7656 102.101 80.0434 102.318C80.3212 102.536 80.5554 102.797 80.7624 103.107C80.9639 103.411 81.1219 103.732 81.2472 104.069C81.2798 104.227 81.2962 104.384 81.2907 104.542C81.2907 104.705 81.2744 104.868 81.2635 105.031C81.2526 105.194 81.2417 105.357 81.2254 105.52C81.2145 105.683 81.2254 105.847 81.2526 106.01C81.1927 106.037 81.1546 106.075 81.1273 106.135C81.0947 106.189 81.0511 106.233 80.9912 106.26C80.9912 106.477 80.9476 106.678 80.8713 106.869C80.7951 107.059 80.697 107.238 80.5826 107.407C80.4628 107.57 80.3266 107.722 80.1741 107.863C80.0216 108.005 79.8745 108.13 79.722 108.239C79.4551 108.326 79.1882 108.391 78.9267 108.429C78.6653 108.472 78.4147 108.494 78.1642 108.51C77.9191 108.521 78.0879 108.527 77.8428 108.521C77.6031 108.521 77.3635 108.51 77.1347 108.5C77.1347 108.663 77.1565 108.777 77.1837 108.847C77.2109 108.913 77.26 109 77.3362 109.114C77.3144 109.141 77.2818 109.168 77.2491 109.201C77.2218 109.228 77.2109 109.288 77.2273 109.364C77.2709 109.429 77.3253 109.489 77.3798 109.532C77.4397 109.576 77.4724 109.641 77.4887 109.717C77.467 109.723 77.4343 109.723 77.4125 109.712C77.3853 109.701 77.3635 109.69 77.3471 109.679C77.3253 109.674 77.3144 109.674 77.2981 109.679C77.2818 109.69 77.2763 109.723 77.2763 109.772C77.3744 109.848 77.4724 109.902 77.5813 109.924C77.6903 109.951 77.8047 109.967 77.9191 109.973C78.0062 109.973 78.0934 109.973 78.1805 109.973C78.1587 109.973 78.1642 109.973 78.1805 109.973C78.7252 110.016 79.2427 109.973 79.7166 109.842C80.1905 109.712 80.6099 109.516 80.9857 109.25C81.3561 108.983 81.6775 108.668 81.9444 108.298C82.2113 107.929 82.4128 107.521 82.549 107.081C82.6035 106.923 82.6361 106.76 82.6525 106.591C82.6634 106.417 82.6743 106.254 82.6906 106.086C82.7015 105.917 82.7178 105.743 82.7505 105.569C82.7723 105.395 82.8322 105.221 82.9194 105.047C82.854 104.362 82.707 103.726 82.4891 103.139C82.2712 102.552 81.9662 102.047 81.574 101.617H81.5849ZM90.3927 108.815C90.3927 108.815 90.3763 108.76 90.3654 108.744C90.2837 108.668 90.2347 108.57 90.1802 108.472C90.1802 108.472 90.1802 108.461 90.1802 108.456C90.1802 108.456 90.1639 108.456 90.1584 108.451C90.1149 108.369 90.0713 108.288 90.0005 108.222C89.9787 108.201 89.9514 108.19 89.9297 108.179C89.8806 108.081 89.8316 107.989 89.7717 107.885C89.6682 107.722 89.5702 107.554 89.4503 107.38L88.3555 108.277C88.3773 108.309 88.3882 108.342 88.41 108.358C88.5189 108.353 88.606 108.364 88.6551 108.407C88.6006 108.451 88.5788 108.5 88.5788 108.548C88.5788 108.603 88.5951 108.652 88.6224 108.701C88.6496 108.75 88.6932 108.788 88.7422 108.82C88.7912 108.847 88.8294 108.864 88.862 108.864C88.862 108.973 88.8838 109.07 88.9274 109.146C88.9764 109.217 89.02 109.288 89.0745 109.353C89.129 109.418 89.178 109.489 89.227 109.56C89.276 109.63 89.3087 109.723 89.325 109.826C89.4122 109.793 89.5211 109.777 89.6464 109.777C89.7717 109.777 89.9133 109.788 90.0604 109.804C90.2183 109.815 90.3709 109.831 90.5288 109.837C90.6922 109.842 90.8556 109.837 91.0082 109.821C90.9428 109.647 90.8447 109.445 90.6977 109.212C90.5996 109.059 90.5016 108.929 90.3927 108.809V108.815ZM84.2539 106.265C84.3247 106.238 84.3247 106.222 84.3683 106.162C84.3955 106.129 84.3955 106.075 84.4064 106.031C84.4228 106.031 84.4282 106.031 84.4391 106.031C84.5426 106.037 84.5371 105.537 84.5317 105.482C84.5045 105.145 84.4119 104.83 84.3193 104.504C84.3084 104.422 84.2975 104.297 84.2539 104.297C84.2539 104.275 84.243 104.254 84.2321 104.227C84.2049 104.118 84.1559 104.227 84.1395 104.281C84.1014 104.422 84.0959 104.574 84.1068 104.721C84.1286 105.2 84.1068 105.678 84.2049 106.146C84.2049 106.146 84.2212 106.265 84.2485 106.254L84.2539 106.265Z" fill="#93D500"/>
<path fill-rule="evenodd" clip-rule="evenodd" d="M104.228 18.6957C104.892 24.2571 105.089 28.3616 103.16 34.3416C102.79 35.4996 104.277 34.5591 103.934 35.9671C103.362 38.2722 100.976 41.9743 98.6502 42.5506C95.6217 43.3117 95.0607 40.6261 93.2468 41.4035C90.2346 42.6919 85.4467 41.9743 82.5816 38.9463C78.8995 40.4793 72.6518 39.5225 69.6668 37.3371C67.9783 38.332 64.6883 39.3051 61.3329 39.2561C59.116 39.2235 57.0679 38.9463 55.935 37.5545C52.9936 39.1692 47.1926 40.1477 43.4723 38.7179C41.5931 39.9846 39.8555 41.4959 36.9849 41.7569C33.0849 42.1266 32.6382 40.164 31.7231 40.8871C29.7404 42.4256 26.9679 42.8931 24.2662 39.5714C23.3075 38.3918 22.2399 35.7551 22.1473 34.8146C22.0602 33.9502 22.8554 34.3906 22.9208 33.8143C23.0188 32.9445 22.6049 31.9551 22.3271 30.7645C21.5808 27.557 20.9653 21.6096 22.4959 17.7878C22.545 17.7878 22.594 17.7878 22.643 17.7878C23.0352 21.4846 25.6171 24.393 26.7664 27.5733C26.8154 27.5733 26.8644 27.5733 26.9134 27.5733C26.6356 23.4145 25.2902 18.9838 25.3284 14.439C25.3937 6.00171 26.6193 4.10441 27.42 0.00537109C27.469 0.00537109 27.518 0.00537109 27.5671 0.00537109C28.8743 10.2312 35.4761 17.6954 42.8023 22.6425C42.8513 22.6425 42.9003 22.6425 42.9494 22.6425C43.603 19.6199 45.4495 17.1572 46.7132 14.5803C48.8484 16.2819 51.4684 17.3855 55.3957 22.9415C58.4079 22.4033 60.6956 15.9992 62.5422 13.841C62.5912 13.928 62.6402 14.0204 62.6838 14.1128C64.9443 16.831 66.878 20.7126 70.9196 23.0013C71.5624 22.2402 72.2106 21.4846 72.8533 20.7289C75.2282 18.7337 77.5922 16.7332 79.9616 14.738C81.2144 16.2656 82.5217 20.1363 83.6656 22.898C91.7435 17.8313 96.7874 11.0467 99.4782 0.799085C101.466 4.58282 101.88 15.2164 100.834 20.5549C100.431 23.0068 100.028 25.4531 99.6252 27.9049C99.6034 27.9267 99.5871 27.9484 99.5708 27.9702C99.5708 28.0626 99.5708 28.1496 99.5708 28.242C99.5926 28.1278 99.6089 28.0191 99.6307 27.9049C101.401 25.8011 102.981 20.6256 104.233 18.7066L104.228 18.6957ZM41.7565 57.9301L41.7456 77.3761C41.7456 84.0194 38.1015 87.8249 31.7504 87.8194C27.4799 87.8194 24.8272 86.0798 23.2803 82.8017L22.8936 81.8612C22.8282 81.6709 22.3598 81.5295 22.3216 81.3882L22.7084 81.2686L22.6757 81.062L22.4905 77.0065L22.2672 66.9981V65.9543L22.8827 64.8072L22.4306 56.6254L23.1659 52.7601L22.7955 52.6514C23.4001 51.3141 24.2499 50.2213 25.3284 49.395C26.1182 48.7861 26.8099 49.9169 27.834 49.5962C28.9452 49.2482 30.4104 47.4814 31.7776 47.4814C38.1233 47.4814 41.7619 51.2977 41.7565 57.9356V57.9301ZM33.9727 65.5465L33.6786 56.3536C33.6786 55.4783 32.8289 53.6245 31.7667 53.6245C30.7045 53.6245 30.2633 55.5327 30.2633 56.408L29.7295 62.1923C29.7295 62.1923 30.552 70.298 29.9474 73.3586L30.0672 78.5776C30.0672 79.4474 30.6773 81.6763 31.7449 81.6763C32.8071 81.6763 33.3953 77.7893 33.3953 77.7893L33.7113 75.7833L33.6568 71.7549L34.1252 71.5374L33.7548 67.5471V67.4384L33.9727 65.5465ZM129.791 87.4552L129.867 86.7213L126.326 86.2538L125.929 86.8083L125.204 86.9442L124.54 86.9659L122.753 86.2538L121.909 79.7627L117.186 80.4423C117.186 80.4423 116.789 80.0889 116.767 80.0726C116.702 80.1161 116.631 80.165 116.56 80.2194L116.429 82.9321L115.797 85.297L115.471 87.4498H107.937L109.642 76.8488L110.274 75.1961L110.694 71.7495L110.639 66.0141L112.088 64.0135L111.805 62.1814L112.224 60.681L112.818 57.0984L113.145 48.5796L115.443 47.9544H119.256L121.582 48.8188C121.582 48.8188 122.366 48.5578 122.759 48.8188C123.156 49.0797 124.071 47.9544 124.071 47.9544H124.698L126.446 58.8815L126.424 61.6323L126.817 64.1168L126.686 66.0195L127.546 67.3569L127.802 69.7598L128.576 74.3481L128.946 74.5601L131.005 87.4498H129.802L129.791 87.4552ZM121.653 71.4668L120.182 61.7682L119.441 62.725L118.755 62.513L118.973 63.3067L117.851 72.3964L121.658 71.4613L121.653 71.4668ZM101.357 79.0614L101.559 71.407L102.18 47.9544H99.6089L98.1164 48.8568L95.8832 48.6774L94.7611 47.9435L94.2654 48.2914L94.1347 66.2804L94.5595 67.1122L93.5845 68.2158L93.5954 87.4335H96.5531V86.8626L97.8441 86.6017L98.623 86.0798L99.9248 87.4443H102.817L104.31 86.8246L105.764 87.5313V80.0182H102.109L101.368 79.0723L101.357 79.0614ZM86.4109 79.2463L86.5416 71.3961L87.3477 66.5631L86.6451 65.2312L87.0373 62.2901L87.217 48.2153L84.5916 47.9381L82.8649 48.6611L79.7383 47.9381L79.2372 48.286L79.1064 66.275L78.5617 68.1288L78.5454 87.2649H79.515L80.234 86.6397L81.4868 87.3954L83.1808 87.428L84.8966 87.2704H87.7944L90.5506 87.5259V84.9545L89.837 83.0789L90.5506 81.7416V80.0073H86.9773L86.4054 79.2571L86.4109 79.2463ZM64.4922 85.9711L63.9638 87.428H56.8228L56.5886 86.705C56.2073 85.5634 56.0003 84.7968 56.0058 81.7796V75.8268C56.0112 72.69 55.0743 72.043 53.2224 72.043H52.2419L51.4739 86.7702L44.2948 87.3791V79.0016L44.8449 77.5718L44.3057 76.191V75.1146L44.5399 73.8588L44.5943 72.7443L44.3983 71.6842L44.4636 70.8144L44.3329 69.9065L44.1531 58.6804C44.0878 58.626 44.7741 56.9135 44.7741 57.006C44.7741 57.006 44.6978 55.5327 44.7305 53.5049C44.7305 53.5049 44.5017 49.6288 44.6216 48.5959C44.6761 48.1011 48.5325 48.1066 48.5325 48.1066L49.9433 48.8514L54.2573 47.9381C60.7556 47.9598 63.9148 51.1183 63.9148 57.5931V60.5287C63.9148 63.97 62.9289 66.5033 61.0007 68.0799C62.0683 68.9062 62.8254 70.0261 63.3102 71.4559L63.5716 72.3529C63.8277 73.4293 63.9529 74.6579 63.9529 76.0714V81.8449C63.9529 83.541 63.9856 84.7533 64.5031 85.9819L64.4922 85.9711ZM55.9622 58.1639C55.9622 55.5708 55.0852 55.3642 54.0231 55.3642H52.2474L52.2419 63.9754L53.5328 64.7528C55.0689 64.7474 55.9568 64.2581 55.9568 61.8498V58.1639H55.9622ZM66.6111 58.3868L67.0795 59.7242L66.9052 67.1122L67.0686 70.2708L66.8725 71.0754L66.6056 71.8582V82.1384L66.8834 82.3559L66.7745 87.5476L69.6723 87.428H75.6313V80.339L75.3916 79.9204L75.1247 78.8548L75.2827 77.6915L75.4679 75.3266L75.3045 73.7718L75.4951 73.0868L75.6422 72.7606L75.6531 58.4357L75.2881 58.3759L75.6585 57.3267V47.9381L67.0795 48.0522L66.622 58.3922L66.6111 58.3868ZM19.5437 82.1058L19.9522 81.1653L19.865 79.7682L19.7343 77.648C19.7343 77.648 19.7452 77.3326 19.7452 77.2402V69.5858L19.7071 69.5423C19.4674 68.7377 18.3562 66.6066 18.3562 66.6066H13.0291L10.42 66.3511L10.1476 72.94L13.7317 72.9237L13.6718 74.2285C13.906 75.2668 13.0509 78.9201 12.7131 79.5507C12.6151 79.6812 12.5225 79.7247 12.3591 79.7247C12.2883 79.7247 12.2229 79.7138 12.163 79.6975L11.7109 79.6051L11.3405 79.8769C11.0409 80.0943 10.6106 80.2031 10.0659 80.2031C9.52121 80.2031 7.87622 79.4474 8.06142 77.6099V71.5809L7.9089 71.1786L7.78362 67.9875L7.76728 67.9059C7.75094 67.819 7.74004 67.7048 7.74004 67.6232C7.81085 67.5471 7.87077 67.4547 7.93069 67.3569L8.06686 67.1177V57.3865C8.07776 56.1851 8.33921 55.3914 8.86212 55.038L9.20528 54.8042L9.24886 54.826L9.57568 54.777C9.73909 54.7553 9.90794 54.739 10.0822 54.739C10.2566 54.739 10.4417 54.7553 10.6052 54.7825L10.8285 54.8205L10.9973 54.8858C11.2969 54.9945 12.0922 55.2935 12.0867 57.044V62.1053L14.9246 62.4587L15.7852 61.9911L16.7221 62.4587L19.2985 62.002L19.5382 57.555C19.5382 52.4013 17.6753 50.0528 15.6382 48.7698L12.3319 47.5195C11.5693 47.3781 10.7631 47.3074 9.91884 47.302C7.27705 47.302 5.1146 47.987 3.4914 49.2754L2.1351 51.6022L1.74291 52.3905L1.59584 53.1081L0.185075 55.8969C0.119712 56.4949 0.0706887 57.1093 0.0706887 57.7616L-0.00012207 60.0069C0.0543478 60.333 0.381167 71.9669 0.381167 71.9669L0.179628 74.6416L0.0597948 77.2402C0.0597948 78.9418 0.48466 79.6159 0.702539 80.4151C0.991229 81.4643 1.22 82.4592 2.58175 83.4486L3.75285 85.9548L3.76374 85.9819L4.72786 85.6775L4.78778 86.7104L4.82591 86.6234C6.24757 87.3465 7.94703 87.7107 9.89705 87.7107C12.1739 87.7107 13.089 85.3296 14.6305 84.3565L16.2591 86.7865L18.2309 87.939L20.5731 87.3302L20.181 84.6446L19.5546 82.1275L19.5437 82.1058Z" fill="white"/>
</g>
<defs>
<clipPath id="clip0_21_2249">
<rect width="131" height="110" fill="white"/>
</clipPath>
</defs>
</svg>
