<svg width="48" height="54" viewBox="0 0 48 54" fill="none" xmlns="http://www.w3.org/2000/svg">
<g clip-path="url(#clip0_21_63)">
<path d="M29.8018 1.69983C29.6545 1.69983 29.5609 1.72586 29.5073 1.76491C29.6412 1.79094 29.7616 1.79094 29.8018 1.69983Z" fill="#C31211"/>
<path d="M6.50075 8.33783C6.50075 8.24672 6.50075 8.16862 6.44721 8.07751C6.43383 8.14259 6.44721 8.27275 6.50075 8.33783Z" fill="#C31211"/>
<path d="M46.893 24.1128C46.6253 24.204 46.8394 24.6465 46.5851 25.0109C46.371 25.1151 46.197 24.8938 46.0766 24.5424C45.9561 24.1909 45.9026 23.7094 45.916 23.1757C46.2104 23.397 46.1301 22.3167 46.2639 21.6268C46.545 21.3926 46.5718 21.8351 46.5316 22.3948C46.4915 22.9544 46.3576 23.6052 46.5048 23.8265C46.6654 23.1627 46.7993 22.4989 46.8662 21.8091L46.7457 22.2386C46.6387 21.4967 46.4781 20.7808 46.2372 20.104C46.4915 21.5618 45.6081 20.8329 45.5011 20.2602C45.5011 19.9739 45.4743 19.6745 45.4609 19.4012C45.3672 18.3729 45.1665 17.5269 45.675 17.4748C45.0728 17.5009 44.3233 15.926 43.3597 15.093C44.0155 16.2514 43.0518 15.4964 42.6503 15.3663C42.3826 14.7806 42.048 14.1949 41.6465 13.6352C43.4132 14.8847 41.6733 12.9454 42.3023 12.9584C43.2526 12.8933 44.1359 14.1428 44.7649 15.1711C44.5107 13.8825 43.7076 13.3228 42.9314 12.9584C42.1283 12.5809 41.3655 12.3987 40.5758 11.6568C40.6963 11.4095 41.071 11.2143 41.8473 11.8C41.7536 11.6178 41.2183 11.4355 40.6294 11.2533C40.0672 11.0841 39.3713 10.8759 38.8493 10.5114C39.1036 10.8238 39.4917 11.5657 38.3006 11.3444C37.8991 10.954 37.4708 10.5895 37.0291 10.2381C36.989 10.2381 36.9756 10.2251 36.9354 10.2121C36.5205 9.76953 36.1592 9.58731 35.7309 9.89969C35.2357 9.52223 35.5435 9.22287 35.6506 8.87144C35.0751 8.65018 33.9776 8.24669 33.9107 7.45273C34.3925 7.71305 34.7271 7.94733 35.0751 8.27272C35.3294 8.03844 35.1554 7.68702 34.8743 7.29654C34.5799 6.90607 34.1784 6.50258 34.0579 6.08608C33.4557 5.83878 31.5819 5.13593 30.4711 5.05784C30.4309 5.76069 29.7617 6.22925 28.8383 6.24227C29.1862 5.98196 28.2895 5.30514 27.9416 4.81054C28.41 4.60229 27.3125 3.33977 28.4769 3.76928C28.691 4.12071 28.5171 4.68038 29.0256 4.77149C29.0524 4.25087 28.6241 3.44389 28.0219 2.71501C28.1691 2.54581 28.7178 2.51978 29.1193 2.74104C28.7981 2.78009 28.865 2.96231 28.8115 3.13151C30.4845 3.48294 29.0256 2.11629 29.4673 1.77788C28.9855 1.67375 28.1557 1.15313 28.3966 1.7128C28.2226 1.06202 27.4865 0.931858 26.7772 0.853764C26.0678 0.762654 25.3451 0.840748 24.9704 0.307104C24.9168 0.398214 25.3719 0.853764 24.6759 0.957889C23.7123 0.840748 23.8595 0.437261 23.4848 0.163931C23.1368 0.411229 21.6646 0.502339 21.8252 0.385198C21.2095 0.632497 22.4274 1.40042 21.5843 1.84296C21.0489 2.54581 20.2994 1.93407 19.6972 2.22041C18.8941 1.82994 20.3931 1.76486 20.7277 1.56963C19.9782 1.67375 19.2956 1.90804 18.5997 2.10327C17.9037 1.85597 18.7603 1.38741 19.4295 1.40042C18.4659 1.03598 17.4219 1.69979 17.3416 2.31152C16.7929 2.31152 16.5787 2.50676 16.0434 2.44168C16.4047 1.99915 16.0568 1.02297 16.8464 0.671544C18.1982 0.424245 16.552 1.51757 17.703 1.41344L17.6762 0.814717C18.2249 1.03598 18.5462 0.541387 19.0949 0.437261C19.4161 0.554402 19.0547 0.658528 18.8674 0.762654C19.8444 0.567418 20.634 0.853764 21.4237 0.189962C19.9514 -0.408761 17.9974 0.645512 17.3148 0.137899C16.4851 0.593449 15.7489 1.11408 15.053 1.64772C15.1601 1.90804 16.0969 2.05121 15.6017 2.64993C15.0931 2.06423 14.2901 2.02518 13.38 2.31152C13.7012 2.58485 13.4336 2.88422 13.1926 3.17056C12.9651 3.46992 12.751 3.73024 13.0856 3.89944C13.2596 3.3658 13.7414 3.84738 13.8217 3.87341C13.099 4.2769 14.0492 4.55023 13.6745 4.78451C12.3093 5.34419 13.4871 4.31594 12.0684 4.79753C12.1353 4.35499 12.4565 3.2877 13.1123 2.59787C12.8848 2.31152 12.3495 3.05342 11.8275 2.89723C12.4833 3.00136 11.881 3.69119 12.3361 3.63913C11.3725 4.51118 10.73 5.95592 9.77979 6.94512C9.16413 5.95592 11.1449 4.81054 9.99393 4.01658C9.45858 4.58927 9.83332 5.03181 9.31136 5.31815C8.45479 5.08387 7.91944 6.37243 7.23687 7.07528C7.42424 7.04924 7.61162 7.02321 7.79899 7.0102C7.71869 7.45273 7.11642 7.81717 6.76844 8.0905L6.72829 7.90828L6.60783 8.36383C6.54092 8.38986 6.50076 8.37685 6.474 8.36383C6.46061 8.94954 5.4033 9.65239 5.09547 10.5375C5.5639 10.8368 5.60405 9.80858 5.93865 9.50921C6.11264 9.48318 6.80859 9.0016 6.87551 9.54826C6.19294 10.3943 6.34016 11.3705 5.72451 12.3597C5.83158 12.2816 5.93865 12.1905 6.0591 12.1124C6.20632 12.62 5.80481 12.9714 5.5639 13.466C4.73411 14.2079 5.20254 12.4638 4.62704 12.8673C4.38613 12.2685 5.22931 11.8911 4.66719 11.4355L3.63664 11.6828C3.77048 12.4247 2.82023 12.6981 2.78008 13.1016L3.26189 12.8673C3.78386 13.1927 3.20836 13.3489 3.04775 13.492L3.97123 13.5962C4.31921 13.1536 3.85078 12.4117 4.53335 12.2425C4.25229 13.3489 5.02855 13.4269 4.56012 14.5203C4.21214 14.4422 4.53335 14.26 4.34598 14.0517C3.95785 14.338 4.43966 15.0018 3.95785 15.5225C3.87755 15.106 3.78386 14.3901 3.15482 14.6895L3.66341 15.2622C3.44927 15.5095 3.24851 15.3142 3.18159 15.4184C2.90053 15.7958 3.87755 15.5485 3.47603 16.1472C3.31543 16.1993 3.10129 16.3815 2.99422 16.2383C2.73993 16.9933 3.0879 16.6679 3.19497 17.4618C3.38235 16.8371 4.37275 17.1104 4.29244 17.7482C3.95785 18.6072 4.35936 19.31 3.4225 19.7656L3.77048 20.2342C3.19497 19.8697 3.44927 20.7548 3.31543 21.0151C2.5927 21.0151 3.55634 19.6875 2.45887 19.4793C2.23134 20.065 1.9369 19.7396 1.68261 19.4793C1.65584 20.1691 2.4321 19.8697 2.82023 20.2342C2.52579 20.1951 2.56594 21.3145 2.0172 20.8459C1.89675 21.4056 2.57932 21.5878 2.40533 21.9653C2.13766 21.8741 1.78968 21.757 1.42832 21.757C1.65584 21.8351 1.30786 22.3297 1.2811 22.4338C1.42832 22.3557 1.84321 22.6811 1.70938 22.1865C2.24473 22.3557 1.61569 23.3189 2.08412 23.3319C1.45508 23.3319 1.86998 24.3471 1.60231 24.8157C3.07452 24.8417 1.09372 23.8656 2.31165 23.7744C2.75331 24.4513 2.24473 25.9611 2.91392 26.9763C2.63286 27.8614 2.3518 26.9763 1.80306 27.1585C1.57554 26.3255 1.99044 26.1303 1.76291 25.4014C1.46847 26.1954 1.62907 27.4839 2.11089 28.0436C2.19119 28.8766 0.665443 29.0198 1.06696 30.022C1.53539 29.8658 1.65584 29.8788 1.81645 29.5664C1.99044 29.8267 1.84321 30.1521 1.8566 30.4385C2.16442 30.5947 2.20458 29.9829 2.48563 30.3604C2.40533 30.5166 2.36518 30.855 2.03059 30.8029L1.97705 30.7378C2.45887 31.662 0.866199 31.4928 1.82983 32.2477C2.05735 32.1696 1.74953 32.0134 1.88337 31.8051C2.24473 31.6359 2.79346 32.0915 2.98083 32.4559C2.64624 32.4169 2.94068 32.7813 2.847 33.0416C2.31165 33.2499 2.64624 32.4169 2.27149 32.2997L2.24473 33.0156L2.32503 32.8594L2.91392 33.5883C2.69977 33.0677 3.56972 33.2759 3.65002 33.5102C3.5831 34.0569 3.51618 34.5905 2.91392 34.5775C3.52957 34.5905 3.55634 35.2543 3.73032 35.7099C3.90431 35.1762 4.23891 35.5927 4.45305 35.7359L3.9177 36.5819C3.66341 35.7489 3.39573 36.8162 2.95407 36.66C2.29826 36.4778 2.56594 35.9181 2.61947 35.4886C1.57554 36.4387 3.3422 36.647 2.88715 37.48C2.60609 37.519 2.27149 37.48 2.29826 37.1286C2.12427 37.2848 2.9273 37.7924 2.68639 38.3911C2.86038 38.2089 3.36896 37.8314 3.69017 38.339C3.48942 38.6124 3.30204 38.8857 3.12806 39.172C3.14144 40.0701 3.9177 39.3412 4.37275 39.979L4.74749 39.4323C5.34976 39.3803 4.94825 40.3565 5.61744 40.2133C5.53713 39.7968 4.97501 39.6666 5.0687 39.1981C5.68435 38.9117 5.52375 39.6796 5.92526 39.8488C5.87173 40.799 5.80481 40.6168 5.52375 41.4498C4.54673 41.8012 3.94446 40.6168 2.71316 41.0853C3.14144 42.0745 4.02477 43.4672 4.06492 44.3263C4.85456 45.1462 5.51037 44.6256 5.93865 44.2351C6.23309 44.5215 6.27324 44.7297 6.30001 45.0291L5.76466 44.8078C6.74167 45.6799 7.49116 46.0183 8.41464 46.9034C9.08383 47.2418 9.24444 46.578 9.43181 46.1354L10.0608 46.4738V46.3046C10.5427 45.9142 10.8773 46.3567 11.2386 46.591C11.2119 46.6431 11.1851 46.6951 11.1583 46.7472C11.0245 46.8253 10.8639 46.8123 10.8103 46.9294C10.8237 46.9684 10.8639 46.9945 10.8906 47.0205C10.8639 47.0335 10.8371 47.0726 10.797 47.0726C10.4757 47.0465 10.6497 46.604 10.2884 46.9424C10.4891 47.0986 10.2884 47.2288 10.5427 47.424L10.1545 47.3719C11.1851 47.6062 11.3858 48.4522 11.0914 49.0379C12.1353 49.1551 10.8505 48.231 11.6669 48.3351C11.6937 48.8167 11.5063 48.9859 11.9078 49.1551C11.9212 49.09 11.948 48.9599 12.0149 48.9468C12.1219 48.9859 12.2022 49.09 12.3093 49.1291L11.9078 49.7408C12.3629 49.6237 12.4298 50.743 13.2462 50.5608L13.1257 50.6649C13.4737 51.0163 14.1295 49.897 14.6113 49.8319C14.6247 49.8319 14.6381 49.8449 14.6515 49.8579C14.4106 50.0922 14.3169 50.3786 14.1964 50.6779C14.5712 50.4567 14.4373 51.0424 14.5979 51.3157C14.5043 50.8211 15.0931 50.6909 14.9995 50.4046C15.0262 50.3525 15.053 50.3135 15.0664 50.2744C15.1467 50.3916 15.2136 50.5217 15.2805 50.6909C15.1199 50.756 14.9861 50.8601 14.9727 51.3027C15.1734 51.4719 15.4277 51.0294 15.3474 50.8081C15.6017 51.0163 15.9899 51.2897 16.0166 51.8884C16.6055 51.3417 16.6323 51.7582 17.1275 50.9513C16.9401 50.9382 16.7126 51.563 16.5921 51.1465L17.0606 50.5868C17.3951 50.6389 17.4888 51.2897 17.6896 51.4328L17.3684 51.6541L17.4085 51.55C17.2345 51.8103 16.9669 51.55 16.8464 52.0446C17.2613 51.5109 17.2613 52.1487 17.6762 51.7973L17.6361 51.9014C18.2785 51.5239 18.2919 53.1249 18.9075 51.9014C18.8138 51.9014 18.7335 51.3678 18.854 51.1335C18.8941 51.4719 19.2153 51.4198 19.135 51.7973L19.0012 51.9014C19.2689 52.0576 19.4295 52.1617 19.5499 52.0446C19.7105 51.602 19.6972 51.2246 19.9381 51.0163C20.3663 51.3808 19.5499 52.0576 19.8176 52.5001L20.3663 52.0836L20.4065 52.5131C21.0623 53.0338 21.7315 51.6801 22.4141 51.7322C22.3739 52.4611 21.8386 52.7084 21.6512 52.7344C21.8252 53.3852 22.2133 52.5522 22.481 53.0077C22.7487 53.1249 22.9896 52.5001 22.9762 52.0966C23.3108 51.8493 23.1903 52.5262 23.2305 52.6563C23.3643 51.8754 23.7658 52.1617 24.0335 51.9925V52.435L24.4484 51.8884C24.3413 51.8493 24.4484 51.4459 24.4484 51.1725L24.5555 51.2116C24.1941 50.0011 23.6721 52.0576 23.3108 50.6649C23.4312 50.4957 23.284 50.2614 23.4178 50.0922C23.5115 50.1443 23.5383 50.2094 23.5383 50.3786C23.6052 50.0141 23.7792 49.7017 23.5651 49.7278C23.6052 48.8037 23.9933 49.0379 24.261 48.7256C24.4752 49.3243 24.0335 49.6106 23.8997 50.0532C24.0067 49.9881 24.1004 49.5846 24.2476 49.8189L24.2075 50.5217C24.5956 50.1443 24.3146 49.91 24.4082 49.2332C24.5019 48.3351 24.7428 49.2722 24.8499 49.2071L24.7428 49.3764C25.0373 49.6757 25.0908 48.9208 25.3585 48.9729L25.5057 49.5195C25.1444 48.8297 25.1176 50.5087 24.9034 50.1573C25.4254 50.7951 24.8231 51.602 24.6625 52.2008C24.8901 52.0706 25.1042 52.1487 25.238 52.5262C25.5459 51.602 25.9875 52.8385 26.2552 51.7322C26.456 51.8493 26.1214 52.2268 26.3221 52.2398C26.6969 52.3049 27.085 52.1357 27.433 51.6932C27.6471 51.6932 27.6471 52.0055 27.7408 52.2919C28.8517 52.5652 28.9453 50.8601 30.1633 50.9773L30.0963 51.3938C30.364 51.4068 30.6183 51.4719 30.5915 50.9513C31.2875 52.0185 31.3946 49.923 32.2645 50.9773C32.9203 50.9643 32.5188 50.0011 32.8266 49.6367C32.9471 49.884 33.0542 50.4046 33.3352 50.4176C34.5398 49.3633 35.7175 48.4392 36.7347 47.0986C36.8016 47.1767 36.815 47.3069 36.815 47.3589C37.6983 46.63 37.3236 45.1462 38.0597 44.7428C38.0061 44.5215 38.0061 44.0529 37.5109 43.9098C37.3637 44.0139 36.8284 43.7145 36.4938 43.4932C36.4403 43.2459 36.5205 43.1809 36.6544 43.1939C36.6812 43.2459 36.6945 43.285 36.7213 43.324C36.7213 43.285 36.7748 43.259 36.8418 43.2329C37.1228 43.324 37.444 43.5063 37.4842 43.272C38.3809 43.6234 37.9125 43.8056 38.6352 44.2221L38.421 43.3891C38.8493 43.2329 38.5281 42.6993 39.0501 42.6342C38.9029 42.6993 39.6791 42.9726 39.2508 43.0117C39.2241 42.9596 39.1572 42.9596 39.1304 42.9075C38.8359 43.311 39.4114 43.3501 39.3847 43.8577C39.3847 43.3761 39.3981 42.8034 39.7193 42.5691C39.0902 42.3739 39.5854 42.2047 39.2375 41.9574H39.3044C39.1973 41.9183 39.1304 41.8403 39.0769 41.7752C39.1572 41.7231 39.2241 41.6841 39.291 41.632L39.6925 41.7491C39.6657 41.632 39.4917 41.619 39.3713 41.5669C39.3713 41.5669 39.3981 41.5409 39.4114 41.5409C39.7059 41.3066 39.8665 41.1114 39.7594 41.0072C40.0003 41.2155 40.5223 40.812 41.0041 40.1742C41.4859 39.5365 41.9142 38.6904 42.289 38.1568C41.6331 37.7794 41.5395 38.4041 41.3387 39.0419C41.1781 39.6406 40.9104 40.2523 40.442 40.0961C40.6026 39.7187 40.6695 39.2762 41.1647 39.0419C41.1246 38.8857 41.0978 38.7425 41.0576 38.5993C41.3387 38.0397 41.6331 37.3889 41.9142 36.673C42.048 36.3216 42.1819 35.9571 42.3157 35.5797C42.4362 35.2413 42.5968 34.7727 42.6503 34.5515C42.7842 34.0438 42.8645 33.5362 42.8645 33.0546C43.6541 31.662 43.3998 33.2369 44.0288 33.1067C43.7344 34.6165 43.3195 34.5124 42.7708 36.5949C43.0251 36.1394 43.3195 35.5146 43.5336 34.968C43.6942 34.5775 43.8415 34.148 43.9619 33.7315C44.2028 32.8854 44.3233 32.0654 44.2698 31.5188C44.6847 30.074 46.2104 30.3604 46.3978 28.4861C45.8758 28.5903 45.7821 28.5252 45.4341 29.0198C45.4074 28.5122 45.742 28.0045 45.8892 27.4969C45.6884 27.1065 45.3137 28.1868 45.2601 27.4058C45.4208 27.1585 45.6483 26.5858 45.9293 26.7811V26.9112C45.9829 25.089 47.3882 26.0522 46.9064 24.1389L46.893 24.1128ZM38.1935 19.3621C38.1935 19.3621 38.2471 19.3231 38.2872 19.31C38.421 19.271 38.5147 19.258 38.595 19.258C38.4612 19.284 38.3274 19.3231 38.1935 19.3621ZM14.7987 39.6666C14.4106 39.94 14.1563 40.2003 13.8752 40.2784C13.8886 40.1352 14.0492 40.0181 14.2366 39.9139C14.2232 39.992 14.2366 40.0441 14.4909 39.8749C14.4641 39.8489 14.4373 39.8358 14.424 39.8098C14.6782 39.6666 14.9325 39.4974 15.0664 39.3543C14.9058 39.4193 14.7184 39.4454 14.531 39.4454L14.879 39.185C14.879 39.185 14.879 39.12 14.879 39.0939C14.9325 39.0679 14.9727 39.0289 15.053 39.0028C14.9727 39.0289 14.9192 39.0419 14.879 39.0419C14.879 39.0158 14.8388 38.9898 14.8121 38.9638C14.879 38.8466 15.0798 38.6644 14.5846 38.8336C14.8388 38.7685 14.8255 38.8336 14.7452 38.9117C14.6381 38.8466 14.4775 38.7946 14.3035 38.7295C13.9288 38.5733 13.4737 38.326 13.38 37.8705C13.8752 37.7794 14.2366 37.9876 14.4373 38.1568C14.3972 38.2219 14.3704 38.313 14.3838 38.4822C14.4373 38.3781 14.5043 38.313 14.5578 38.2739C14.5846 38.3 14.6113 38.326 14.6247 38.352C14.6916 38.313 14.7452 38.2609 14.7719 38.2219C15.1467 38.2479 15.6151 38.8597 16.1237 38.9638C16.0166 39.2762 15.6553 38.8466 15.3876 38.9638C15.401 39.0939 15.4411 39.185 15.4813 39.2762C15.4545 39.2501 15.4277 39.2241 15.401 39.2111C15.2671 39.4323 15.4277 39.6536 15.6151 39.8749C15.5883 39.8749 15.5482 39.9139 15.4813 39.966C15.4813 39.966 15.4813 39.966 15.4679 39.966L15.5214 39.8749C15.2805 40.0571 15.334 39.7577 15.3608 39.6146C15.4144 39.4323 15.4411 39.3803 14.9325 39.8488C14.9727 39.8488 14.7853 40.1612 14.6247 40.3695C14.5979 40.3304 14.6113 40.2914 14.5979 40.2523C14.5979 40.1482 14.5979 40.0831 14.7853 39.9009L14.9058 39.8358C14.9058 39.6796 14.9058 39.6276 14.7987 39.6666ZM17.7431 45.9272C17.7431 45.9272 17.7699 45.8621 17.7833 45.8231C17.81 45.8231 17.8234 45.8231 17.8502 45.8231C17.81 45.8621 17.7699 45.9012 17.7431 45.9402V45.9272ZM18.7335 21.4056C18.68 21.4967 18.6131 21.6008 18.5595 21.7049C18.5328 21.744 18.5194 21.783 18.4926 21.8221C18.4391 21.8221 18.3855 21.8221 18.3454 21.77C18.3588 21.8481 18.3722 21.9262 18.3855 22.0043C18.3855 22.0043 18.3722 22.0303 18.3588 22.0433C18.3186 22.1214 18.3186 22.1605 18.3186 22.2256C18.3186 22.2256 18.3186 22.2516 18.3186 22.2646C18.2919 22.2776 18.2517 22.2906 18.2116 22.3037C18.2249 22.1735 18.2785 22.0564 18.1446 21.9653L18.0777 22.2646L17.877 22.0694C17.7431 22.1214 17.7164 22.2516 17.7297 22.4338C16.9133 20.8199 18.4926 21.4967 18.2651 20.5205C18.3588 20.4945 18.4257 20.4815 18.4926 20.4815C18.5729 20.8069 18.6532 21.1322 18.7335 21.4316V21.4056ZM11.2386 36.3476C11.078 36.2956 10.9709 36.3086 11.0111 36.5298C10.0608 36.621 10.1947 35.7879 9.81994 35.2283C10.3821 34.7076 10.7836 35.6318 11.252 35.814C11.1583 35.6057 10.73 35.4756 10.9442 35.1241H11.1717C11.3725 35.2934 11.5866 35.4495 11.774 35.5797C11.4528 35.6318 11.3323 36.0352 10.9843 36.0743C11.0646 36.1784 11.1449 36.2695 11.2252 36.3346L11.2386 36.3476ZM9.88686 32.7943L10.4356 32.482C10.0207 32.9635 10.5427 33.1588 10.904 33.341C11.2654 34.148 10.9442 34.6295 10.6363 34.6686C10.7033 34.7207 10.7568 34.7727 10.8237 34.8378C10.6765 34.8768 10.5159 34.9029 10.3018 34.8638C9.36489 34.7207 10.275 34.1219 10.1947 33.9007L10.3954 34.1349C10.6497 33.4711 9.87347 33.38 9.88686 32.8073V32.7943ZM12.0283 36.8032C11.8275 36.6079 11.6267 36.9333 11.426 36.7381C11.426 36.634 11.4661 36.5819 11.5197 36.5429C11.7338 36.647 11.948 36.686 12.1353 36.7251C12.0952 36.7511 12.0684 36.7771 12.0283 36.8032ZM28.9855 41.4498C28.9855 41.4498 29.0256 41.3977 29.039 41.3717C29.039 41.3847 29.0658 41.4107 29.0658 41.4238H28.9855V41.4498ZM14.6916 37.9095C14.6247 37.8444 14.5578 37.7663 14.531 37.6752C14.5578 37.6882 14.5846 37.7013 14.6247 37.7143C14.6916 37.8184 14.705 37.8705 14.6916 37.9095ZM15.7489 40.0181C15.8159 40.0961 15.8694 40.1742 15.9229 40.2523C15.8025 40.3174 15.6553 40.3955 15.5482 40.4606C15.508 40.4085 15.4813 40.3434 15.4411 40.2654C15.5482 40.1742 15.6419 40.0961 15.7489 40.005V40.0181ZM29.6814 41.0723C29.6814 41.0723 29.6547 41.0723 29.6547 41.0853C29.6279 41.0723 29.6011 41.0333 29.5744 41.0203C29.6145 41.0333 29.6547 41.0593 29.6948 41.0723H29.6814ZM15.4277 40.2784C15.4277 40.2784 15.4947 40.4085 15.5348 40.4606C15.4679 40.4996 15.4144 40.5126 15.3876 40.5126C15.3876 40.4476 15.3608 40.3955 15.3608 40.3434C15.3876 40.3174 15.4144 40.2914 15.4411 40.2784H15.4277ZM16.0434 46.2396C16.1103 46.2005 16.1906 46.1485 16.2575 46.0964C16.1371 46.2786 16.0702 46.3046 16.0434 46.2396ZM18.5997 44.7818C18.5997 44.7818 18.5863 44.8729 18.5997 44.912C18.5729 44.951 18.5462 44.964 18.5328 45.0031C18.5328 44.8859 18.5729 44.8078 18.6131 44.7818H18.5997ZM38.4612 18.6983C38.3675 19.1799 37.9392 19.1148 37.5243 19.0758C37.618 18.5031 38.1534 18.5551 38.3541 18.7504V18.6332C38.3541 18.6332 38.421 18.6723 38.4478 18.6853L38.4612 18.6983ZM37.4574 19.0758C37.2567 19.0628 37.0693 19.0627 36.9221 19.1539C37.1094 19.2059 37.5511 19.0367 37.5645 19.4142L36.9622 19.8177C37.0425 19.8437 37.0827 19.8307 37.1362 19.8437C37.0961 19.9088 36.9221 19.9739 36.7347 20.0389C36.641 19.9608 36.4804 19.9348 36.3466 19.9218C36.5072 19.5964 36.6678 19.297 36.9354 19.7135C36.9756 19.3491 36.8551 18.9196 36.6276 18.7504C36.6945 18.6723 36.7079 18.6072 36.5473 18.5291C36.5741 18.477 36.6142 18.438 36.6544 18.3989C36.9221 18.5031 37.27 18.8285 37.4574 19.0627V19.0758ZM11.0111 47.6973C10.9977 47.6192 11.0646 47.5411 11.0512 47.45L10.623 47.398C10.7434 47.3069 10.8773 47.2288 11.0111 47.1507C11.2922 47.398 11.6937 47.5021 12.0149 47.411C11.9747 47.45 11.9346 47.4891 11.9078 47.5411C11.9346 47.5151 11.9613 47.5151 11.9881 47.5021C11.8141 47.7494 11.3457 48.0748 11.0245 47.7103L11.0111 47.6973ZM11.9346 48.5824L11.6535 48.2961C11.6535 48.2961 11.7338 48.296 11.8007 48.3091C11.8409 48.4002 11.9078 48.4522 11.9613 48.5303C11.948 48.5434 11.948 48.5694 11.9212 48.5824H11.9346Z" fill="#C31211"/>
<path d="M36.815 43.4282C36.815 43.4282 36.7213 43.324 36.6946 43.272C36.6946 43.324 36.6946 43.3631 36.815 43.4282Z" fill="#C31211"/>
<path d="M14.62 48.2353C14.62 48.2353 14.6469 48.2353 14.6604 48.2487C14.7008 48.2353 14.7411 48.2218 14.7681 48.2084L14.62 48.2353Z" fill="white"/>
<path d="M22.1325 49.7368C22.1325 49.7368 22.1594 49.7368 22.1729 49.7368C22.1729 49.7234 22.1729 49.71 22.1325 49.7368Z" fill="white"/>
<path d="M4.05139 34.9355C4.05139 34.9355 4.011 34.8417 3.98408 34.8149C4.011 34.8551 4.02447 34.8953 4.05139 34.9355Z" fill="white"/>
<path d="M22.5228 3.26835C22.5228 3.26835 22.5094 3.26835 22.4825 3.26835C22.5094 3.26835 22.5363 3.28176 22.5632 3.29517L22.5094 3.26835L22.5228 3.26835Z" fill="white"/>
<path d="M22.3613 3.29519C22.1862 3.25497 22.4151 3.25497 22.4824 3.26837C22.2939 3.21475 22.1055 3.20134 21.9035 3.20134C21.9035 3.24156 22.267 3.26837 22.3478 3.30859L22.3613 3.29519Z" fill="white"/>
<path d="M44.1985 13.3236L44.1716 13.2566C44.1716 13.2566 44.1985 13.2968 44.1985 13.3236Z" fill="white"/>
<path d="M2.51648 36.4907C2.51648 36.4907 2.47609 36.4237 2.46263 36.3835C2.48955 36.4371 2.50302 36.4773 2.51648 36.4907Z" fill="white"/>
<path d="M42.5562 9.85122L42.4754 9.85122C42.4754 9.85122 42.5427 9.86463 42.5562 9.85122Z" fill="white"/>
<path d="M29.2545 49.643C29.2545 49.643 29.2814 49.6698 29.2949 49.6832L29.3083 49.6832L29.241 49.643L29.2545 49.643Z" fill="white"/>
<path d="M46.0161 21.5018C46.0161 21.5018 46.0026 21.5018 45.9892 21.5152L46.0295 21.6627C46.0295 21.5823 46.0295 21.5287 46.0161 21.4884L46.0161 21.5018Z" fill="white"/>
<path d="M38.0997 46.184C38.0997 46.184 38.1132 46.1572 38.0997 46.1438C37.9651 46.2376 37.642 46.5326 37.1977 46.8409L37.2246 46.9214C37.5343 46.6935 37.8305 46.4521 38.0997 46.1706L38.0997 46.184Z" fill="white"/>
<path d="M45.0333 37.5501C44.8852 37.8987 44.7236 38.2339 44.5755 38.569C45.4776 35.1369 45.8411 33.5414 46.1642 30.5785L46.1642 30.7528C46.245 30.3104 46.0296 30.069 46.9181 25.323L46.9316 25.323C46.9316 25.1621 46.9047 25.1621 46.972 24.8269L46.8104 25.6447C46.8104 25.1487 46.77 24.7063 46.797 24.0359C46.8239 23.9018 46.8643 23.8482 46.8912 23.8348L46.9316 22.1992L47.0393 21.7031C46.9855 21.1936 46.77 21.435 46.8778 20.0943C46.7431 20.6037 46.77 19.4373 46.6893 19.5982C46.7027 19.5312 46.7297 19.3703 46.7431 19.2496C46.7027 18.4586 46.5277 16.957 46.4065 16.6085C46.4065 16.6085 46.4065 17.3861 46.3662 18.2709C46.3258 19.1558 46.2315 20.1345 46.1507 20.5501C46.1642 19.4507 46.1238 20.2552 46.0834 20.4831L46.1238 20.5501C46.0834 21.207 45.9892 21.207 45.9623 21.5422C45.9623 21.5422 45.9757 21.5422 45.9892 21.5288L45.9892 21.4886C45.9892 21.4886 46.0026 21.4886 46.0161 21.5154C46.043 21.5154 46.0565 21.5422 46.043 21.7165L46.043 21.6763C46.043 21.9578 46.0161 22.4271 46.0026 22.6282L45.9219 22.6282C46.0834 23.1242 45.5045 25.8861 45.4237 26.5296C45.2622 27.1731 45.2891 27.991 45.141 28.7954C44.9391 30.0824 44.9391 29.4255 44.7775 30.069C44.6159 30.8734 44.8987 29.9216 44.8583 30.2433L44.6025 31.1952C44.6833 30.6321 44.589 30.9271 44.5352 31.0209C44.4005 31.8656 44.037 33.1392 44.1447 33.4208C43.862 34.5201 43.7947 34.5067 43.687 34.9894C43.7543 34.8419 43.8485 34.5201 43.8755 34.5335C43.7139 34.9626 43.8485 34.7481 43.9024 34.5738C43.862 35.2843 42.7984 37.9791 42.8926 38.1534L42.8657 38.1534C42.9465 38.3411 43.1484 38.1266 43.0677 38.6093L42.9061 38.8908L42.8119 39.3734C42.6503 39.6684 42.6772 39.5075 42.6638 39.4941C42.4618 40.2583 41.9502 41.237 41.5059 42.0682C41.7752 41.8269 42.0175 41.5722 42.2733 41.3175C41.8694 42.028 40.9943 43.1944 40.9943 43.3821C40.8732 43.4894 40.7655 43.61 40.6308 43.7173C39.5134 44.8837 40.025 44.6558 39.5807 45.125L38.9345 45.6211L39.473 45.0446C38.8941 45.5809 38.6383 45.782 38.1132 46.1171C38.1132 46.1171 38.1671 46.0903 38.1805 46.0903L38.0997 46.1708C38.0728 46.278 37.8036 46.5998 37.3458 46.9216C36.713 47.3774 36.2418 47.8198 35.0436 48.2622L34.8147 48.5304C34.5185 48.6645 34.2089 48.7315 33.8992 48.8253L33.8588 48.7315C34.7474 48.4365 36.2688 47.5785 37.1977 46.8411L37.1977 46.7875C36.6457 47.2299 35.9591 47.6455 35.5687 47.8869C35.3533 47.9673 34.7878 48.1282 35.1244 47.8869L34.7878 48.1684C33.7377 48.6645 33.1722 48.8522 32.5933 49.0264C32.0144 49.2007 31.4085 49.3482 30.1834 49.5091L30.3988 49.5091C29.9276 49.6432 29.4429 49.7638 29.2948 49.6834C27.8273 49.8979 26.2656 49.8711 25.2963 49.737L25.0808 49.8577C24.7577 49.8577 24.3 49.6566 24.1384 49.8309L23.4518 49.8577C23.021 49.8309 22.7517 49.8845 22.2536 49.7772C22.2266 49.7772 22.1997 49.7638 22.1593 49.7504C21.1765 49.6163 22.1593 49.8845 21.0419 49.6968C20.6918 49.5627 20.6245 49.8175 20.0725 49.7236L19.5475 49.4689C18.5781 49.2275 18.3627 49.3884 16.9625 49.1337C16.3028 48.9326 16.0336 48.7047 16.4913 48.6645C15.8586 48.6779 16.1951 48.7181 15.4008 48.584C15.3066 48.4768 15.3873 48.4902 15.5758 48.4768C14.9161 48.2086 15.145 48.4097 14.6334 48.2488C14.4449 48.3159 14.2026 48.4499 14.041 48.3963L14.216 48.5036C13.6641 48.3695 13.0717 48.1416 12.5332 47.7528L12.587 47.7126C12.3851 47.6053 12.1831 47.4981 11.9946 47.364L11.9946 47.2701C11.7388 47.0958 11.4696 46.8947 11.2138 46.6802L11.308 46.7875C11.1195 46.6534 10.5406 46.144 10.2713 45.782L10.3117 45.782C9.59817 44.7496 8.84424 43.9988 8.02298 42.7118L8.21146 42.8324C8.02298 42.3498 8.00952 42.7922 7.74025 42.2291L7.82103 42.1487C7.41714 41.7465 7.49792 41.5186 7.36329 41.1566L7.3229 41.3845L6.99978 40.741C6.6632 40.0304 6.93246 40.2181 7.05363 40.2851L6.69013 39.8695L6.75744 39.7086C6.43432 39.4405 6.58242 39.3466 6.17852 38.7835C6.19199 38.7165 6.29969 38.8506 6.20545 38.6361L5.50536 37.7244L5.8958 38.2875L5.68039 38.2875C5.22264 37.7512 5.24956 37.4428 4.96684 37.0272L5.18225 37.3088C4.76489 36.5982 4.81874 36.5178 4.65718 36.0887C4.68411 36.2362 4.73796 36.4507 4.56294 36.1692C4.44177 35.9547 4.56294 36.0217 4.48216 35.8072C4.34753 35.8072 4.02441 35.3111 3.87632 34.8017C3.88978 34.8017 3.91671 34.8017 3.94364 34.8285C3.87632 34.7078 3.809 34.6676 3.74169 34.4397L3.93017 34.5067L3.63398 34.1447C3.5532 33.8498 3.2974 33.4744 3.40511 33.4878L3.49935 33.6353C3.24355 32.9247 3.00121 32.2141 2.81273 31.4902L2.92043 31.4231C2.69156 31.2488 2.69156 30.2299 2.50307 30.3506C2.50307 29.9216 2.13957 28.7417 2.40883 28.9428C2.26073 27.5217 2.0184 26.7307 2.30113 24.961C2.54346 24.3577 2.79926 22.6416 3.13584 21.5154C3.68783 19.3167 4.14558 17.8821 5.04762 15.7102C5.86887 14.5438 6.54203 12.5059 7.49792 11.2993L7.63255 10.8971C8.31917 10.1329 9.03272 8.752 10.0425 7.73307C10.2175 7.43812 10.3252 7.27723 10.379 7.21019C10.3387 7.26383 10.2579 7.31745 10.1906 7.30404C10.4733 7.00909 10.9714 6.35215 11.0387 6.48623L10.9849 6.58007C11.0387 6.71414 11.7523 5.61477 12.1427 5.36004L11.8735 5.44048L12.412 4.91761L12.2908 5.07849C13.3006 3.79142 14.2295 3.32219 15.2662 3.16131C16.3163 2.98702 17.4338 3.08086 19.0493 3.01383C18.6185 3.1479 19.6821 2.9602 19.709 3.13449C20.5034 3.38922 21.2034 3.18812 21.8631 3.17471C21.8631 3.17471 21.8631 3.1613 21.917 3.1479L23.0614 3.26856C22.3613 3.41604 23.9096 3.1613 23.2633 3.29537C26.2252 3.75121 30.1969 4.04616 33.5088 4.8908L33.3742 4.79695C34.2224 4.99805 35.2725 5.23938 35.8514 5.53433C36.4438 5.81588 37.2246 5.90973 37.467 6.00358C38.1671 6.20468 38.6383 6.68733 38.369 6.53985C39.0422 6.86162 39.7827 7.06272 40.5366 7.77329C40.6174 7.96099 41.1963 8.3632 41.681 8.81903C42.1791 9.26146 42.583 9.75752 42.5157 9.82455L42.5426 9.82455C43.2023 10.9507 44.0101 11.9697 44.1986 13.3774C44.1986 13.3774 44.1717 13.3506 44.1582 13.3104C44.5755 14.1684 44.8448 15.1471 44.8852 16.1794C45.141 15.9247 45.4237 15.6566 45.6661 15.3482C45.8949 14.3963 45.9623 13.3908 45.8545 12.3719C45.0333 9.77093 43.31 7.63922 41.1694 6.12424C39.5269 4.85058 37.6555 3.9389 35.7437 3.28197C33.3742 2.57139 31.0047 2.20941 28.6621 1.88765C26.306 1.56588 23.9499 1.32456 21.5804 1.15027L20.5572 1.2307C19.157 1.0296 17.6222 0.868718 15.8182 1.0296C14.9296 1.12345 13.9737 1.35137 13.1121 1.7938C12.2504 2.23623 11.5638 2.81272 10.958 3.349L11.0118 3.49648C10.3925 4.14001 10.3925 4.03275 10.2309 4.18023C7.52485 7.14316 5.28996 10.5753 3.58013 14.1416C1.92416 17.7212 0.645156 21.3679 0.160479 25.0548C-0.0414673 25.752 -0.00108127 27.9507 0.0123846 28.5272C0.389353 30.9539 1.15676 33.3671 2.08571 35.5257L2.03186 35.4452C2.17996 35.7804 2.34151 36.1156 2.50307 36.4373C2.50307 36.491 2.50308 36.491 2.47615 36.4641C3.09546 37.5501 3.90325 39.3064 4.58987 40.6337L4.53602 40.5667C5.58614 42.457 6.60935 44.3742 8.00952 46.1439C9.3693 47.9137 11.308 49.4555 13.4486 50.2063C15.5758 50.9973 17.7165 51.2788 19.8302 51.5604C21.9978 51.8553 24.1653 52.0162 26.4002 51.9894C30.52 52.0832 35.5956 50.7962 39.4461 47.5517C39.8634 47.3506 41.8964 45.3664 43.0946 42.9397C44.3467 40.5399 44.9525 37.9791 45.0468 37.5635L45.0333 37.5501Z" fill="white"/>
<path d="M46.8912 23.8481L46.8912 23.8883C46.8912 23.8883 46.9316 23.8347 46.8912 23.8481Z" fill="white"/>
<path d="M41.4655 42.1216L41.4924 42.0814L41.3174 42.2289L41.4655 42.1216Z" fill="white"/>
<path d="M44.5891 30.5381C44.4949 31.0743 44.4949 31.1011 44.5353 31.0341C44.5622 30.833 44.5891 30.6721 44.5891 30.5381Z" fill="white"/>
<path d="M46.824 19.2629C46.824 18.9679 46.7836 19.0752 46.7567 19.2629C46.7701 19.5712 46.7836 19.7723 46.7836 19.7723C46.7836 19.6249 46.8105 19.4104 46.824 19.2763L46.824 19.2629Z" fill="white"/>
<path d="M46.0835 20.4829L46.0296 20.389C46.0431 20.5633 46.0566 20.5499 46.0835 20.4829Z" fill="white"/>
<path d="M17 19.4161C17 19.4161 21.0833 18.9688 25.0417 18.9688C29 18.9688 33 19.4161 33 19.4161C35.7614 19.4161 38 21.4191 38 23.8898V31.0477C38 33.5185 35 35.5214 33 35.5214C33 35.5214 28.9166 35.9688 24.9583 35.9688C20.9999 35.9688 17 35.5214 17 35.5214C14.2386 35.5214 12 33.5185 12 31.0477V23.8898C12 21.4191 15 19.4161 17 19.4161ZM24.6668 23.5917C24.0226 23.0153 23 23.4725 23 24.3369V30.6006C23 31.465 24.0226 31.9222 24.6668 31.3459L28.1671 28.214C28.6113 27.8165 28.6113 27.121 28.1671 26.7235L24.6668 23.5917Z" fill="white"/>
</g>
<defs>
<clipPath id="clip0_21_63">
<rect width="48" height="54" fill="white"/>
</clipPath>
</defs>
</svg>
